<?xml version="1.0" encoding="UTF-8" standalone="no"?><svg xmlns="http://www.w3.org/2000/svg" xmlns:xlink="http://www.w3.org/1999/xlink" contentScriptType="application/ecmascript" contentStyleType="text/css" height="291px" preserveAspectRatio="none" style="width:499px;height:291px;" version="1.1" viewBox="0 0 499 291" width="499px" zoomAndPan="magnify"><defs><filter height="300%" id="fc6j62mc388lz" width="300%" x="-1" y="-1"><feGaussianBlur result="blurOut" stdDeviation="2.0"/><feColorMatrix in="blurOut" result="blurOut2" type="matrix" values="0 0 0 0 0 0 0 0 0 0 0 0 0 0 0 0 0 0 .4 0"/><feOffset dx="4.0" dy="4.0" in="blurOut2" result="blurOut3"/><feBlend in="SourceGraphic" in2="blurOut3" mode="normal"/></filter></defs><g><!--entity gl--><ellipse cx="208.5" cy="18" fill="#FEFECE" filter="url(#fc6j62mc388lz)" rx="8" ry="8" style="stroke: #A80036; stroke-width: 2.0;"/><path d="M208.5,26 L208.5,53 M195.5,34 L221.5,34 M208.5,53 L195.5,68 M208.5,53 L221.5,68 " fill="none" filter="url(#fc6j62mc388lz)" style="stroke: #A80036; stroke-width: 2.0;"/><text fill="#000000" font-family="sans-serif" font-size="14" lengthAdjust="spacingAndGlyphs" textLength="70" x="173.5" y="91.0439">店方管理者</text><ellipse cx="208.598" cy="170.52" fill="#FEFECE" filter="url(#fc6j62mc388lz)" rx="42.598" ry="16.52" style="stroke: #A80036; stroke-width: 1.5;"/><text fill="#000000" font-family="sans-serif" font-size="14" lengthAdjust="spacingAndGlyphs" textLength="56" x="180.598" y="176.58">订单管理</text><ellipse cx="328.598" cy="170.52" fill="#FEFECE" filter="url(#fc6j62mc388lz)" rx="42.598" ry="16.52" style="stroke: #A80036; stroke-width: 1.5;"/><text fill="#000000" font-family="sans-serif" font-size="14" lengthAdjust="spacingAndGlyphs" textLength="56" x="300.598" y="176.58">查看订单</text><ellipse cx="239.4534" cy="263.6907" fill="#FEFECE" filter="url(#fc6j62mc388lz)" rx="71.4534" ry="16.6907" style="stroke: #A80036; stroke-width: 1.5;"/><text fill="#000000" font-family="sans-serif" font-size="14" lengthAdjust="spacingAndGlyphs" textLength="98" x="190.4534" y="269.7507">查看待完成订单</text><ellipse cx="417.4534" cy="263.6907" fill="#FEFECE" filter="url(#fc6j62mc388lz)" rx="71.4534" ry="16.6907" style="stroke: #A80036; stroke-width: 1.5;"/><text fill="#000000" font-family="sans-serif" font-size="14" lengthAdjust="spacingAndGlyphs" textLength="98" x="368.4534" y="269.7507">查看未完成订单</text><ellipse cx="68.397" cy="170.52" fill="#FEFECE" filter="url(#fc6j62mc388lz)" rx="62.397" ry="16.52" style="stroke: #A80036; stroke-width: 1.5;"/><text fill="#000000" font-family="sans-serif" font-size="14" lengthAdjust="spacingAndGlyphs" textLength="84" x="26.397" y="176.58">更改订单状态</text><!--link gl to 订单管理--><path d="M208.5,94.088 C208.5,112.621 208.5,133.565 208.5,148.67 " fill="none" id="gl-&gt;订单管理" style="stroke: #A80036; stroke-width: 1.0;"/><polygon fill="#A80036" points="208.5,153.956,212.5,144.956,208.5,148.956,204.5,144.956,208.5,153.956" style="stroke: #A80036; stroke-width: 1.0;"/><!--reverse link 订单管理 to 查看订单--><path d="M271.243,170.5 C276.129,170.5 281.015,170.5 285.901,170.5 " fill="none" id="订单管理&lt;-查看订单" style="stroke: #A80036; stroke-width: 1.0;"/><polygon fill="none" points="271.156,177.5,251.156,170.5,271.156,163.5,271.156,177.5" style="stroke: #A80036; stroke-width: 1.0;"/><!--reverse link 查看订单 to 查看待完成订单--><path d="M299.79,200.8555 C284.65,216.3351 266.71,234.679 254.357,247.3087 " fill="none" id="查看订单&lt;-查看待完成订单" style="stroke: #A80036; stroke-width: 1.0;"/><polygon fill="none" points="295.212,195.5247,314.201,186.1207,305.221,205.3136,295.212,195.5247" style="stroke: #A80036; stroke-width: 1.0;"/><!--reverse link 查看订单 to 查看未完成订单--><path d="M357.21,200.8555 C372.35,216.3351 390.29,234.679 402.643,247.3087 " fill="none" id="查看订单&lt;-查看未完成订单" style="stroke: #A80036; stroke-width: 1.0;"/><polygon fill="none" points="351.779,205.3136,342.799,186.1207,361.788,195.5247,351.779,205.3136" style="stroke: #A80036; stroke-width: 1.0;"/><!--link 更改订单状态 to 订单管理--><path d="M131.117,170.5 C136.006,170.5 140.894,170.5 145.782,170.5 " fill="none" id="更改订单状态-&gt;订单管理" style="stroke: #A80036; stroke-width: 1.0;"/><polygon fill="none" points="145.879,163.5,165.879,170.5,145.879,177.5,145.879,163.5" style="stroke: #A80036; stroke-width: 1.0;"/><!--
@startuml 后台用例-系统管理
actor 店方管理者 as gl


gl -down-> (订单管理)
(订单管理) <|- (查看订单)
(查看订单) <|-down- (查看待完成订单)
(查看订单) <|-down- (查看未完成订单)

(订单管理) <|-left- (更改订单状态)


@enduml

PlantUML version 1.2019.09(Tue Aug 27 00:19:51 CST 2019)
(GPL source distribution)
Java Runtime: Java(TM) SE Runtime Environment
JVM: Java HotSpot(TM) 64-Bit Server VM
Java Version: 10.0.2+13
Operating System: Windows 10
OS Version: 10.0
Default Encoding: GBK
Language: zh
Country: CN
--></g></svg>