<?xml version="1.0" encoding="UTF-8" standalone="no"?><svg xmlns="http://www.w3.org/2000/svg" xmlns:xlink="http://www.w3.org/1999/xlink" contentScriptType="application/ecmascript" contentStyleType="text/css" height="517px" preserveAspectRatio="none" style="width:745px;height:517px;" version="1.1" viewBox="0 0 745 517" width="745px" zoomAndPan="magnify"><defs><filter height="300%" id="f113vvs82sz617" width="300%" x="-1" y="-1"><feGaussianBlur result="blurOut" stdDeviation="2.0"/><feColorMatrix in="blurOut" result="blurOut2" type="matrix" values="0 0 0 0 0 0 0 0 0 0 0 0 0 0 0 0 0 0 .4 0"/><feOffset dx="4.0" dy="4.0" in="blurOut2" result="blurOut3"/><feBlend in="SourceGraphic" in2="blurOut3" mode="normal"/></filter></defs><g><!--entity gl--><ellipse cx="387.5" cy="112" fill="#FEFECE" filter="url(#f113vvs82sz617)" rx="8" ry="8" style="stroke: #A80036; stroke-width: 2.0;"/><path d="M387.5,120 L387.5,147 M374.5,128 L400.5,128 M387.5,147 L374.5,162 M387.5,147 L400.5,162 " fill="none" filter="url(#f113vvs82sz617)" style="stroke: #A80036; stroke-width: 2.0;"/><text fill="#000000" font-family="sans-serif" font-size="14" lengthAdjust="spacingAndGlyphs" textLength="70" x="352.5" y="185.0439">店方管理者</text><ellipse cx="267.598" cy="145.02" fill="#FEFECE" filter="url(#f113vvs82sz617)" rx="42.598" ry="16.52" style="stroke: #A80036; stroke-width: 1.5;"/><text fill="#000000" font-family="sans-serif" font-size="14" lengthAdjust="spacingAndGlyphs" textLength="56" x="239.598" y="151.08">用户管理</text><ellipse cx="98.397" cy="145.02" fill="#FEFECE" filter="url(#f113vvs82sz617)" rx="62.397" ry="16.52" style="stroke: #A80036; stroke-width: 1.5;"/><text fill="#000000" font-family="sans-serif" font-size="14" lengthAdjust="spacingAndGlyphs" textLength="84" x="56.397" y="151.08">审核注册用户</text><ellipse cx="267.598" cy="283.52" fill="#FEFECE" filter="url(#f113vvs82sz617)" rx="42.598" ry="16.52" style="stroke: #A80036; stroke-width: 1.5;"/><text fill="#000000" font-family="sans-serif" font-size="14" lengthAdjust="spacingAndGlyphs" textLength="56" x="239.598" y="289.58">删除用户</text><ellipse cx="68.397" cy="283.52" fill="#FEFECE" filter="url(#f113vvs82sz617)" rx="62.397" ry="16.52" style="stroke: #A80036; stroke-width: 1.5;"/><text fill="#000000" font-family="sans-serif" font-size="14" lengthAdjust="spacingAndGlyphs" textLength="84" x="26.397" y="289.58">查看用户信息</text><ellipse cx="387.598" cy="283.52" fill="#FEFECE" filter="url(#f113vvs82sz617)" rx="42.598" ry="16.52" style="stroke: #A80036; stroke-width: 1.5;"/><text fill="#000000" font-family="sans-serif" font-size="14" lengthAdjust="spacingAndGlyphs" textLength="56" x="359.598" y="289.58">留言管理</text><ellipse cx="347.598" cy="377.52" fill="#FEFECE" filter="url(#f113vvs82sz617)" rx="42.598" ry="16.52" style="stroke: #A80036; stroke-width: 1.5;"/><text fill="#000000" font-family="sans-serif" font-size="14" lengthAdjust="spacingAndGlyphs" textLength="56" x="319.598" y="383.58">回复留言</text><ellipse cx="409.598" cy="489.52" fill="#FEFECE" filter="url(#f113vvs82sz617)" rx="42.598" ry="16.52" style="stroke: #A80036; stroke-width: 1.5;"/><text fill="#000000" font-family="sans-serif" font-size="14" lengthAdjust="spacingAndGlyphs" textLength="56" x="381.598" y="495.58">查看留言</text><ellipse cx="467.598" cy="377.52" fill="#FEFECE" filter="url(#f113vvs82sz617)" rx="42.598" ry="16.52" style="stroke: #A80036; stroke-width: 1.5;"/><text fill="#000000" font-family="sans-serif" font-size="14" lengthAdjust="spacingAndGlyphs" textLength="56" x="439.598" y="383.58">删除留言</text><ellipse cx="507.598" cy="145.02" fill="#FEFECE" filter="url(#f113vvs82sz617)" rx="42.598" ry="16.52" style="stroke: #A80036; stroke-width: 1.5;"/><text fill="#000000" font-family="sans-serif" font-size="14" lengthAdjust="spacingAndGlyphs" textLength="56" x="479.598" y="151.08">友链管理</text><ellipse cx="507.598" cy="283.52" fill="#FEFECE" filter="url(#f113vvs82sz617)" rx="42.598" ry="16.52" style="stroke: #A80036; stroke-width: 1.5;"/><text fill="#000000" font-family="sans-serif" font-size="14" lengthAdjust="spacingAndGlyphs" textLength="56" x="479.598" y="289.58">新增友链</text><ellipse cx="656.598" cy="145.02" fill="#FEFECE" filter="url(#f113vvs82sz617)" rx="42.598" ry="16.52" style="stroke: #A80036; stroke-width: 1.5;"/><text fill="#000000" font-family="sans-serif" font-size="14" lengthAdjust="spacingAndGlyphs" textLength="56" x="628.598" y="151.08">删除友链</text><ellipse cx="686.598" cy="283.52" fill="#FEFECE" filter="url(#f113vvs82sz617)" rx="42.598" ry="16.52" style="stroke: #A80036; stroke-width: 1.5;"/><text fill="#000000" font-family="sans-serif" font-size="14" lengthAdjust="spacingAndGlyphs" textLength="56" x="658.598" y="289.58">查看友链</text><ellipse cx="387.397" cy="24.52" fill="#FEFECE" filter="url(#f113vvs82sz617)" rx="62.397" ry="16.52" style="stroke: #A80036; stroke-width: 1.5;"/><text fill="#000000" font-family="sans-serif" font-size="14" lengthAdjust="spacingAndGlyphs" textLength="84" x="345.397" y="30.58">信息反馈处理</text><ellipse cx="586.598" cy="24.52" fill="#FEFECE" filter="url(#f113vvs82sz617)" rx="42.598" ry="16.52" style="stroke: #A80036; stroke-width: 1.5;"/><text fill="#000000" font-family="sans-serif" font-size="14" lengthAdjust="spacingAndGlyphs" textLength="56" x="558.598" y="30.58">查看订单</text><!--reverse link 用户管理 to gl--><path d="M315.443,145 C327.78,145 340.117,145 352.454,145 " fill="none" id="用户管理&lt;-gl" style="stroke: #A80036; stroke-width: 1.0;"/><polygon fill="#A80036" points="310.156,145,319.156,149,315.156,145,319.156,141,310.156,145" style="stroke: #A80036; stroke-width: 1.0;"/><!--link 审核注册用户 to 用户管理--><path d="M161.215,145 C175.607,145 189.998,145 204.39,145 " fill="none" id="审核注册用户-&gt;用户管理" style="stroke: #A80036; stroke-width: 1.0;"/><polygon fill="none" points="204.737,138,224.737,145,204.737,152,204.737,138" style="stroke: #A80036; stroke-width: 1.0;"/><!--reverse link 用户管理 to 删除用户--><path d="M267.5,182.062 C267.5,209.53 267.5,246.019 267.5,266.604 " fill="none" id="用户管理&lt;-删除用户" style="stroke: #A80036; stroke-width: 1.0;"/><polygon fill="none" points="260.5,181.658,267.5,161.658,274.5,181.658,260.5,181.658" style="stroke: #A80036; stroke-width: 1.0;"/><!--link 审核注册用户 to 查看用户信息--><path d="M95.0586,161.658 C89.6334,186.343 79.0897,234.317 73.0469,261.811 " fill="none" id="审核注册用户-&gt;查看用户信息" style="stroke: #A80036; stroke-width: 1.0;"/><polygon fill="#A80036" points="71.9012,267.024,77.7414,259.0936,72.9754,262.1408,69.9282,257.3748,71.9012,267.024" style="stroke: #A80036; stroke-width: 1.0;"/><text fill="#000000" font-family="sans-serif" font-size="13" lengthAdjust="spacingAndGlyphs" textLength="57" x="84.5" y="233.8979">&lt;include&gt;</text><!--reverse link 查看用户信息 to 删除用户--><path d="M136.247,283.5 C165.627,283.5 199.133,283.5 224.937,283.5 " fill="none" id="查看用户信息&lt;-删除用户" style="stroke: #A80036; stroke-width: 1.0;"/><polygon fill="#A80036" points="131.192,283.5,140.192,287.5,136.192,283.5,140.192,279.5,131.192,283.5" style="stroke: #A80036; stroke-width: 1.0;"/><text fill="#000000" font-family="sans-serif" font-size="13" lengthAdjust="spacingAndGlyphs" textLength="57" x="149.5" y="277.3979">&lt;include&gt;</text><!--link gl to 留言管理--><path d="M387.5,188.068 C387.5,212.413 387.5,241.996 387.5,261.489 " fill="none" id="gl-&gt;留言管理" style="stroke: #A80036; stroke-width: 1.0;"/><polygon fill="#A80036" points="387.5,266.706,391.5,257.706,387.5,261.706,383.5,257.706,387.5,266.706" style="stroke: #A80036; stroke-width: 1.0;"/><!--reverse link 留言管理 to 回复留言--><path d="M372.656,318.641 C366.308,333.241 359.217,349.552 354.185,361.124 " fill="none" id="留言管理&lt;-回复留言" style="stroke: #A80036; stroke-width: 1.0;"/><polygon fill="none" points="366.32,315.657,380.715,300.107,379.159,321.239,366.32,315.657" style="stroke: #A80036; stroke-width: 1.0;"/><!--link 回复留言 to 查看留言--><path d="M350.646,394.113 C353.819,407.6694 359.542,427.5023 368.5,443 C374.17,452.8102 382.224,462.3371 389.695,470.1167 " fill="none" id="回复留言-&gt;查看留言" style="stroke: #A80036; stroke-width: 1.0;"/><polygon fill="#A80036" points="393.302,473.789,389.8487,464.5654,389.7982,470.222,384.1415,470.1715,393.302,473.789" style="stroke: #A80036; stroke-width: 1.0;"/><text fill="#000000" font-family="sans-serif" font-size="13" lengthAdjust="spacingAndGlyphs" textLength="57" x="369.5" y="439.8979">&lt;include&gt;</text><!--reverse link 留言管理 to 删除留言--><path d="M413.477,314.374 C427.269,330.235 443.609,349.025 454.679,361.755 " fill="none" id="留言管理&lt;-删除留言" style="stroke: #A80036; stroke-width: 1.0;"/><polygon fill="none" points="408.195,318.967,400.353,299.281,418.759,309.78,408.195,318.967" style="stroke: #A80036; stroke-width: 1.0;"/><!--link 删除留言 to 查看留言--><path d="M459.435,393.795 C449.191,413.2234 431.484,446.8053 420.142,468.3177 " fill="none" id="删除留言-&gt;查看留言" style="stroke: #A80036; stroke-width: 1.0;"/><polygon fill="#A80036" points="417.683,472.9803,425.4189,466.8847,420.015,468.5574,418.3423,463.1535,417.683,472.9803" style="stroke: #A80036; stroke-width: 1.0;"/><text fill="#000000" font-family="sans-serif" font-size="13" lengthAdjust="spacingAndGlyphs" textLength="57" x="443.5" y="439.8979">&lt;include&gt;</text><!--link gl to 友链管理--><path d="M422.656,145 C434.933,145 447.209,145 459.485,145 " fill="none" id="gl-&gt;友链管理" style="stroke: #A80036; stroke-width: 1.0;"/><polygon fill="#A80036" points="464.747,145,455.747,141,459.747,145,455.747,149,464.747,145" style="stroke: #A80036; stroke-width: 1.0;"/><!--reverse link 友链管理 to 新增友链--><path d="M507.5,182.062 C507.5,209.53 507.5,246.019 507.5,266.604 " fill="none" id="友链管理&lt;-新增友链" style="stroke: #A80036; stroke-width: 1.0;"/><polygon fill="none" points="500.5,181.658,507.5,161.658,514.5,181.658,500.5,181.658" style="stroke: #A80036; stroke-width: 1.0;"/><!--reverse link 友链管理 to 删除友链--><path d="M570.614,145 C584.997,145 599.38,145 613.763,145 " fill="none" id="友链管理&lt;-删除友链" style="stroke: #A80036; stroke-width: 1.0;"/><polygon fill="none" points="570.279,152,550.279,145,570.279,138,570.279,152" style="stroke: #A80036; stroke-width: 1.0;"/><!--link 新增友链 to 查看友链--><path d="M550.375,283.5 C577.054,283.5 611.402,283.5 638.92,283.5 " fill="none" id="新增友链-&gt;查看友链" style="stroke: #A80036; stroke-width: 1.0;"/><polygon fill="#A80036" points="643.975,283.5,634.975,279.5,638.975,283.5,634.975,287.5,643.975,283.5" style="stroke: #A80036; stroke-width: 1.0;"/><text fill="#000000" font-family="sans-serif" font-size="13" lengthAdjust="spacingAndGlyphs" textLength="57" x="568.5" y="277.3979">&lt;include&gt;</text><!--link 删除友链 to 查看友链--><path d="M659.941,161.658 C665.367,186.343 675.91,234.317 681.953,261.811 " fill="none" id="删除友链-&gt;查看友链" style="stroke: #A80036; stroke-width: 1.0;"/><polygon fill="#A80036" points="683.099,267.024,685.0723,257.3749,682.0249,262.1407,677.2591,259.0934,683.099,267.024" style="stroke: #A80036; stroke-width: 1.0;"/><text fill="#000000" font-family="sans-serif" font-size="13" lengthAdjust="spacingAndGlyphs" textLength="57" x="676.5" y="233.8979">&lt;include&gt;</text><!--reverse link 信息反馈处理 to gl--><path d="M387.5,46.832 C387.5,62.11 387.5,83.189 387.5,101.809 " fill="none" id="信息反馈处理&lt;-gl" style="stroke: #A80036; stroke-width: 1.0;"/><polygon fill="#A80036" points="387.5,41.481,383.5,50.481,387.5,46.481,391.5,50.481,387.5,41.481" style="stroke: #A80036; stroke-width: 1.0;"/><!--link 信息反馈处理 to 查看订单--><path d="M450.192,24.5 C478.816,24.5 512.171,24.5 538.721,24.5 " fill="none" id="信息反馈处理-&gt;查看订单" style="stroke: #A80036; stroke-width: 1.0;"/><polygon fill="#A80036" points="543.937,24.5,534.937,20.5,538.937,24.5,534.937,28.5,543.937,24.5" style="stroke: #A80036; stroke-width: 1.0;"/><text fill="#000000" font-family="sans-serif" font-size="13" lengthAdjust="spacingAndGlyphs" textLength="57" x="468.5" y="18.3979">&lt;include&gt;</text><!--
@startuml 后台用例-系统管理
actor 店方管理者 as gl


gl -left-> (用户管理)

(用户管理) <|-left- (审核注册用户)
(用户管理) <|-down- (删除用户)

(审核注册用户) -down-> (查看用户信息): <include>
(删除用户) -left-> (查看用户信息): <include>

gl -down-> (留言管理)
(留言管理) <|-down- (回复留言)
(回复留言) -down-> (查看留言): <include>
(留言管理) <|-down- (删除留言)
(删除留言) -down-> (查看留言): <include>

gl -right-> (友链管理)
(友链管理) <|-down- (新增友链)
(友链管理) <|-right- (删除友链)
(新增友链) -right-> (查看友链): <include>
(删除友链) -down-> (查看友链): <include>



gl -up-> (信息反馈处理)
(信息反馈处理) -> (查看订单) : <include>

@enduml

PlantUML version 1.2019.09(Tue Aug 27 00:19:51 CST 2019)
(GPL source distribution)
Java Runtime: Java(TM) SE Runtime Environment
JVM: Java HotSpot(TM) 64-Bit Server VM
Java Version: 10.0.2+13
Operating System: Windows 10
OS Version: 10.0
Default Encoding: GBK
Language: zh
Country: CN
--></g></svg>