<?xml version="1.0" encoding="UTF-8" standalone="no"?><svg xmlns="http://www.w3.org/2000/svg" xmlns:xlink="http://www.w3.org/1999/xlink" contentScriptType="application/ecmascript" contentStyleType="text/css" height="389px" preserveAspectRatio="none" style="width:786px;height:389px;" version="1.1" viewBox="0 0 786 389" width="786px" zoomAndPan="magnify"><defs><filter height="300%" id="f1x9cgvxdwa9e7" width="300%" x="-1" y="-1"><feGaussianBlur result="blurOut" stdDeviation="2.0"/><feColorMatrix in="blurOut" result="blurOut2" type="matrix" values="0 0 0 0 0 0 0 0 0 0 0 0 0 0 0 0 0 0 .4 0"/><feOffset dx="4.0" dy="4.0" in="blurOut2" result="blurOut3"/><feBlend in="SourceGraphic" in2="blurOut3" mode="normal"/></filter></defs><g><!--entity kh--><ellipse cx="515.5" cy="112" fill="#FEFECE" filter="url(#f1x9cgvxdwa9e7)" rx="8" ry="8" style="stroke: #A80036; stroke-width: 2.0;"/><path d="M515.5,120 L515.5,147 M502.5,128 L528.5,128 M515.5,147 L502.5,162 M515.5,147 L528.5,162 " fill="none" filter="url(#f1x9cgvxdwa9e7)" style="stroke: #A80036; stroke-width: 2.0;"/><text fill="#000000" font-family="sans-serif" font-size="14" lengthAdjust="spacingAndGlyphs" textLength="28" x="501.5" y="185.0439">客户</text><!--entity yk--><ellipse cx="581.5" cy="112" fill="#FEFECE" filter="url(#f1x9cgvxdwa9e7)" rx="8" ry="8" style="stroke: #A80036; stroke-width: 2.0;"/><path d="M581.5,120 L581.5,147 M568.5,128 L594.5,128 M581.5,147 L568.5,162 M581.5,147 L594.5,162 " fill="none" filter="url(#f1x9cgvxdwa9e7)" style="stroke: #A80036; stroke-width: 2.0;"/><text fill="#000000" font-family="sans-serif" font-size="14" lengthAdjust="spacingAndGlyphs" textLength="28" x="567.5" y="185.0439">游客</text><ellipse cx="592.598" cy="266.52" fill="#FEFECE" filter="url(#f1x9cgvxdwa9e7)" rx="42.598" ry="16.52" style="stroke: #A80036; stroke-width: 1.5;"/><text fill="#000000" font-family="sans-serif" font-size="14" lengthAdjust="spacingAndGlyphs" textLength="56" x="564.598" y="272.58">浏览信息</text><ellipse cx="452.598" cy="361.52" fill="#FEFECE" filter="url(#f1x9cgvxdwa9e7)" rx="42.598" ry="16.52" style="stroke: #A80036; stroke-width: 1.5;"/><text fill="#000000" font-family="sans-serif" font-size="14" lengthAdjust="spacingAndGlyphs" textLength="56" x="424.598" y="367.58">浏览菜单</text><ellipse cx="592.397" cy="361.52" fill="#FEFECE" filter="url(#f1x9cgvxdwa9e7)" rx="62.397" ry="16.52" style="stroke: #A80036; stroke-width: 1.5;"/><text fill="#000000" font-family="sans-serif" font-size="14" lengthAdjust="spacingAndGlyphs" textLength="84" x="550.397" y="367.58">浏览友情链接</text><ellipse cx="732.598" cy="361.52" fill="#FEFECE" filter="url(#f1x9cgvxdwa9e7)" rx="42.598" ry="16.52" style="stroke: #A80036; stroke-width: 1.5;"/><text fill="#000000" font-family="sans-serif" font-size="14" lengthAdjust="spacingAndGlyphs" textLength="56" x="704.598" y="367.58">浏览留言</text><ellipse cx="712.598" cy="266.52" fill="#FEFECE" filter="url(#f1x9cgvxdwa9e7)" rx="42.598" ry="16.52" style="stroke: #A80036; stroke-width: 1.5;"/><text fill="#000000" font-family="sans-serif" font-size="14" lengthAdjust="spacingAndGlyphs" textLength="56" x="684.598" y="272.58">浏览公告</text><ellipse cx="674.598" cy="145.02" fill="#FEFECE" filter="url(#f1x9cgvxdwa9e7)" rx="42.598" ry="16.52" style="stroke: #A80036; stroke-width: 1.5;"/><text fill="#000000" font-family="sans-serif" font-size="14" lengthAdjust="spacingAndGlyphs" textLength="56" x="646.598" y="151.08">注册账号</text><ellipse cx="686.598" cy="24.52" fill="#FEFECE" filter="url(#f1x9cgvxdwa9e7)" rx="42.598" ry="16.52" style="stroke: #A80036; stroke-width: 1.5;"/><text fill="#000000" font-family="sans-serif" font-size="14" lengthAdjust="spacingAndGlyphs" textLength="56" x="658.598" y="30.58">登录账号</text><ellipse cx="440.299" cy="145.02" fill="#FEFECE" filter="url(#f1x9cgvxdwa9e7)" rx="22.799" ry="16.52" style="stroke: #A80036; stroke-width: 1.5;"/><text fill="#000000" font-family="sans-serif" font-size="14" lengthAdjust="spacingAndGlyphs" textLength="28" x="426.299" y="151.08">订餐</text><ellipse cx="566.598" cy="24.52" fill="#FEFECE" filter="url(#f1x9cgvxdwa9e7)" rx="42.598" ry="16.52" style="stroke: #A80036; stroke-width: 1.5;"/><text fill="#000000" font-family="sans-serif" font-size="14" lengthAdjust="spacingAndGlyphs" textLength="56" x="538.598" y="30.58">查看订单</text><ellipse cx="465.299" cy="24.52" fill="#FEFECE" filter="url(#f1x9cgvxdwa9e7)" rx="22.799" ry="16.52" style="stroke: #A80036; stroke-width: 1.5;"/><text fill="#000000" font-family="sans-serif" font-size="14" lengthAdjust="spacingAndGlyphs" textLength="28" x="451.299" y="30.58">留言</text><ellipse cx="384.299" cy="24.52" fill="#FEFECE" filter="url(#f1x9cgvxdwa9e7)" rx="22.799" ry="16.52" style="stroke: #A80036; stroke-width: 1.5;"/><text fill="#000000" font-family="sans-serif" font-size="14" lengthAdjust="spacingAndGlyphs" textLength="28" x="370.299" y="30.58">反馈</text><ellipse cx="266.4975" cy="145.02" fill="#FEFECE" filter="url(#f1x9cgvxdwa9e7)" rx="52.4975" ry="16.52" style="stroke: #A80036; stroke-width: 1.5;"/><text fill="#000000" font-family="sans-serif" font-size="14" lengthAdjust="spacingAndGlyphs" textLength="70" x="231.4975" y="151.08">管理购物车</text><ellipse cx="82.6265" cy="266.7253" fill="#FEFECE" filter="url(#f1x9cgvxdwa9e7)" rx="76.6265" ry="17.7253" style="stroke: #A80036; stroke-width: 1.5;"/><text fill="#000000" font-family="sans-serif" font-size="14" lengthAdjust="spacingAndGlyphs" textLength="112" x="26.6265" y="272.7854">添加菜品到购物车</text><ellipse cx="265.4534" cy="266.6907" fill="#FEFECE" filter="url(#f1x9cgvxdwa9e7)" rx="71.4534" ry="16.6907" style="stroke: #A80036; stroke-width: 1.5;"/><text fill="#000000" font-family="sans-serif" font-size="14" lengthAdjust="spacingAndGlyphs" textLength="98" x="216.4534" y="272.7507">删除购物车菜品</text><ellipse cx="443.4534" cy="266.6907" fill="#FEFECE" filter="url(#f1x9cgvxdwa9e7)" rx="71.4534" ry="16.6907" style="stroke: #A80036; stroke-width: 1.5;"/><text fill="#000000" font-family="sans-serif" font-size="14" lengthAdjust="spacingAndGlyphs" textLength="98" x="394.4534" y="272.7507">查看购物车菜品</text><!--link kh to yk--><path d="M530.711,145 C535.919,145 541.127,145 546.335,145 " fill="none" id="kh-&gt;yk" style="stroke: #A80036; stroke-width: 1.0;"/><polygon fill="none" points="546.422,138,566.422,145,546.422,152,546.422,138" style="stroke: #A80036; stroke-width: 1.0;"/><!--link yk to 浏览信息--><path d="M585.378,188.131 C587.145,207.33 589.158,229.193 590.592,244.769 " fill="none" id="yk-&gt;浏览信息" style="stroke: #A80036; stroke-width: 1.0;"/><polygon fill="#A80036" points="591.055,249.798,594.2127,240.4691,590.5964,244.8191,586.2464,241.2028,591.055,249.798" style="stroke: #A80036; stroke-width: 1.0;"/><!--reverse link 浏览信息 to 浏览菜单--><path d="M555.402,292.1439 C528.978,309.6967 494.458,332.628 472.882,346.9607 " fill="none" id="浏览信息&lt;-浏览菜单" style="stroke: #A80036; stroke-width: 1.0;"/><polygon fill="none" points="551.61,286.2588,572.143,281.023,559.357,297.9203,551.61,286.2588" style="stroke: #A80036; stroke-width: 1.0;"/><!--reverse link 浏览信息 to 浏览友情链接--><path d="M592.5,303.281 C592.5,317.7089 592.5,333.5928 592.5,344.9568 " fill="none" id="浏览信息&lt;-浏览友情链接" style="stroke: #A80036; stroke-width: 1.0;"/><polygon fill="none" points="585.5,303.2762,592.5,283.2762,599.5,303.2761,585.5,303.2762" style="stroke: #A80036; stroke-width: 1.0;"/><!--reverse link 浏览信息 to 浏览留言--><path d="M629.598,292.1439 C656.022,309.6967 690.542,332.628 712.118,346.9607 " fill="none" id="浏览信息&lt;-浏览留言" style="stroke: #A80036; stroke-width: 1.0;"/><polygon fill="none" points="625.643,297.9203,612.857,281.023,633.39,286.2588,625.643,297.9203" style="stroke: #A80036; stroke-width: 1.0;"/><!--reverse link 浏览信息 to 浏览公告--><path d="M655.243,266.5 C660.129,266.5 665.015,266.5 669.901,266.5 " fill="none" id="浏览信息&lt;-浏览公告" style="stroke: #A80036; stroke-width: 1.0;"/><polygon fill="none" points="655.156,273.5,635.156,266.5,655.156,259.5,655.156,273.5" style="stroke: #A80036; stroke-width: 1.0;"/><!--link yk to 注册账号--><path d="M596.758,145 C606.757,145 616.756,145 626.756,145 " fill="none" id="yk-&gt;注册账号" style="stroke: #A80036; stroke-width: 1.0;"/><polygon fill="#A80036" points="631.985,145,622.985,141,626.985,145,622.985,149,631.985,145" style="stroke: #A80036; stroke-width: 1.0;"/><!--reverse link 登录账号 to kh--><path d="M653.944,39.042 C624.439,52.311 580.766,74.518 548.5,102 C542.005,107.532 535.917,114.512 530.781,121.185 " fill="none" id="登录账号&lt;-kh" style="stroke: #A80036; stroke-width: 1.0;"/><polygon fill="#A80036" points="658.554,36.99,648.7051,36.998,653.9866,39.0244,651.9602,44.3059,658.554,36.99" style="stroke: #A80036; stroke-width: 1.0;"/><!--reverse link 订餐 to kh--><path d="M468.772,145 C479.216,145 489.661,145 500.105,145 " fill="none" id="订餐&lt;-kh" style="stroke: #A80036; stroke-width: 1.0;"/><polygon fill="#A80036" points="463.645,145,472.645,149,468.645,145,472.645,141,463.645,145" style="stroke: #A80036; stroke-width: 1.0;"/><!--reverse link 查看订单 to kh--><path d="M557.824,45.659 C550.36,63.002 539.423,88.415 530.537,109.062 " fill="none" id="查看订单&lt;-kh" style="stroke: #A80036; stroke-width: 1.0;"/><polygon fill="#A80036" points="559.833,40.992,552.6014,47.6781,557.8567,45.5848,559.9499,50.8402,559.833,40.992" style="stroke: #A80036; stroke-width: 1.0;"/><!--reverse link 留言 to kh--><path d="M473.962,45.554 C481.187,62.678 491.754,87.722 500.422,108.265 " fill="none" id="留言&lt;-kh" style="stroke: #A80036; stroke-width: 1.0;"/><polygon fill="#A80036" points="471.833,40.508,471.647,50.3551,473.7771,45.1146,479.0176,47.2446,471.833,40.508" style="stroke: #A80036; stroke-width: 1.0;"/><!--reverse link 反馈 to kh--><path d="M404.375,39.488 C424.493,54.06 456.038,78.068 480.5,102 C487.42,108.77 494.382,116.813 500.254,124.04 " fill="none" id="反馈&lt;-kh" style="stroke: #A80036; stroke-width: 1.0;"/><polygon fill="#A80036" points="400.262,36.525,405.2262,45.0313,404.3189,39.4477,409.9025,38.5403,400.262,36.525" style="stroke: #A80036; stroke-width: 1.0;"/><!--reverse link 管理购物车 to 订餐--><path d="M324.233,145 C356.065,145 393.815,145 417.467,145 " fill="none" id="管理购物车&lt;-订餐" style="stroke: #A80036; stroke-width: 1.0;"/><polygon fill="#A80036" points="319.178,145,328.178,149,324.178,145,328.178,141,319.178,145" style="stroke: #A80036; stroke-width: 1.0;"/><text fill="#000000" font-family="sans-serif" font-size="13" lengthAdjust="spacingAndGlyphs" textLength="57" x="339.75" y="138.8979">&lt;include&gt;</text><!--reverse link 管理购物车 to 添加菜品到购物车--><path d="M227.79,171.14 C191.206,194.9 137.463,229.804 106.632,249.828 " fill="none" id="管理购物车&lt;-添加菜品到购物车" style="stroke: #A80036; stroke-width: 1.0;"/><polygon fill="none" points="224.084,165.2,244.67,160.177,231.71,176.941,224.084,165.2" style="stroke: #A80036; stroke-width: 1.0;"/><!--reverse link 管理购物车 to 删除购物车菜品--><path d="M266.2,181.853 C266.01,204.526 265.775,232.695 265.631,249.874 " fill="none" id="管理购物车&lt;-删除购物车菜品" style="stroke: #A80036; stroke-width: 1.0;"/><polygon fill="none" points="259.202,181.563,266.369,161.623,273.202,181.68,259.202,181.563" style="stroke: #A80036; stroke-width: 1.0;"/><!--reverse link 管理购物车 to 查看购物车菜品--><path d="M304.473,171.637 C340.216,195.769 392.494,231.064 421.698,250.781 " fill="none" id="管理购物车&lt;-查看购物车菜品" style="stroke: #A80036; stroke-width: 1.0;"/><polygon fill="none" points="300.158,177.17,287.499,160.177,307.992,165.567,300.158,177.17" style="stroke: #A80036; stroke-width: 1.0;"/><!--
@startuml 前台用例
actor 客户 as kh
actor 游客 as yk

kh -|> yk

yk -down-> (浏览信息)
(浏览信息) <|-down- (浏览菜单)
(浏览信息) <|-down- (浏览友情链接)
(浏览信息) <|-down- (浏览留言)
(浏览信息) <|-right- (浏览公告)

yk -> (注册账号)

kh -up-> (登录账号)
kh -left-> (订餐)
kh -up-> (查看订单)
kh -up-> (留言)
kh -up-> (反馈)
(订餐) -left-> (管理购物车): <include>
(管理购物车) <|-down- (添加菜品到购物车) 
(管理购物车) <|-down- (删除购物车菜品) 
(管理购物车) <|-down- (查看购物车菜品) 

@enduml

PlantUML version 1.2019.09(Tue Aug 27 00:19:51 CST 2019)
(GPL source distribution)
Java Runtime: Java(TM) SE Runtime Environment
JVM: Java HotSpot(TM) 64-Bit Server VM
Java Version: 10.0.2+13
Operating System: Windows 10
OS Version: 10.0
Default Encoding: GBK
Language: zh
Country: CN
--></g></svg>