<?xml version="1.0" encoding="UTF-8" standalone="no"?><svg xmlns="http://www.w3.org/2000/svg" xmlns:xlink="http://www.w3.org/1999/xlink" contentScriptType="application/ecmascript" contentStyleType="text/css" height="678px" preserveAspectRatio="none" style="width:327px;height:678px;" version="1.1" viewBox="0 0 327 678" width="327px" zoomAndPan="magnify"><defs><filter height="300%" id="f1qextmx1eouq6" width="300%" x="-1" y="-1"><feGaussianBlur result="blurOut" stdDeviation="2.0"/><feColorMatrix in="blurOut" result="blurOut2" type="matrix" values="0 0 0 0 0 0 0 0 0 0 0 0 0 0 0 0 0 0 .4 0"/><feOffset dx="4.0" dy="4.0" in="blurOut2" result="blurOut3"/><feBlend in="SourceGraphic" in2="blurOut3" mode="normal"/></filter></defs><g><!--class 注册用户--><rect fill="#FEFECE" filter="url(#f1qextmx1eouq6)" height="125.2793" id="注册用户" style="stroke: #A80036; stroke-width: 1.5;" width="162" x="109" y="8"/><ellipse cx="161.75" cy="24" fill="#ADD1B2" rx="11" ry="11" style="stroke: #A80036; stroke-width: 1.0;"/><path d="M160.3281,29.3594 Q158.4688,29.3594 157.375,27.9688 Q156.2813,26.5781 156.2813,23.5938 Q156.2813,21.0625 157.4453,19.4063 Q158.6094,17.75 160.5938,17.75 Q162.0625,17.75 162.5313,17.875 Q163,18.0781 163,18.0781 Q163,18.0781 163,18.0078 Q163,17.9375 163.6094,17.0156 L164.6563,20.6719 L163.3281,21.0781 Q162.8594,19.5313 162.1953,18.8672 Q161.5313,18.2031 160.4688,18.2031 Q160.0781,18.2031 159.3125,19.7344 Q158.5469,21.2656 158.5469,23.5156 Q158.5469,25.9844 159.2109,27.375 Q159.875,28.7656 160.4063,28.7656 Q161.4688,28.7656 162.2266,28 Q162.9844,27.2344 163.3281,25.5781 L164.6563,26.1719 Q164.3281,27.5781 163.4297,28.4688 Q162.5313,29.3594 160.3281,29.3594 Z "/><text fill="#000000" font-family="sans-serif" font-size="12" lengthAdjust="spacingAndGlyphs" textLength="48" x="182.25" y="29.5576">注册用户</text><line style="stroke: #A80036; stroke-width: 1.5;" x1="110" x2="270" y1="40" y2="40"/><text fill="#000000" font-family="Consolas" font-size="11" lengthAdjust="spacingAndGlyphs" textLength="60" x="115" y="54.9893">varchar_12</text><text fill="#000000" font-family="Consolas" font-size="11" lengthAdjust="spacingAndGlyphs" textLength="12" x="211" y="54.9893">称谓</text><text fill="#000000" font-family="Consolas" font-size="11" lengthAdjust="spacingAndGlyphs" textLength="60" x="115" y="67.8691">varchar_11</text><text fill="#000000" font-family="Consolas" font-size="11" lengthAdjust="spacingAndGlyphs" textLength="24" x="211" y="67.8691">联系电话</text><text fill="#000000" font-family="Consolas" font-size="11" lengthAdjust="spacingAndGlyphs" textLength="48" x="115" y="80.749">datetime</text><text fill="#000000" font-family="Consolas" font-size="11" lengthAdjust="spacingAndGlyphs" textLength="24" x="211" y="80.749">注册日期</text><text fill="#000000" font-family="Consolas" font-size="11" lengthAdjust="spacingAndGlyphs" textLength="18" x="115" y="93.6289">int</text><text fill="#000000" font-family="Consolas" font-size="11" lengthAdjust="spacingAndGlyphs" textLength="24" x="211" y="93.6289">注册IP</text><text fill="#000000" font-family="Consolas" font-size="11" lengthAdjust="spacingAndGlyphs" textLength="60" x="115" y="106.5088">varchar_32</text><text fill="#000000" font-family="Consolas" font-size="11" lengthAdjust="spacingAndGlyphs" textLength="24" x="211" y="106.5088">配送地址</text><text fill="#000000" font-family="Consolas" font-size="11" lengthAdjust="spacingAndGlyphs" textLength="66" x="115" y="119.3887">varchar_128</text><text fill="#000000" font-family="Consolas" font-size="11" lengthAdjust="spacingAndGlyphs" textLength="54" x="211" y="119.3887">备注 // 店家用</text><line style="stroke: #A80036; stroke-width: 1.5;" x1="110" x2="270" y1="125.2793" y2="125.2793"/><!--class 图片--><rect fill="#FEFECE" filter="url(#f1qextmx1eouq6)" height="60.8799" id="图片" style="stroke: #A80036; stroke-width: 1.5;" width="132" x="23" y="607"/><ellipse cx="72.75" cy="623" fill="#ADD1B2" rx="11" ry="11" style="stroke: #A80036; stroke-width: 1.0;"/><path d="M71.3281,628.3594 Q69.4688,628.3594 68.375,626.9688 Q67.2813,625.5781 67.2813,622.5938 Q67.2813,620.0625 68.4453,618.4063 Q69.6094,616.75 71.5938,616.75 Q73.0625,616.75 73.5313,616.875 Q74,617.0781 74,617.0781 Q74,617.0781 74,617.0078 Q74,616.9375 74.6094,616.0156 L75.6563,619.6719 L74.3281,620.0781 Q73.8594,618.5313 73.1953,617.8672 Q72.5313,617.2031 71.4688,617.2031 Q71.0781,617.2031 70.3125,618.7344 Q69.5469,620.2656 69.5469,622.5156 Q69.5469,624.9844 70.2109,626.375 Q70.875,627.7656 71.4063,627.7656 Q72.4688,627.7656 73.2266,627 Q73.9844,626.2344 74.3281,624.5781 L75.6563,625.1719 Q75.3281,626.5781 74.4297,627.4688 Q73.5313,628.3594 71.3281,628.3594 Z "/><text fill="#000000" font-family="sans-serif" font-size="12" lengthAdjust="spacingAndGlyphs" textLength="24" x="93.25" y="628.5576">图片</text><line style="stroke: #A80036; stroke-width: 1.5;" x1="24" x2="154" y1="639" y2="639"/><text fill="#000000" font-family="Consolas" font-size="11" lengthAdjust="spacingAndGlyphs" textLength="66" x="29" y="653.9893">varchar_128</text><text fill="#000000" font-family="Consolas" font-size="11" lengthAdjust="spacingAndGlyphs" textLength="24" x="125" y="653.9893">图片路径</text><line style="stroke: #A80036; stroke-width: 1.5;" x1="24" x2="154" y1="659.8799" y2="659.8799"/><!--class 菜品--><rect fill="#FEFECE" filter="url(#f1qextmx1eouq6)" height="112.3994" id="菜品" style="stroke: #A80036; stroke-width: 1.5;" width="132" x="23" y="416"/><ellipse cx="72.75" cy="432" fill="#ADD1B2" rx="11" ry="11" style="stroke: #A80036; stroke-width: 1.0;"/><path d="M71.3281,437.3594 Q69.4688,437.3594 68.375,435.9688 Q67.2813,434.5781 67.2813,431.5938 Q67.2813,429.0625 68.4453,427.4063 Q69.6094,425.75 71.5938,425.75 Q73.0625,425.75 73.5313,425.875 Q74,426.0781 74,426.0781 Q74,426.0781 74,426.0078 Q74,425.9375 74.6094,425.0156 L75.6563,428.6719 L74.3281,429.0781 Q73.8594,427.5313 73.1953,426.8672 Q72.5313,426.2031 71.4688,426.2031 Q71.0781,426.2031 70.3125,427.7344 Q69.5469,429.2656 69.5469,431.5156 Q69.5469,433.9844 70.2109,435.375 Q70.875,436.7656 71.4063,436.7656 Q72.4688,436.7656 73.2266,436 Q73.9844,435.2344 74.3281,433.5781 L75.6563,434.1719 Q75.3281,435.5781 74.4297,436.4688 Q73.5313,437.3594 71.3281,437.3594 Z "/><text fill="#000000" font-family="sans-serif" font-size="12" lengthAdjust="spacingAndGlyphs" textLength="24" x="93.25" y="437.5576">菜品</text><line style="stroke: #A80036; stroke-width: 1.5;" x1="24" x2="154" y1="448" y2="448"/><text fill="#000000" font-family="Consolas" font-size="11" lengthAdjust="spacingAndGlyphs" textLength="60" x="29" y="462.9893">varchar_12</text><text fill="#000000" font-family="Consolas" font-size="11" lengthAdjust="spacingAndGlyphs" textLength="6" x="125" y="462.9893">名</text><text fill="#000000" font-family="Consolas" font-size="11" lengthAdjust="spacingAndGlyphs" textLength="72" x="29" y="475.8691">decimal_10_2</text><text fill="#000000" font-family="Consolas" font-size="11" lengthAdjust="spacingAndGlyphs" textLength="12" x="125" y="475.8691">价格</text><text fill="#000000" font-family="Consolas" font-size="11" lengthAdjust="spacingAndGlyphs" textLength="18" x="29" y="488.749">int</text><text fill="#000000" font-family="Consolas" font-size="11" lengthAdjust="spacingAndGlyphs" textLength="12" x="125" y="488.749">库存</text><text fill="#000000" font-family="Consolas" font-size="11" lengthAdjust="spacingAndGlyphs" textLength="18" x="29" y="501.6289">int</text><text fill="#000000" font-family="Consolas" font-size="11" lengthAdjust="spacingAndGlyphs" textLength="18" x="125" y="501.6289">已售出</text><text fill="#000000" font-family="Consolas" font-size="11" lengthAdjust="spacingAndGlyphs" textLength="24" x="29" y="514.5088">bool</text><text fill="#000000" font-family="Consolas" font-size="11" lengthAdjust="spacingAndGlyphs" textLength="24" x="125" y="514.5088">是否上架</text><line style="stroke: #A80036; stroke-width: 1.5;" x1="24" x2="154" y1="520.3994" y2="520.3994"/><!--class 购物条目--><rect fill="#FEFECE" filter="url(#f1qextmx1eouq6)" height="60.8799" id="购物条目" style="stroke: #A80036; stroke-width: 1.5;" width="80" x="231" y="441.5"/><ellipse cx="246" cy="457.5" fill="#ADD1B2" rx="11" ry="11" style="stroke: #A80036; stroke-width: 1.0;"/><path d="M244.5781,462.8594 Q242.7188,462.8594 241.625,461.4688 Q240.5313,460.0781 240.5313,457.0938 Q240.5313,454.5625 241.6953,452.9063 Q242.8594,451.25 244.8438,451.25 Q246.3125,451.25 246.7813,451.375 Q247.25,451.5781 247.25,451.5781 Q247.25,451.5781 247.25,451.5078 Q247.25,451.4375 247.8594,450.5156 L248.9063,454.1719 L247.5781,454.5781 Q247.1094,453.0313 246.4453,452.3672 Q245.7813,451.7031 244.7188,451.7031 Q244.3281,451.7031 243.5625,453.2344 Q242.7969,454.7656 242.7969,457.0156 Q242.7969,459.4844 243.4609,460.875 Q244.125,462.2656 244.6563,462.2656 Q245.7188,462.2656 246.4766,461.5 Q247.2344,460.7344 247.5781,459.0781 L248.9063,459.6719 Q248.5781,461.0781 247.6797,461.9688 Q246.7813,462.8594 244.5781,462.8594 Z "/><text fill="#000000" font-family="sans-serif" font-size="12" lengthAdjust="spacingAndGlyphs" textLength="48" x="260" y="463.0576">购物条目</text><line style="stroke: #A80036; stroke-width: 1.5;" x1="232" x2="310" y1="473.5" y2="473.5"/><text fill="#000000" font-family="Consolas" font-size="11" lengthAdjust="spacingAndGlyphs" textLength="36" x="237" y="488.4893">int 数量</text><line style="stroke: #A80036; stroke-width: 1.5;" x1="232" x2="310" y1="494.3799" y2="494.3799"/><!--class 购物车--><rect fill="#FEFECE" filter="url(#f1qextmx1eouq6)" height="60.8799" id="购物车" style="stroke: #A80036; stroke-width: 1.5;" width="90" x="226" y="244"/><ellipse cx="250.9" cy="260" fill="#ADD1B2" rx="11" ry="11" style="stroke: #A80036; stroke-width: 1.0;"/><path d="M249.4781,265.3594 Q247.6188,265.3594 246.525,263.9688 Q245.4313,262.5781 245.4313,259.5938 Q245.4313,257.0625 246.5953,255.4063 Q247.7594,253.75 249.7438,253.75 Q251.2125,253.75 251.6813,253.875 Q252.15,254.0781 252.15,254.0781 Q252.15,254.0781 252.15,254.0078 Q252.15,253.9375 252.7594,253.0156 L253.8063,256.6719 L252.4781,257.0781 Q252.0094,255.5313 251.3453,254.8672 Q250.6813,254.2031 249.6188,254.2031 Q249.2281,254.2031 248.4625,255.7344 Q247.6969,257.2656 247.6969,259.5156 Q247.6969,261.9844 248.3609,263.375 Q249.025,264.7656 249.5563,264.7656 Q250.6188,264.7656 251.3766,264 Q252.1344,263.2344 252.4781,261.5781 L253.8063,262.1719 Q253.4781,263.5781 252.5797,264.4688 Q251.6813,265.3594 249.4781,265.3594 Z "/><text fill="#000000" font-family="sans-serif" font-size="12" lengthAdjust="spacingAndGlyphs" textLength="36" x="267.1" y="265.5576">购物车</text><line style="stroke: #A80036; stroke-width: 1.5;" x1="227" x2="315" y1="276" y2="276"/><text fill="#000000" font-family="Consolas" font-size="11" lengthAdjust="spacingAndGlyphs" textLength="24" x="232" y="290.9893">bool</text><text fill="#000000" font-family="Consolas" font-size="11" lengthAdjust="spacingAndGlyphs" textLength="30" x="280" y="290.9893">是否已完结</text><line style="stroke: #A80036; stroke-width: 1.5;" x1="227" x2="315" y1="296.8799" y2="296.8799"/><!--class 订单--><rect fill="#FEFECE" filter="url(#f1qextmx1eouq6)" height="125.2793" id="订单" style="stroke: #A80036; stroke-width: 1.5;" width="144" x="6" y="212"/><ellipse cx="61.75" cy="228" fill="#ADD1B2" rx="11" ry="11" style="stroke: #A80036; stroke-width: 1.0;"/><path d="M60.3281,233.3594 Q58.4688,233.3594 57.375,231.9688 Q56.2813,230.5781 56.2813,227.5938 Q56.2813,225.0625 57.4453,223.4063 Q58.6094,221.75 60.5938,221.75 Q62.0625,221.75 62.5313,221.875 Q63,222.0781 63,222.0781 Q63,222.0781 63,222.0078 Q63,221.9375 63.6094,221.0156 L64.6563,224.6719 L63.3281,225.0781 Q62.8594,223.5313 62.1953,222.8672 Q61.5313,222.2031 60.4688,222.2031 Q60.0781,222.2031 59.3125,223.7344 Q58.5469,225.2656 58.5469,227.5156 Q58.5469,229.9844 59.2109,231.375 Q59.875,232.7656 60.4063,232.7656 Q61.4688,232.7656 62.2266,232 Q62.9844,231.2344 63.3281,229.5781 L64.6563,230.1719 Q64.3281,231.5781 63.4297,232.4688 Q62.5313,233.3594 60.3281,233.3594 Z "/><text fill="#000000" font-family="sans-serif" font-size="12" lengthAdjust="spacingAndGlyphs" textLength="24" x="82.25" y="233.5576">订单</text><line style="stroke: #A80036; stroke-width: 1.5;" x1="7" x2="149" y1="244" y2="244"/><text fill="#000000" font-family="Consolas" font-size="11" lengthAdjust="spacingAndGlyphs" textLength="72" x="12" y="258.9893">decimal_10_2</text><text fill="#000000" font-family="Consolas" font-size="11" lengthAdjust="spacingAndGlyphs" textLength="12" x="108" y="258.9893">价格</text><text fill="#000000" font-family="Consolas" font-size="11" lengthAdjust="spacingAndGlyphs" textLength="48" x="12" y="271.8691">datetime</text><text fill="#000000" font-family="Consolas" font-size="11" lengthAdjust="spacingAndGlyphs" textLength="36" x="108" y="271.8691">订单创建时间</text><text fill="#000000" font-family="Consolas" font-size="11" lengthAdjust="spacingAndGlyphs" textLength="48" x="12" y="284.749">datetime</text><text fill="#000000" font-family="Consolas" font-size="11" lengthAdjust="spacingAndGlyphs" textLength="36" x="108" y="284.749">订单支付时间</text><text fill="#000000" font-family="Consolas" font-size="11" lengthAdjust="spacingAndGlyphs" textLength="48" x="12" y="297.6289">datetime</text><text fill="#000000" font-family="Consolas" font-size="11" lengthAdjust="spacingAndGlyphs" textLength="36" x="108" y="297.6289">订单配送时间</text><text fill="#000000" font-family="Consolas" font-size="11" lengthAdjust="spacingAndGlyphs" textLength="48" x="12" y="310.5088">datetime</text><text fill="#000000" font-family="Consolas" font-size="11" lengthAdjust="spacingAndGlyphs" textLength="36" x="108" y="310.5088">订单完结时间</text><text fill="#000000" font-family="Consolas" font-size="11" lengthAdjust="spacingAndGlyphs" textLength="24" x="12" y="323.3887">enum</text><text fill="#000000" font-family="Consolas" font-size="11" lengthAdjust="spacingAndGlyphs" textLength="24" x="108" y="323.3887">订单状态</text><line style="stroke: #A80036; stroke-width: 1.5;" x1="7" x2="149" y1="329.2793" y2="329.2793"/><!--link 注册用户 to 订单--><path d="M155.788,133.204 C141.957,158.15 126.025,186.884 112.196,211.826 " fill="none" id="注册用户-订单" style="stroke: #A80036; stroke-width: 1.0;"/><text fill="#000000" font-family="sans-serif" font-size="13" lengthAdjust="spacingAndGlyphs" textLength="26" x="138" y="178.8979">下单</text><polygon fill="#000000" points="146.5,187.7544,149.5,193.7544,152.5,187.7544,146.5,187.7544" style="stroke: #000000; stroke-width: 1.0;"/><text fill="#000000" font-family="sans-serif" font-size="13" lengthAdjust="spacingAndGlyphs" textLength="7" x="144.4276" y="156.3624">1</text><text fill="#000000" font-family="sans-serif" font-size="13" lengthAdjust="spacingAndGlyphs" textLength="26" x="88.7788" y="201.0786">0...n</text><!--link 订单 to 购物车--><path d="M150.141,274.5 C175.516,274.5 203.295,274.5 225.816,274.5 " fill="none" id="订单-购物车" style="stroke: #A80036; stroke-width: 1.0;"/><text fill="#000000" font-family="sans-serif" font-size="13" lengthAdjust="spacingAndGlyphs" textLength="26" x="168.5" y="268.3979">源自</text><polygon fill="#000000" points="197.5,260.8772,203.5,263.8772,197.5,266.8772,197.5,260.8772" style="stroke: #000000; stroke-width: 1.0;"/><text fill="#000000" font-family="sans-serif" font-size="13" lengthAdjust="spacingAndGlyphs" textLength="26" x="157.9899" y="290.2034">0...1</text><text fill="#000000" font-family="sans-serif" font-size="13" lengthAdjust="spacingAndGlyphs" textLength="7" x="211.057" y="271.1129">1</text><!--link 注册用户 to 购物车--><path d="M214.743,133.204 C229.491,169.984 247.542,215 259.153,243.955 " fill="none" id="注册用户-购物车" style="stroke: #A80036; stroke-width: 1.0;"/><text fill="#000000" font-family="sans-serif" font-size="13" lengthAdjust="spacingAndGlyphs" textLength="7" x="210.1992" y="156.3624">1</text><text fill="#000000" font-family="sans-serif" font-size="13" lengthAdjust="spacingAndGlyphs" textLength="26" x="227.4071" y="232.9249">0...n</text><!--link 购物车 to 购物条目--><path d="M271,305.192 C271,342.044 271,404.516 271,441.349 " fill="none" id="购物车-购物条目" style="stroke: #A80036; stroke-width: 1.0;"/><text fill="#000000" font-family="sans-serif" font-size="13" lengthAdjust="spacingAndGlyphs" textLength="26" x="272" y="382.8979">包含</text><polygon fill="#000000" points="280.5,391.7544,283.5,397.7544,286.5,391.7544,280.5,391.7544" style="stroke: #000000; stroke-width: 1.0;"/><!--link 菜品 to 购物条目--><path d="M155.221,472 C180.529,472 208.604,472 230.77,472 " fill="none" id="菜品-购物条目" style="stroke: #A80036; stroke-width: 1.0;"/><polygon fill="#000000" points="180.5,458.3772,174.5,461.3772,180.5,464.3772,180.5,458.3772" style="stroke: #000000; stroke-width: 1.0;"/><text fill="#000000" font-family="sans-serif" font-size="13" lengthAdjust="spacingAndGlyphs" textLength="26" x="186.5" y="465.8979">对应</text><!--link 菜品 to 图片--><path d="M89,528.354 C89,554.664 89,585.0605 89,606.9151 " fill="none" id="菜品-图片" style="stroke: #A80036; stroke-width: 1.0;"/><text fill="#000000" font-family="sans-serif" font-size="13" lengthAdjust="spacingAndGlyphs" textLength="26" x="90" y="573.8979">使用</text><polygon fill="#000000" points="98.5,582.7544,101.5,588.7544,104.5,582.7544,98.5,582.7544" style="stroke: #000000; stroke-width: 1.0;"/><!--
@startuml 后台用例-系统管理
skinparam classAttributeFontName Consolas

class 注册用户 {
    varchar_12	称谓
    varchar_11	联系电话
    datetime	注册日期
	int		注册IP
	varchar_32	配送地址
	varchar_128	备注 // 店家用
}
class 图片 {
	varchar_128	图片路径
}
class 菜品 {
    varchar_12	名
	decimal_10_2	价格
	int		库存
	int		已售出
	bool		是否上架
}
class 购物条目 {
    int 数量
}
class 购物车 {
	bool	是否已完结
}
class 订单 {
	decimal_10_2	价格
	datetime	订单创建时间
	datetime	订单支付时间
	datetime	订单配送时间
	datetime	订单完结时间
	enum		订单状态
}
注册用户 "1"- -"0...n" 订单 : 下单 >
订单 "0...1"-right-"1" 购物车 : 源自 > 
注册用户 "1"- -"0...n" 购物车 
购物车 - - 购物条目 : 包含 >
购物条目 -left- 菜品 : 对应 >
菜品 - - 图片 : 使用 >
@enduml

PlantUML version 1.2019.09(Tue Aug 27 00:19:51 CST 2019)
(GPL source distribution)
Java Runtime: Java(TM) SE Runtime Environment
JVM: Java HotSpot(TM) 64-Bit Server VM
Java Version: 10.0.2+13
Operating System: Windows 10
OS Version: 10.0
Default Encoding: GBK
Language: zh
Country: CN
--></g></svg>