<?xml version="1.0" encoding="UTF-8" standalone="no"?><svg xmlns="http://www.w3.org/2000/svg" xmlns:xlink="http://www.w3.org/1999/xlink" contentScriptType="application/ecmascript" contentStyleType="text/css" height="412px" preserveAspectRatio="none" style="width:688px;height:412px;" version="1.1" viewBox="0 0 688 412" width="688px" zoomAndPan="magnify"><defs><filter height="300%" id="f1q2ztgjtwstiq" width="300%" x="-1" y="-1"><feGaussianBlur result="blurOut" stdDeviation="2.0"/><feColorMatrix in="blurOut" result="blurOut2" type="matrix" values="0 0 0 0 0 0 0 0 0 0 0 0 0 0 0 0 0 0 .4 0"/><feOffset dx="4.0" dy="4.0" in="blurOut2" result="blurOut3"/><feBlend in="SourceGraphic" in2="blurOut3" mode="normal"/></filter></defs><g><!--class 支付模块--><rect fill="#FEFECE" filter="url(#f1q2ztgjtwstiq)" height="48" id="支付模块" style="stroke: #A80036; stroke-width: 1.5;" width="80" x="6" y="135"/><ellipse cx="21" cy="151" fill="#ADD1B2" rx="11" ry="11" style="stroke: #A80036; stroke-width: 1.0;"/><path d="M19.5781,156.3594 Q17.7188,156.3594 16.625,154.9688 Q15.5313,153.5781 15.5313,150.5938 Q15.5313,148.0625 16.6953,146.4063 Q17.8594,144.75 19.8438,144.75 Q21.3125,144.75 21.7813,144.875 Q22.25,145.0781 22.25,145.0781 Q22.25,145.0781 22.25,145.0078 Q22.25,144.9375 22.8594,144.0156 L23.9063,147.6719 L22.5781,148.0781 Q22.1094,146.5313 21.4453,145.8672 Q20.7813,145.2031 19.7188,145.2031 Q19.3281,145.2031 18.5625,146.7344 Q17.7969,148.2656 17.7969,150.5156 Q17.7969,152.9844 18.4609,154.375 Q19.125,155.7656 19.6563,155.7656 Q20.7188,155.7656 21.4766,155 Q22.2344,154.2344 22.5781,152.5781 L23.9063,153.1719 Q23.5781,154.5781 22.6797,155.4688 Q21.7813,156.3594 19.5781,156.3594 Z "/><text fill="#000000" font-family="sans-serif" font-size="12" lengthAdjust="spacingAndGlyphs" textLength="48" x="35" y="156.5576">支付模块</text><line style="stroke: #A80036; stroke-width: 1.5;" x1="7" x2="85" y1="167" y2="167"/><line style="stroke: #A80036; stroke-width: 1.5;" x1="7" x2="85" y1="175" y2="175"/><!--class 订单模块--><rect fill="#FEFECE" filter="url(#f1q2ztgjtwstiq)" height="48" id="订单模块" style="stroke: #A80036; stroke-width: 1.5;" width="80" x="187" y="8"/><ellipse cx="202" cy="24" fill="#ADD1B2" rx="11" ry="11" style="stroke: #A80036; stroke-width: 1.0;"/><path d="M200.5781,29.3594 Q198.7188,29.3594 197.625,27.9688 Q196.5313,26.5781 196.5313,23.5938 Q196.5313,21.0625 197.6953,19.4063 Q198.8594,17.75 200.8438,17.75 Q202.3125,17.75 202.7813,17.875 Q203.25,18.0781 203.25,18.0781 Q203.25,18.0781 203.25,18.0078 Q203.25,17.9375 203.8594,17.0156 L204.9063,20.6719 L203.5781,21.0781 Q203.1094,19.5313 202.4453,18.8672 Q201.7813,18.2031 200.7188,18.2031 Q200.3281,18.2031 199.5625,19.7344 Q198.7969,21.2656 198.7969,23.5156 Q198.7969,25.9844 199.4609,27.375 Q200.125,28.7656 200.6563,28.7656 Q201.7188,28.7656 202.4766,28 Q203.2344,27.2344 203.5781,25.5781 L204.9063,26.1719 Q204.5781,27.5781 203.6797,28.4688 Q202.7813,29.3594 200.5781,29.3594 Z "/><text fill="#000000" font-family="sans-serif" font-size="12" lengthAdjust="spacingAndGlyphs" textLength="48" x="216" y="29.5576">订单模块</text><line style="stroke: #A80036; stroke-width: 1.5;" x1="188" x2="266" y1="40" y2="40"/><line style="stroke: #A80036; stroke-width: 1.5;" x1="188" x2="266" y1="48" y2="48"/><!--class 购物车模块--><rect fill="#FEFECE" filter="url(#f1q2ztgjtwstiq)" height="48" id="购物车模块" style="stroke: #A80036; stroke-width: 1.5;" width="92" x="121" y="135"/><ellipse cx="136" cy="151" fill="#ADD1B2" rx="11" ry="11" style="stroke: #A80036; stroke-width: 1.0;"/><path d="M134.5781,156.3594 Q132.7188,156.3594 131.625,154.9688 Q130.5313,153.5781 130.5313,150.5938 Q130.5313,148.0625 131.6953,146.4063 Q132.8594,144.75 134.8438,144.75 Q136.3125,144.75 136.7813,144.875 Q137.25,145.0781 137.25,145.0781 Q137.25,145.0781 137.25,145.0078 Q137.25,144.9375 137.8594,144.0156 L138.9063,147.6719 L137.5781,148.0781 Q137.1094,146.5313 136.4453,145.8672 Q135.7813,145.2031 134.7188,145.2031 Q134.3281,145.2031 133.5625,146.7344 Q132.7969,148.2656 132.7969,150.5156 Q132.7969,152.9844 133.4609,154.375 Q134.125,155.7656 134.6563,155.7656 Q135.7188,155.7656 136.4766,155 Q137.2344,154.2344 137.5781,152.5781 L138.9063,153.1719 Q138.5781,154.5781 137.6797,155.4688 Q136.7813,156.3594 134.5781,156.3594 Z "/><text fill="#000000" font-family="sans-serif" font-size="12" lengthAdjust="spacingAndGlyphs" textLength="60" x="150" y="156.5576">购物车模块</text><line style="stroke: #A80036; stroke-width: 1.5;" x1="122" x2="212" y1="167" y2="167"/><line style="stroke: #A80036; stroke-width: 1.5;" x1="122" x2="212" y1="175" y2="175"/><!--class 用户管理模块--><rect fill="#FEFECE" filter="url(#f1q2ztgjtwstiq)" height="48" id="用户管理模块" style="stroke: #A80036; stroke-width: 1.5;" width="104" x="458" y="135"/><ellipse cx="473" cy="151" fill="#ADD1B2" rx="11" ry="11" style="stroke: #A80036; stroke-width: 1.0;"/><path d="M471.5781,156.3594 Q469.7188,156.3594 468.625,154.9688 Q467.5313,153.5781 467.5313,150.5938 Q467.5313,148.0625 468.6953,146.4063 Q469.8594,144.75 471.8438,144.75 Q473.3125,144.75 473.7813,144.875 Q474.25,145.0781 474.25,145.0781 Q474.25,145.0781 474.25,145.0078 Q474.25,144.9375 474.8594,144.0156 L475.9063,147.6719 L474.5781,148.0781 Q474.1094,146.5313 473.4453,145.8672 Q472.7813,145.2031 471.7188,145.2031 Q471.3281,145.2031 470.5625,146.7344 Q469.7969,148.2656 469.7969,150.5156 Q469.7969,152.9844 470.4609,154.375 Q471.125,155.7656 471.6563,155.7656 Q472.7188,155.7656 473.4766,155 Q474.2344,154.2344 474.5781,152.5781 L475.9063,153.1719 Q475.5781,154.5781 474.6797,155.4688 Q473.7813,156.3594 471.5781,156.3594 Z "/><text fill="#000000" font-family="sans-serif" font-size="12" lengthAdjust="spacingAndGlyphs" textLength="72" x="487" y="156.5576">用户管理模块</text><line style="stroke: #A80036; stroke-width: 1.5;" x1="459" x2="561" y1="167" y2="167"/><line style="stroke: #A80036; stroke-width: 1.5;" x1="459" x2="561" y1="175" y2="175"/><!--class 留言模块--><rect fill="#FEFECE" filter="url(#f1q2ztgjtwstiq)" height="48" id="留言模块" style="stroke: #A80036; stroke-width: 1.5;" width="80" x="597" y="135"/><ellipse cx="612" cy="151" fill="#ADD1B2" rx="11" ry="11" style="stroke: #A80036; stroke-width: 1.0;"/><path d="M610.5781,156.3594 Q608.7188,156.3594 607.625,154.9688 Q606.5313,153.5781 606.5313,150.5938 Q606.5313,148.0625 607.6953,146.4063 Q608.8594,144.75 610.8438,144.75 Q612.3125,144.75 612.7813,144.875 Q613.25,145.0781 613.25,145.0781 Q613.25,145.0781 613.25,145.0078 Q613.25,144.9375 613.8594,144.0156 L614.9063,147.6719 L613.5781,148.0781 Q613.1094,146.5313 612.4453,145.8672 Q611.7813,145.2031 610.7188,145.2031 Q610.3281,145.2031 609.5625,146.7344 Q608.7969,148.2656 608.7969,150.5156 Q608.7969,152.9844 609.4609,154.375 Q610.125,155.7656 610.6563,155.7656 Q611.7188,155.7656 612.4766,155 Q613.2344,154.2344 613.5781,152.5781 L614.9063,153.1719 Q614.5781,154.5781 613.6797,155.4688 Q612.7813,156.3594 610.5781,156.3594 Z "/><text fill="#000000" font-family="sans-serif" font-size="12" lengthAdjust="spacingAndGlyphs" textLength="48" x="626" y="156.5576">留言模块</text><line style="stroke: #A80036; stroke-width: 1.5;" x1="598" x2="676" y1="167" y2="167"/><line style="stroke: #A80036; stroke-width: 1.5;" x1="598" x2="676" y1="175" y2="175"/><!--class 菜品管理模块--><rect fill="#FEFECE" filter="url(#f1q2ztgjtwstiq)" height="48" id="菜品管理模块" style="stroke: #A80036; stroke-width: 1.5;" width="104" x="248" y="135"/><ellipse cx="263" cy="151" fill="#ADD1B2" rx="11" ry="11" style="stroke: #A80036; stroke-width: 1.0;"/><path d="M261.5781,156.3594 Q259.7188,156.3594 258.625,154.9688 Q257.5313,153.5781 257.5313,150.5938 Q257.5313,148.0625 258.6953,146.4063 Q259.8594,144.75 261.8438,144.75 Q263.3125,144.75 263.7813,144.875 Q264.25,145.0781 264.25,145.0781 Q264.25,145.0781 264.25,145.0078 Q264.25,144.9375 264.8594,144.0156 L265.9063,147.6719 L264.5781,148.0781 Q264.1094,146.5313 263.4453,145.8672 Q262.7813,145.2031 261.7188,145.2031 Q261.3281,145.2031 260.5625,146.7344 Q259.7969,148.2656 259.7969,150.5156 Q259.7969,152.9844 260.4609,154.375 Q261.125,155.7656 261.6563,155.7656 Q262.7188,155.7656 263.4766,155 Q264.2344,154.2344 264.5781,152.5781 L265.9063,153.1719 Q265.5781,154.5781 264.6797,155.4688 Q263.7813,156.3594 261.5781,156.3594 Z "/><text fill="#000000" font-family="sans-serif" font-size="12" lengthAdjust="spacingAndGlyphs" textLength="72" x="277" y="156.5576">菜品管理模块</text><line style="stroke: #A80036; stroke-width: 1.5;" x1="249" x2="351" y1="167" y2="167"/><line style="stroke: #A80036; stroke-width: 1.5;" x1="249" x2="351" y1="175" y2="175"/><!--class 公有函数--><rect fill="#FEFECE" filter="url(#f1q2ztgjtwstiq)" height="48" id="公有函数" style="stroke: #A80036; stroke-width: 1.5;" width="80" x="338" y="244"/><ellipse cx="353" cy="260" fill="#ADD1B2" rx="11" ry="11" style="stroke: #A80036; stroke-width: 1.0;"/><path d="M351.5781,265.3594 Q349.7188,265.3594 348.625,263.9688 Q347.5313,262.5781 347.5313,259.5938 Q347.5313,257.0625 348.6953,255.4063 Q349.8594,253.75 351.8438,253.75 Q353.3125,253.75 353.7813,253.875 Q354.25,254.0781 354.25,254.0781 Q354.25,254.0781 354.25,254.0078 Q354.25,253.9375 354.8594,253.0156 L355.9063,256.6719 L354.5781,257.0781 Q354.1094,255.5313 353.4453,254.8672 Q352.7813,254.2031 351.7188,254.2031 Q351.3281,254.2031 350.5625,255.7344 Q349.7969,257.2656 349.7969,259.5156 Q349.7969,261.9844 350.4609,263.375 Q351.125,264.7656 351.6563,264.7656 Q352.7188,264.7656 353.4766,264 Q354.2344,263.2344 354.5781,261.5781 L355.9063,262.1719 Q355.5781,263.5781 354.6797,264.4688 Q353.7813,265.3594 351.5781,265.3594 Z "/><text fill="#000000" font-family="sans-serif" font-size="12" lengthAdjust="spacingAndGlyphs" textLength="48" x="367" y="265.5576">公有函数</text><line style="stroke: #A80036; stroke-width: 1.5;" x1="339" x2="417" y1="276" y2="276"/><line style="stroke: #A80036; stroke-width: 1.5;" x1="339" x2="417" y1="284" y2="284"/><!--class DB--><rect fill="#FEFECE" filter="url(#f1q2ztgjtwstiq)" height="48" id="DB" style="stroke: #A80036; stroke-width: 1.5;" width="49" x="353.5" y="353"/><ellipse cx="368.5" cy="369" fill="#ADD1B2" rx="11" ry="11" style="stroke: #A80036; stroke-width: 1.0;"/><path d="M367.0781,374.3594 Q365.2188,374.3594 364.125,372.9688 Q363.0313,371.5781 363.0313,368.5938 Q363.0313,366.0625 364.1953,364.4063 Q365.3594,362.75 367.3438,362.75 Q368.8125,362.75 369.2813,362.875 Q369.75,363.0781 369.75,363.0781 Q369.75,363.0781 369.75,363.0078 Q369.75,362.9375 370.3594,362.0156 L371.4063,365.6719 L370.0781,366.0781 Q369.6094,364.5313 368.9453,363.8672 Q368.2813,363.2031 367.2188,363.2031 Q366.8281,363.2031 366.0625,364.7344 Q365.2969,366.2656 365.2969,368.5156 Q365.2969,370.9844 365.9609,372.375 Q366.625,373.7656 367.1563,373.7656 Q368.2188,373.7656 368.9766,373 Q369.7344,372.2344 370.0781,370.5781 L371.4063,371.1719 Q371.0781,372.5781 370.1797,373.4688 Q369.2813,374.3594 367.0781,374.3594 Z "/><text fill="#000000" font-family="sans-serif" font-size="12" lengthAdjust="spacingAndGlyphs" textLength="17" x="382.5" y="374.5576">DB</text><line style="stroke: #A80036; stroke-width: 1.5;" x1="354.5" x2="401.5" y1="385" y2="385"/><line style="stroke: #A80036; stroke-width: 1.5;" x1="354.5" x2="401.5" y1="393" y2="393"/><!--link 订单模块 to 支付模块--><path d="M186.739,54.013 C170.035,63.221 150.697,74.531 134,86 C112.197,100.976 89.1077,120.001 72.053,134.733 " fill="none" id="订单模块-支付模块" style="stroke: #A80036; stroke-width: 1.0;"/><polygon fill="#000000" points="142,94.3772,136,97.3772,142,100.3772,142,94.3772" style="stroke: #000000; stroke-width: 1.0;"/><text fill="#000000" font-family="sans-serif" font-size="13" lengthAdjust="spacingAndGlyphs" textLength="26" x="148" y="101.8979">引用</text><!--link 订单模块 to 菜品管理模块--><path d="M240.56,56.219 C253.672,78.671 273.426,112.496 286.513,134.906 " fill="none" id="订单模块-菜品管理模块" style="stroke: #A80036; stroke-width: 1.0;"/><text fill="#000000" font-family="sans-serif" font-size="13" lengthAdjust="spacingAndGlyphs" textLength="26" x="269" y="101.8979">引用</text><polygon fill="#000000" points="277.5,110.7544,280.5,116.7544,283.5,110.7544,277.5,110.7544" style="stroke: #000000; stroke-width: 1.0;"/><!--link 订单模块 to 购物车模块--><path d="M208.64,56.063 C202.115,65.036 195.124,75.64 190,86 C182.262,101.644 176.357,120.466 172.468,134.942 " fill="none" id="订单模块-购物车模块" style="stroke: #A80036; stroke-width: 1.0;"/><text fill="#000000" font-family="sans-serif" font-size="13" lengthAdjust="spacingAndGlyphs" textLength="26" x="191" y="101.8979">引用</text><polygon fill="#000000" points="199.5,110.7544,202.5,116.7544,205.5,110.7544,199.5,110.7544" style="stroke: #000000; stroke-width: 1.0;"/><!--link 支付模块 to 公有函数--><path d="M86.0045,176.652 C91.6803,178.865 97.4669,181.043 103,183 C185.36,212.133 283.626,240.689 337.565,255.843 " fill="none" id="支付模块-公有函数" style="stroke: #A80036; stroke-width: 1.0;"/><!--link 订单模块 to 公有函数--><path d="M267.15,48.548 C301.694,64.412 349.023,92.739 369,135 C385.59,170.095 384.198,216.38 381.336,243.786 " fill="none" id="订单模块-公有函数" style="stroke: #A80036; stroke-width: 1.0;"/><!--link 购物车模块 to 公有函数--><path d="M212.524,183.086 C249.838,202.008 302.141,228.531 337.896,246.663 " fill="none" id="购物车模块-公有函数" style="stroke: #A80036; stroke-width: 1.0;"/><!--link 用户管理模块 to 公有函数--><path d="M481.358,183.217 C459.217,201.165 428.713,225.892 406.586,243.828 " fill="none" id="用户管理模块-公有函数" style="stroke: #A80036; stroke-width: 1.0;"/><!--link 留言模块 to 公有函数--><path d="M596.815,176.601 C548.222,196.677 466.915,230.267 418.279,250.36 " fill="none" id="留言模块-公有函数" style="stroke: #A80036; stroke-width: 1.0;"/><!--link 菜品管理模块 to 公有函数--><path d="M316.925,183.217 C330.008,201.165 348.033,225.892 361.108,243.828 " fill="none" id="菜品管理模块-公有函数" style="stroke: #A80036; stroke-width: 1.0;"/><!--link 公有函数 to DB--><path d="M378,292.217 C378,310.1649 378,334.8918 378,352.8279 " fill="none" id="公有函数-DB" style="stroke: #A80036; stroke-width: 1.0;"/><!--
@startuml 包图
skinparam classAttributeFontName Consolas

class 支付模块 {
}
class 订单模块 {
}
class 购物车模块 {
}
class 用户管理模块 {
}
class 留言模块 {
}
class 菜品管理模块 {
}
class 公有函数 {
}

订单模块 - - 支付模块 : 引用 >
订单模块 - - 菜品管理模块 : 引用 >
订单模块 - - 购物车模块 : 引用 >

支付模块 - - 公有函数
订单模块 - - 公有函数
购物车模块 - - 公有函数
用户管理模块 - - 公有函数
留言模块 - - 公有函数
菜品管理模块 - - 公有函数

公有函数 - - DB

@enduml

PlantUML version 1.2019.09(Tue Aug 27 00:19:51 CST 2019)
(GPL source distribution)
Java Runtime: Java(TM) SE Runtime Environment
JVM: Java HotSpot(TM) 64-Bit Server VM
Java Version: 10.0.2+13
Operating System: Windows 10
OS Version: 10.0
Default Encoding: GBK
Language: zh
Country: CN
--></g></svg>