<?xml version="1.0" encoding="UTF-8" standalone="no"?><svg xmlns="http://www.w3.org/2000/svg" xmlns:xlink="http://www.w3.org/1999/xlink" contentScriptType="application/ecmascript" contentStyleType="text/css" height="653px" preserveAspectRatio="none" style="width:652px;height:653px;" version="1.1" viewBox="0 0 652 653" width="652px" zoomAndPan="magnify"><defs><filter height="300%" id="f5pznc4fmauw5" width="300%" x="-1" y="-1"><feGaussianBlur result="blurOut" stdDeviation="2.0"/><feColorMatrix in="blurOut" result="blurOut2" type="matrix" values="0 0 0 0 0 0 0 0 0 0 0 0 0 0 0 0 0 0 .4 0"/><feOffset dx="4.0" dy="4.0" in="blurOut2" result="blurOut3"/><feBlend in="SourceGraphic" in2="blurOut3" mode="normal"/></filter></defs><g><!--cluster 订单待支付--><rect fill="#FEFECE" filter="url(#f5pznc4fmauw5)" height="120" rx="12.5" ry="12.5" style="stroke: #A80036; stroke-width: 1.5;" width="384" x="30" y="101"/><rect fill="#FFFFFF" height="84.8799" rx="12.5" ry="12.5" style="stroke: #FFFFFF; stroke-width: 1.0;" width="378" x="33" y="133.1201"/><line style="stroke: #A80036; stroke-width: 1.5;" x1="30" x2="414" y1="130.1201" y2="130.1201"/><text fill="#000000" font-family="sans-serif" font-size="14" lengthAdjust="spacingAndGlyphs" textLength="70" x="187" y="121.0439">订单待支付</text><!--cluster 订单待配送--><rect fill="#FEFECE" filter="url(#f5pznc4fmauw5)" height="120" rx="12.5" ry="12.5" style="stroke: #A80036; stroke-width: 1.5;" width="391" x="249" y="399"/><rect fill="#FFFFFF" height="84.8799" rx="12.5" ry="12.5" style="stroke: #FFFFFF; stroke-width: 1.0;" width="385" x="252" y="431.1201"/><line style="stroke: #A80036; stroke-width: 1.5;" x1="249" x2="640" y1="428.1201" y2="428.1201"/><text fill="#000000" font-family="sans-serif" font-size="14" lengthAdjust="spacingAndGlyphs" textLength="70" x="409.5" y="419.0439">订单待配送</text><ellipse cx="380" cy="172" fill="#000000" filter="url(#f5pznc4fmauw5)" rx="10" ry="10" style="stroke: none; stroke-width: 1.0;"/><rect fill="#FEFECE" filter="url(#f5pznc4fmauw5)" height="50" rx="12.5" ry="12.5" style="stroke: #A80036; stroke-width: 1.5;" width="104" x="73" y="147"/><line style="stroke: #A80036; stroke-width: 1.5;" x1="73" x2="177" y1="176.1201" y2="176.1201"/><text fill="#000000" font-family="sans-serif" font-size="14" lengthAdjust="spacingAndGlyphs" textLength="84" x="83" y="168.0439">支付单待支付</text><ellipse cx="302" cy="470" fill="#000000" filter="url(#f5pznc4fmauw5)" rx="10" ry="10" style="stroke: none; stroke-width: 1.0;"/><rect fill="#FEFECE" filter="url(#f5pznc4fmauw5)" height="50" rx="12.5" ry="12.5" style="stroke: #A80036; stroke-width: 1.5;" width="90" x="347" y="445"/><line style="stroke: #A80036; stroke-width: 1.5;" x1="347" x2="437" y1="474.1201" y2="474.1201"/><text fill="#000000" font-family="sans-serif" font-size="14" lengthAdjust="spacingAndGlyphs" textLength="70" x="357" y="466.0439">订单待烹饪</text><rect fill="#FEFECE" filter="url(#f5pznc4fmauw5)" height="50" rx="12.5" ry="12.5" style="stroke: #A80036; stroke-width: 1.5;" width="90" x="526" y="445"/><line style="stroke: #A80036; stroke-width: 1.5;" x1="526" x2="616" y1="474.1201" y2="474.1201"/><text fill="#000000" font-family="sans-serif" font-size="14" lengthAdjust="spacingAndGlyphs" textLength="70" x="536" y="466.0439">订单已烹饪</text><ellipse cx="38" cy="18" fill="#000000" filter="url(#f5pznc4fmauw5)" rx="10" ry="10" style="stroke: none; stroke-width: 1.0;"/><rect fill="#FEFECE" filter="url(#f5pznc4fmauw5)" height="50" rx="12.5" ry="12.5" style="stroke: #A80036; stroke-width: 1.5;" width="90" x="212" y="294"/><line style="stroke: #A80036; stroke-width: 1.5;" x1="212" x2="302" y1="323.1201" y2="323.1201"/><text fill="#000000" font-family="sans-serif" font-size="14" lengthAdjust="spacingAndGlyphs" textLength="70" x="222" y="315.0439">订单已支付</text><rect fill="#FEFECE" filter="url(#f5pznc4fmauw5)" height="50" rx="12.5" ry="12.5" style="stroke: #A80036; stroke-width: 1.5;" width="104" x="519" y="592"/><line style="stroke: #A80036; stroke-width: 1.5;" x1="519" x2="623" y1="621.1201" y2="621.1201"/><text fill="#000000" font-family="sans-serif" font-size="14" lengthAdjust="spacingAndGlyphs" textLength="84" x="529" y="613.0439">订单配送完成</text><rect fill="#FEFECE" filter="url(#f5pznc4fmauw5)" height="50" rx="12.5" ry="12.5" style="stroke: #A80036; stroke-width: 1.5;" width="90" x="394" y="592"/><line style="stroke: #A80036; stroke-width: 1.5;" x1="394" x2="484" y1="621.1201" y2="621.1201"/><text fill="#000000" font-family="sans-serif" font-size="14" lengthAdjust="spacingAndGlyphs" textLength="70" x="404" y="613.0439">订单待评价</text><rect fill="#FEFECE" filter="url(#f5pznc4fmauw5)" height="50" rx="12.5" ry="12.5" style="stroke: #A80036; stroke-width: 1.5;" width="90" x="215" y="592"/><line style="stroke: #A80036; stroke-width: 1.5;" x1="215" x2="305" y1="621.1201" y2="621.1201"/><text fill="#000000" font-family="sans-serif" font-size="14" lengthAdjust="spacingAndGlyphs" textLength="70" x="225" y="613.0439">订单已评价</text><rect fill="#FEFECE" filter="url(#f5pznc4fmauw5)" height="50" rx="12.5" ry="12.5" style="stroke: #A80036; stroke-width: 1.5;" width="104" x="73" y="294"/><line style="stroke: #A80036; stroke-width: 1.5;" x1="73" x2="177" y1="323.1201" y2="323.1201"/><text fill="#000000" font-family="sans-serif" font-size="14" lengthAdjust="spacingAndGlyphs" textLength="84" x="83" y="315.0439">支付单已支付</text><!--link *start to 订单待支付--><path d="M38,28.053 C38,36.106 38,48.8526 38,63.4949 C38,70.816 38,78.6111 38,86.5304 C38,90.4901 38,94.4808 38,98.4588 C38,98.9561 38,99.4531 38,99.9499 C38,100.1983 38,100.4466 38,100.6949 " fill="none" id="*start-&gt;订单待支付" style="stroke: #A80036; stroke-width: 1.0;"/><polygon fill="#A80036" points="38,100.6949,42,91.6949,38,95.6949,34,91.6949,38,100.6949" style="stroke: #A80036; stroke-width: 1.0;"/><text fill="#000000" font-family="sans-serif" font-size="13" lengthAdjust="spacingAndGlyphs" textLength="78" x="39" y="73.8979">用户点击下单</text><!--reverse link 支付单待支付 to *start*订单待支付--><path d="M182.367,172 C244.338,172 338.398,172 369.563,172 " fill="none" id="支付单待支付&lt;-*start*订单待支付" style="stroke: #A80036; stroke-width: 1.0;"/><polygon fill="#A80036" points="177.218,172,186.218,176,182.218,172,186.218,168,177.218,172" style="stroke: #A80036; stroke-width: 1.0;"/><text fill="#000000" font-family="sans-serif" font-size="13" lengthAdjust="spacingAndGlyphs" textLength="156" x="195.5" y="165.8979">服务端发送创建支付单请求</text><!--link 支付单待支付 to 支付单已支付--><path d="M125,197.27 C125,222.363 125,261.564 125,288.447 " fill="none" id="支付单待支付-&gt;支付单已支付" style="stroke: #A80036; stroke-width: 1.0;"/><polygon fill="#A80036" points="125,293.651,129,284.651,125,288.651,121,284.651,125,293.651" style="stroke: #A80036; stroke-width: 1.0;"/><text fill="#000000" font-family="sans-serif" font-size="13" lengthAdjust="spacingAndGlyphs" textLength="52" x="126" y="260.8979">客户支付</text><!--link 支付单已支付 to 订单已支付--><path d="M177.078,319 C186.915,319 196.751,319 206.588,319 " fill="none" id="支付单已支付-&gt;订单已支付" style="stroke: #A80036; stroke-width: 1.0;"/><polygon fill="#A80036" points="211.732,319,202.732,315,206.732,319,202.732,323,211.732,319" style="stroke: #A80036; stroke-width: 1.0;"/><!--link 订单已支付 to 订单待配送--><path d="M257,344.271 C257,354.6613 257,367.4914 257,380.9313 C257,384.2912 257,387.6893 257,391.0969 C257,392.8007 257,394.5069 257,396.2118 C257,397.0643 257,397.9165 257,398.768 " fill="none" id="订单已支付-&gt;订单待配送" style="stroke: #A80036; stroke-width: 1.0;"/><polygon fill="#A80036" points="257,398.768,261,389.768,257,393.768,253,389.768,257,398.768" style="stroke: #A80036; stroke-width: 1.0;"/><!--link *start*订单待配送 to 订单待烹饪--><path d="M312.195,470 C322.017,470 331.84,470 341.662,470 " fill="none" id="*start*订单待配送-&gt;订单待烹饪" style="stroke: #A80036; stroke-width: 1.0;"/><polygon fill="#A80036" points="346.798,470,337.798,466,341.798,470,337.798,474,346.798,470" style="stroke: #A80036; stroke-width: 1.0;"/><!--link 订单待烹饪 to 订单已烹饪--><path d="M437.169,470 C462.608,470 494.44,470 520.676,470 " fill="none" id="订单待烹饪-&gt;订单已烹饪" style="stroke: #A80036; stroke-width: 1.0;"/><polygon fill="#A80036" points="525.845,470,516.845,466,520.845,470,516.845,474,525.845,470" style="stroke: #A80036; stroke-width: 1.0;"/><text fill="#000000" font-family="sans-serif" font-size="13" lengthAdjust="spacingAndGlyphs" textLength="52" x="455.5" y="463.8979">店家烹饪</text><!--link 订单已烹饪 to 订单配送完成--><path d="M571,495.27 C571,520.363 571,559.5638 571,586.4466 " fill="none" id="订单已烹饪-&gt;订单配送完成" style="stroke: #A80036; stroke-width: 1.0;"/><polygon fill="#A80036" points="571,591.6511,575,582.6511,571,586.6511,567,582.6511,571,591.6511" style="stroke: #A80036; stroke-width: 1.0;"/><text fill="#000000" font-family="sans-serif" font-size="13" lengthAdjust="spacingAndGlyphs" textLength="52" x="572" y="558.8979">骑手配送</text><!--reverse link 订单待评价 to 订单配送完成--><path d="M489.256,617 C499.082,617 508.908,617 518.735,617 " fill="none" id="订单待评价&lt;-订单配送完成" style="stroke: #A80036; stroke-width: 1.0;"/><polygon fill="#A80036" points="484.117,617,493.117,621,489.117,617,493.117,613,484.117,617" style="stroke: #A80036; stroke-width: 1.0;"/><!--reverse link 订单已评价 to 订单待评价--><path d="M310.339,617 C336.577,617 368.409,617 393.845,617 " fill="none" id="订单已评价&lt;-订单待评价" style="stroke: #A80036; stroke-width: 1.0;"/><polygon fill="#A80036" points="305.169,617,314.169,621,310.169,617,314.169,613,305.169,617" style="stroke: #A80036; stroke-width: 1.0;"/><text fill="#000000" font-family="sans-serif" font-size="13" lengthAdjust="spacingAndGlyphs" textLength="52" x="323.5" y="610.8979">用户评价</text><!--
@startuml 状态图
[*] -down-> 订单待支付: 用户点击下单
state 订单待支付{
    [*] -left-> 支付单待支付: 服务端发送创建支付单请求
    支付单待支付 -down-> 支付单已支付: 客户支付
} 
state 支付单已支付{

}
支付单已支付 -> 订单已支付
订单已支付 -down-> 订单待配送
state 订单待配送{
    [*] -> 订单待烹饪
    订单待烹饪 -> 订单已烹饪: 店家烹饪
} 

订单已烹饪 -down-> 订单配送完成: 骑手配送
订单配送完成 -left-> 订单待评价
订单待评价 -left-> 订单已评价: 用户评价
@enduml

PlantUML version 1.2019.09(Tue Aug 27 00:19:51 CST 2019)
(GPL source distribution)
Java Runtime: Java(TM) SE Runtime Environment
JVM: Java HotSpot(TM) 64-Bit Server VM
Java Version: 10.0.2+13
Operating System: Windows 10
OS Version: 10.0
Default Encoding: GBK
Language: zh
Country: CN
--></g></svg>