<svg id="SvgjsSvg1422" width="1004.5" height="1247" xmlns="http://www.w3.org/2000/svg" version="1.1" xmlns:xlink="http://www.w3.org/1999/xlink" xmlns:svgjs="http://svgjs.com/svgjs"><defs id="SvgjsDefs1423"><marker id="SvgjsMarker1444" markerWidth="16" markerHeight="12" refX="16" refY="6" viewBox="0 0 16 12" orient="auto" markerUnits="userSpaceOnUse"><path id="SvgjsPath1445" d="M0,2 L14,6 L0,11 L0,2" fill="#323232" stroke="#323232" stroke-width="2"></path></marker><marker id="SvgjsMarker1460" markerWidth="16" markerHeight="12" refX="16" refY="6" viewBox="0 0 16 12" orient="auto" markerUnits="userSpaceOnUse"><path id="SvgjsPath1461" d="M0,2 L14,6 L0,11 L0,2" fill="#323232" stroke="#323232" stroke-width="2"></path></marker><marker id="SvgjsMarker1470" markerWidth="16" markerHeight="12" refX="16" refY="6" viewBox="0 0 16 12" orient="auto" markerUnits="userSpaceOnUse"><path id="SvgjsPath1471" d="M0,2 L14,6 L0,11 L0,2" fill="#323232" stroke="#323232" stroke-width="2"></path></marker><marker id="SvgjsMarker1493" markerWidth="16" markerHeight="12" refX="16" refY="6" viewBox="0 0 16 12" orient="auto" markerUnits="userSpaceOnUse"><path id="SvgjsPath1494" d="M0,2 L14,6 L0,11 L0,2" fill="#323232" stroke="#323232" stroke-width="2"></path></marker><marker id="SvgjsMarker1499" markerWidth="16" markerHeight="12" refX="16" refY="6" viewBox="0 0 16 12" orient="auto" markerUnits="userSpaceOnUse"><path id="SvgjsPath1500" d="M0,2 L14,6 L0,11 L0,2" fill="#323232" stroke="#323232" stroke-width="2"></path></marker><marker id="SvgjsMarker1503" markerWidth="16" markerHeight="12" refX="16" refY="6" viewBox="0 0 16 12" orient="auto" markerUnits="userSpaceOnUse"><path id="SvgjsPath1504" d="M0,2 L14,6 L0,11 L0,2" fill="#323232" stroke="#323232" stroke-width="2"></path></marker><marker id="SvgjsMarker1519" markerWidth="16" markerHeight="12" refX="16" refY="6" viewBox="0 0 16 12" orient="auto" markerUnits="userSpaceOnUse"><path id="SvgjsPath1520" d="M0,2 L14,6 L0,11 L0,2" fill="#323232" stroke="#323232" stroke-width="2"></path></marker><marker id="SvgjsMarker1523" markerWidth="16" markerHeight="12" refX="16" refY="6" viewBox="0 0 16 12" orient="auto" markerUnits="userSpaceOnUse"><path id="SvgjsPath1524" d="M0,2 L14,6 L0,11 L0,2" fill="#323232" stroke="#323232" stroke-width="2"></path></marker><marker id="SvgjsMarker1529" markerWidth="16" markerHeight="12" refX="16" refY="6" viewBox="0 0 16 12" orient="auto" markerUnits="userSpaceOnUse"><path id="SvgjsPath1530" d="M0,2 L14,6 L0,11 L0,2" fill="#323232" stroke="#323232" stroke-width="2"></path></marker><marker id="SvgjsMarker1537" markerWidth="16" markerHeight="12" refX="16" refY="6" viewBox="0 0 16 12" orient="auto" markerUnits="userSpaceOnUse"><path id="SvgjsPath1538" d="M0,2 L14,6 L0,11 L0,2" fill="#323232" stroke="#323232" stroke-width="2"></path></marker><marker id="SvgjsMarker1547" markerWidth="16" markerHeight="12" refX="16" refY="6" viewBox="0 0 16 12" orient="auto" markerUnits="userSpaceOnUse"><path id="SvgjsPath1548" d="M0,2 L14,6 L0,11 L0,2" fill="#323232" stroke="#323232" stroke-width="2"></path></marker><marker id="SvgjsMarker1561" markerWidth="16" markerHeight="12" refX="16" refY="6" viewBox="0 0 16 12" orient="auto" markerUnits="userSpaceOnUse"><path id="SvgjsPath1562" d="M0,2 L14,6 L0,11 L0,2" fill="#323232" stroke="#323232" stroke-width="2"></path></marker><marker id="SvgjsMarker1571" markerWidth="16" markerHeight="12" refX="16" refY="6" viewBox="0 0 16 12" orient="auto" markerUnits="userSpaceOnUse"><path id="SvgjsPath1572" d="M0,2 L14,6 L0,11 L0,2" fill="#323232" stroke="#323232" stroke-width="2"></path></marker><marker id="SvgjsMarker1583" markerWidth="16" markerHeight="12" refX="16" refY="6" viewBox="0 0 16 12" orient="auto" markerUnits="userSpaceOnUse"><path id="SvgjsPath1584" d="M0,2 L14,6 L0,11 L0,2" fill="#323232" stroke="#323232" stroke-width="2"></path></marker><marker id="SvgjsMarker1587" markerWidth="16" markerHeight="12" refX="16" refY="6" viewBox="0 0 16 12" orient="auto" markerUnits="userSpaceOnUse"><path id="SvgjsPath1588" d="M0,2 L14,6 L0,11 L0,2" fill="#323232" stroke="#323232" stroke-width="2"></path></marker><marker id="SvgjsMarker1591" markerWidth="16" markerHeight="12" refX="16" refY="6" viewBox="0 0 16 12" orient="auto" markerUnits="userSpaceOnUse"><path id="SvgjsPath1592" d="M0,2 L14,6 L0,11 L0,2" fill="#323232" stroke="#323232" stroke-width="2"></path></marker><marker id="SvgjsMarker1603" markerWidth="16" markerHeight="12" refX="16" refY="6" viewBox="0 0 16 12" orient="auto" markerUnits="userSpaceOnUse"><path id="SvgjsPath1604" d="M0,2 L14,6 L0,11 L0,2" fill="#323232" stroke="#323232" stroke-width="2"></path></marker><marker id="SvgjsMarker1619" markerWidth="16" markerHeight="12" refX="16" refY="6" viewBox="0 0 16 12" orient="auto" markerUnits="userSpaceOnUse"><path id="SvgjsPath1620" d="M0,2 L14,6 L0,11 L0,2" fill="#323232" stroke="#323232" stroke-width="2"></path></marker><marker id="SvgjsMarker1629" markerWidth="16" markerHeight="12" refX="16" refY="6" viewBox="0 0 16 12" orient="auto" markerUnits="userSpaceOnUse"><path id="SvgjsPath1630" d="M0,2 L14,6 L0,11 L0,2" fill="#323232" stroke="#323232" stroke-width="2"></path></marker><marker id="SvgjsMarker1647" markerWidth="16" markerHeight="12" refX="16" refY="6" viewBox="0 0 16 12" orient="auto" markerUnits="userSpaceOnUse"><path id="SvgjsPath1648" d="M0,2 L14,6 L0,11 L0,2" fill="#323232" stroke="#323232" stroke-width="2"></path></marker><marker id="SvgjsMarker1657" markerWidth="16" markerHeight="12" refX="16" refY="6" viewBox="0 0 16 12" orient="auto" markerUnits="userSpaceOnUse"><path id="SvgjsPath1658" d="M0,2 L14,6 L0,11 L0,2" fill="#323232" stroke="#323232" stroke-width="2"></path></marker><marker id="SvgjsMarker1667" markerWidth="16" markerHeight="12" refX="16" refY="6" viewBox="0 0 16 12" orient="auto" markerUnits="userSpaceOnUse"><path id="SvgjsPath1668" d="M0,2 L14,6 L0,11 L0,2" fill="#323232" stroke="#323232" stroke-width="2"></path></marker><marker id="SvgjsMarker1673" markerWidth="16" markerHeight="12" refX="16" refY="6" viewBox="0 0 16 12" orient="auto" markerUnits="userSpaceOnUse"><path id="SvgjsPath1674" d="M0,2 L14,6 L0,11 L0,2" fill="#323232" stroke="#323232" stroke-width="2"></path></marker><marker id="SvgjsMarker1681" markerWidth="16" markerHeight="12" refX="16" refY="6" viewBox="0 0 16 12" orient="auto" markerUnits="userSpaceOnUse"><path id="SvgjsPath1682" d="M0,2 L14,6 L0,11 L0,2" fill="#323232" stroke="#323232" stroke-width="2"></path></marker><marker id="SvgjsMarker1685" markerWidth="16" markerHeight="12" refX="16" refY="6" viewBox="0 0 16 12" orient="auto" markerUnits="userSpaceOnUse"><path id="SvgjsPath1686" d="M0,2 L14,6 L0,11 L0,2" fill="#323232" stroke="#323232" stroke-width="2"></path></marker><marker id="SvgjsMarker1695" markerWidth="16" markerHeight="12" refX="16" refY="6" viewBox="0 0 16 12" orient="auto" markerUnits="userSpaceOnUse"><path id="SvgjsPath1696" d="M0,2 L14,6 L0,11 L0,2" fill="#323232" stroke="#323232" stroke-width="2"></path></marker><marker id="SvgjsMarker1707" markerWidth="16" markerHeight="12" refX="16" refY="6" viewBox="0 0 16 12" orient="auto" markerUnits="userSpaceOnUse"><path id="SvgjsPath1708" d="M0,2 L14,6 L0,11 L0,2" fill="#323232" stroke="#323232" stroke-width="2"></path></marker><marker id="SvgjsMarker1711" markerWidth="16" markerHeight="12" refX="16" refY="6" viewBox="0 0 16 12" orient="auto" markerUnits="userSpaceOnUse"><path id="SvgjsPath1712" d="M0,2 L14,6 L0,11 L0,2" fill="#323232" stroke="#323232" stroke-width="2"></path></marker><marker id="SvgjsMarker1733" markerWidth="16" markerHeight="12" refX="16" refY="6" viewBox="0 0 16 12" orient="auto" markerUnits="userSpaceOnUse"><path id="SvgjsPath1734" d="M0,2 L14,6 L0,11 L0,2" fill="#323232" stroke="#323232" stroke-width="2"></path></marker><marker id="SvgjsMarker1737" markerWidth="16" markerHeight="12" refX="16" refY="6" viewBox="0 0 16 12" orient="auto" markerUnits="userSpaceOnUse"><path id="SvgjsPath1738" d="M0,2 L14,6 L0,11 L0,2" fill="#323232" stroke="#323232" stroke-width="2"></path></marker><marker id="SvgjsMarker1761" markerWidth="16" markerHeight="12" refX="16" refY="6" viewBox="0 0 16 12" orient="auto" markerUnits="userSpaceOnUse"><path id="SvgjsPath1762" d="M0,2 L14,6 L0,11 L0,2" fill="#323232" stroke="#323232" stroke-width="2"></path></marker><marker id="SvgjsMarker1778" markerWidth="16" markerHeight="12" refX="16" refY="6" viewBox="0 0 16 12" orient="auto" markerUnits="userSpaceOnUse"><path id="SvgjsPath1779" d="M0,2 L14,6 L0,11 L0,2" fill="#323232" stroke="#323232" stroke-width="2"></path></marker><marker id="SvgjsMarker1788" markerWidth="16" markerHeight="12" refX="16" refY="6" viewBox="0 0 16 12" orient="auto" markerUnits="userSpaceOnUse"><path id="SvgjsPath1789" d="M0,2 L14,6 L0,11 L0,2" fill="#323232" stroke="#323232" stroke-width="2"></path></marker><marker id="SvgjsMarker1798" markerWidth="16" markerHeight="12" refX="16" refY="6" viewBox="0 0 16 12" orient="auto" markerUnits="userSpaceOnUse"><path id="SvgjsPath1799" d="M0,2 L14,6 L0,11 L0,2" fill="#323232" stroke="#323232" stroke-width="2"></path></marker><marker id="SvgjsMarker1806" markerWidth="16" markerHeight="12" refX="16" refY="6" viewBox="0 0 16 12" orient="auto" markerUnits="userSpaceOnUse"><path id="SvgjsPath1807" d="M0,2 L14,6 L0,11 L0,2" fill="#323232" stroke="#323232" stroke-width="2"></path></marker><marker id="SvgjsMarker1820" markerWidth="16" markerHeight="12" refX="16" refY="6" viewBox="0 0 16 12" orient="auto" markerUnits="userSpaceOnUse"><path id="SvgjsPath1821" d="M0,2 L14,6 L0,11 L0,2" fill="#323232" stroke="#323232" stroke-width="2"></path></marker><marker id="SvgjsMarker1832" markerWidth="16" markerHeight="12" refX="16" refY="6" viewBox="0 0 16 12" orient="auto" markerUnits="userSpaceOnUse"><path id="SvgjsPath1833" d="M0,2 L14,6 L0,11 L0,2" fill="#323232" stroke="#323232" stroke-width="2"></path></marker><marker id="SvgjsMarker1836" markerWidth="16" markerHeight="12" refX="16" refY="6" viewBox="0 0 16 12" orient="auto" markerUnits="userSpaceOnUse"><path id="SvgjsPath1837" d="M0,2 L14,6 L0,11 L0,2" fill="#323232" stroke="#323232" stroke-width="2"></path></marker><marker id="SvgjsMarker1848" markerWidth="16" markerHeight="12" refX="16" refY="6" viewBox="0 0 16 12" orient="auto" markerUnits="userSpaceOnUse"><path id="SvgjsPath1849" d="M0,2 L14,6 L0,11 L0,2" fill="#323232" stroke="#323232" stroke-width="2"></path></marker></defs><g id="SvgjsG1424" transform="translate(502,25)"><path id="SvgjsPath1425" d="M 0 0L 238.5 0L 238.5 1196.3333435058594L 0 1196.3333435058594Z" stroke="#323232" stroke-width="2" fill="none"></path><path id="SvgjsPath1426" d="M 0 0L 238.5 0L 238.5 40L 0 40Z" stroke="#323232" stroke-width="2" fill-opacity="1" fill="#ffffff"></path><g id="SvgjsG1427"><text id="SvgjsText1428" font-family="微软雅黑" text-anchor="middle" font-size="16px" width="48" fill="#323232" font-weight="400" align="middle" anchor="middle" family="微软雅黑" size="16px" weight="400" font-style="" y="7.6" transform="rotate(0)"><tspan id="SvgjsTspan1429" dy="20" x="119.5"><tspan id="SvgjsTspan1430" style="text-decoration:;">服务器</tspan></tspan></text></g></g><g id="SvgjsG1431" transform="translate(740.5,25)"><path id="SvgjsPath1432" d="M 0 0L 238.5 0L 238.5 889L 0 889Z" stroke="#323232" stroke-width="2" fill="none"></path><path id="SvgjsPath1433" d="M 0 0L 238.5 0L 238.5 40L 0 40Z" stroke="#323232" stroke-width="2" fill-opacity="1" fill="#ffffff"></path><g id="SvgjsG1434"><text id="SvgjsText1435" font-family="微软雅黑" text-anchor="middle" font-size="16px" width="112" fill="#323232" font-weight="400" align="middle" anchor="middle" family="微软雅黑" size="16px" weight="400" font-style="" y="7.6" transform="rotate(0)"><tspan id="SvgjsTspan1436" dy="20" x="119.5"><tspan id="SvgjsTspan1437" style="text-decoration:;">第三方支付系统</tspan></tspan></text></g></g><g id="SvgjsG1438" transform="translate(362.75,79)"><path id="SvgjsPath1439" d="M 0 20C 0 -6.666666666666667 40 -6.666666666666667 40 20C 40 46.666666666666664 0 46.666666666666664 0 20Z" stroke="none" fill-opacity="1" fill="#323232"></path><g id="SvgjsG1440"><text id="SvgjsText1441" font-family="微软雅黑" text-anchor="middle" font-size="13px" width="0" fill="#323232" font-weight="400" align="middle" anchor="middle" family="微软雅黑" size="13px" weight="400" font-style="" y="45.05" transform="rotate(0)"></text></g></g><g id="SvgjsG1442"><path id="SvgjsPath1443" d="M382.75 119L382.75 130L382.75 130L382.75 141" stroke="#323232" stroke-width="2" fill="none" marker-end="url(#SvgjsMarker1444)"></path></g><g id="SvgjsG1446" transform="translate(300.1875,141)"><path id="SvgjsPath1447" d="M 0 0L 165.125 0L 165.125 38L 0 38Z" stroke="#323232" stroke-width="2" fill-opacity="1" fill="#ffffff"></path><g id="SvgjsG1448"><text id="SvgjsText1449" font-family="微软雅黑" text-anchor="middle" font-size="13px" width="143" fill="#323232" font-weight="400" align="middle" anchor="middle" family="微软雅黑" size="13px" weight="400" font-style="" y="9.05" transform="rotate(0)"><tspan id="SvgjsTspan1450" dy="16" x="83"><tspan id="SvgjsTspan1451" style="text-decoration:;">用户选择支付方式后下单</tspan></tspan></text></g></g><g id="SvgjsG1452" transform="translate(553.875,221)"><path id="SvgjsPath1453" d="M 0 0L 134.75 0L 134.75 24L 0 24Z" stroke="#323232" stroke-width="2" fill-opacity="1" fill="#ffffff"></path><g id="SvgjsG1454"><text id="SvgjsText1455" font-family="微软雅黑" text-anchor="middle" font-size="13px" width="78" fill="#323232" font-weight="400" align="middle" anchor="middle" family="微软雅黑" size="13px" weight="400" font-style="" y="2.05" transform="rotate(0)"><tspan id="SvgjsTspan1456" dy="16" x="67.5"><tspan id="SvgjsTspan1457" style="text-decoration:;">发起交易请求</tspan></tspan></text></g></g><g id="SvgjsG1458"><path id="SvgjsPath1459" d="M688.625 233L738.375 233L738.375 233L788.125 233" stroke="#323232" stroke-width="2" fill="none" marker-end="url(#SvgjsMarker1460)"></path></g><g id="SvgjsG1462" transform="translate(788.125,217.5)"><path id="SvgjsPath1463" d="M 0 0L 143.25 0L 143.25 31L 0 31Z" stroke="#323232" stroke-width="2" fill-opacity="1" fill="#ffffff"></path><g id="SvgjsG1464"><text id="SvgjsText1465" font-family="微软雅黑" text-anchor="middle" font-size="13px" width="78" fill="#323232" font-weight="400" align="middle" anchor="middle" family="微软雅黑" size="13px" weight="400" font-style="" y="5.55" transform="rotate(0)"><tspan id="SvgjsTspan1466" dy="16" x="72"><tspan id="SvgjsTspan1467" style="text-decoration:;">处理交易请求</tspan></tspan></text></g></g><g id="SvgjsG1468"><path id="SvgjsPath1469" d="M859.75 248.5L859.75 337.375L621.25 337.375L621.25 358.25" stroke="#323232" stroke-width="2" fill="none" marker-end="url(#SvgjsMarker1470)"></path></g><g id="SvgjsG1472" transform="translate(389.75,594)"><path id="SvgjsPath1473" d="M 0 0L 98.5 0L 98.5 27L 0 27Z" stroke="#323232" stroke-width="2" fill-opacity="1" fill="#ffffff"></path><g id="SvgjsG1474"><text id="SvgjsText1475" font-family="微软雅黑" text-anchor="middle" font-size="13px" width="77" fill="#323232" font-weight="400" align="middle" anchor="middle" family="微软雅黑" size="13px" weight="400" font-style="" y="3.55" transform="rotate(0)"><tspan id="SvgjsTspan1476" dy="16" x="49.5"><tspan id="SvgjsTspan1477" style="text-decoration:;">打开支付URL</tspan></tspan></text></g></g><g id="SvgjsG1478" transform="translate(263.5,25)"><path id="SvgjsPath1479" d="M 0 0L 238.5 0L 238.5 1196.3333435058594L 0 1196.3333435058594Z" stroke="#323232" stroke-width="2" fill="none"></path><path id="SvgjsPath1480" d="M 0 0L 238.5 0L 238.5 40L 0 40Z" stroke="#323232" stroke-width="2" fill-opacity="1" fill="#ffffff"></path><g id="SvgjsG1481"><text id="SvgjsText1482" font-family="微软雅黑" text-anchor="middle" font-size="16px" width="48" fill="#323232" font-weight="400" align="middle" anchor="middle" family="微软雅黑" size="16px" weight="400" font-style="" y="7.6" transform="rotate(0)"><tspan id="SvgjsTspan1483" dy="20" x="119.5"><tspan id="SvgjsTspan1484" style="text-decoration:;">浏览器</tspan></tspan></text></g></g><g id="SvgjsG1485" transform="translate(272.75,718)"><path id="SvgjsPath1486" d="M 0 0L 100 0L 100 25L 0 25Z" stroke="#323232" stroke-width="2" fill-opacity="1" fill="#ffffff"></path><g id="SvgjsG1487"><text id="SvgjsText1488" font-family="微软雅黑" text-anchor="middle" font-size="13px" width="52" fill="#323232" font-weight="400" align="middle" anchor="middle" family="微软雅黑" size="13px" weight="400" font-style="" y="2.55" transform="rotate(0)"><tspan id="SvgjsTspan1489" dy="16" x="50"><tspan id="SvgjsTspan1490" style="text-decoration:;">客户支付</tspan></tspan></text></g></g><g id="SvgjsG1491"><path id="SvgjsPath1492" d="M382.75 179L382.75 190L383 190L383 201" stroke="#323232" stroke-width="2" fill="none" marker-end="url(#SvgjsMarker1493)"></path></g><g id="SvgjsG1495" transform="translate(322.75,201)"><path id="SvgjsPath1496" d="M 0 4Q 0 0 4 0L 116 0Q 120 0 120 4L 120 16Q 120 20 116 20L 4 20Q 0 20 0 16Z" stroke="none" fill-opacity="1" fill="#323232"></path></g><g id="SvgjsG1497"><path id="SvgjsPath1498" d="M383 221L383 233L553.875 233" stroke="#323232" stroke-width="2" fill="none" marker-end="url(#SvgjsMarker1499)"></path></g><g id="SvgjsG1501"><path id="SvgjsPath1502" d="M382 221L382 244.25L382.75 244.25L382.75 267.5" stroke="#323232" stroke-width="2" fill="none" marker-end="url(#SvgjsMarker1503)"></path></g><g id="SvgjsG1505" transform="translate(551.9375,271.5)"><path id="SvgjsPath1506" d="M 0 0L 138.625 0L 127.25 11.375L 138.625 22.75L 0 22.75L 0 0Z" stroke="#323232" stroke-width="2" fill-opacity="1" fill="#ffffff"></path><g id="SvgjsG1507"><text id="SvgjsText1508" font-family="微软雅黑" text-anchor="middle" font-size="13px" width="78" fill="#323232" font-weight="400" align="middle" anchor="middle" family="微软雅黑" size="13px" weight="400" font-style="" y="2.425" transform="rotate(0)"><tspan id="SvgjsTspan1509" dy="16" x="64.8625"><tspan id="SvgjsTspan1510" style="text-decoration:;">返回订单状态</tspan></tspan></text></g></g><g id="SvgjsG1511" transform="translate(322.75,268.375)"><path id="SvgjsPath1512" d="M 0 0L 119 0L 119 29L 0 29Z" stroke="#323232" stroke-width="2" fill-opacity="1" fill="#ffffff"></path><g id="SvgjsG1513"><text id="SvgjsText1514" font-family="微软雅黑" text-anchor="middle" font-size="13px" width="78" fill="#323232" font-weight="400" align="middle" anchor="middle" family="微软雅黑" size="13px" weight="400" font-style="" y="4.55" transform="rotate(0)"><tspan id="SvgjsTspan1515" dy="16" x="59.5"><tspan id="SvgjsTspan1516" style="text-decoration:;">获取订单状态</tspan></tspan></text></g></g><g id="SvgjsG1517"><path id="SvgjsPath1518" d="M441.75 282.875L496.84375 282.875L496.84375 282.875L551.9375 282.875" stroke="#323232" stroke-width="2" fill="none" marker-end="url(#SvgjsMarker1519)"></path></g><g id="SvgjsG1521"><path id="SvgjsPath1522" d="M621.25 294.25L621.25 328L459 328" stroke="#323232" stroke-width="2" fill="none" marker-end="url(#SvgjsMarker1523)"></path></g><g id="SvgjsG1525" transform="translate(419,308)"><path id="SvgjsPath1526" d="M 0 20L 20 0L 40 20L 20 40L 0 20Z" stroke="#323232" stroke-width="2" fill-opacity="1" fill="#ffffff"></path></g><g id="SvgjsG1527"><path id="SvgjsPath1528" d="M419 328L292.75 328L292.75 282.875L322.75 282.875" stroke="#323232" stroke-width="2" fill="none" marker-end="url(#SvgjsMarker1529)"></path><rect id="SvgjsRect1531" width="74" height="16" x="281.3125" y="320" fill="#ffffff"></rect><text id="SvgjsText1532" font-family="微软雅黑" text-anchor="middle" font-size="13px" width="74" fill="#323232" font-weight="400" align="top" anchor="middle" family="微软雅黑" size="13px" weight="400" font-style="" y="318.05" transform="rotate(0)"><tspan id="SvgjsTspan1533" dy="16" x="318.3125"><tspan id="SvgjsTspan1534" style="text-decoration:;">[状态未变动]</tspan></tspan></text></g><g id="SvgjsG1535"><path id="SvgjsPath1536" d="M439 348L439 371.75L439 371.75L439 395.5" stroke="#323232" stroke-width="2" fill="none" marker-end="url(#SvgjsMarker1537)"></path><rect id="SvgjsRect1539" width="61" height="16" x="408.5" y="363.75" fill="#ffffff"></rect><text id="SvgjsText1540" font-family="微软雅黑" text-anchor="middle" font-size="13px" width="61" fill="#323232" font-weight="400" align="top" anchor="middle" family="微软雅黑" size="13px" weight="400" font-style="" y="361.8" transform="rotate(0)"><tspan id="SvgjsTspan1541" dy="16" x="439"><tspan id="SvgjsTspan1542" style="text-decoration:;">[状态变动]</tspan></tspan></text></g><g id="SvgjsG1543" transform="translate(419,395.5)"><path id="SvgjsPath1544" d="M 0 20L 20 0L 40 20L 20 40L 0 20Z" stroke="#323232" stroke-width="2" fill-opacity="1" fill="#ffffff"></path></g><g id="SvgjsG1545"><path id="SvgjsPath1546" d="M419 415.5L337.75 415.5L337.75 449.5" stroke="#323232" stroke-width="2" fill="none" marker-end="url(#SvgjsMarker1547)"></path><rect id="SvgjsRect1549" width="74" height="16" x="324.375" y="407.5" fill="#ffffff"></rect><text id="SvgjsText1550" font-family="微软雅黑" text-anchor="middle" font-size="13px" width="74" fill="#323232" font-weight="400" align="top" anchor="middle" family="微软雅黑" size="13px" weight="400" font-style="" y="405.55" transform="rotate(0)"><tspan id="SvgjsTspan1551" dy="16" x="361.375"><tspan id="SvgjsTspan1552" style="text-decoration:;">[状态为失败]</tspan></tspan></text></g><g id="SvgjsG1553" transform="translate(285.75,449.5)"><path id="SvgjsPath1554" d="M 0 0L 104 0L 104 23.5L 0 23.5Z" stroke="#323232" stroke-width="2" fill-opacity="1" fill="#ffffff"></path><g id="SvgjsG1555"><text id="SvgjsText1556" font-family="微软雅黑" text-anchor="middle" font-size="13px" width="78" fill="#323232" font-weight="400" align="middle" anchor="middle" family="微软雅黑" size="13px" weight="400" font-style="" y="1.8" transform="rotate(0)"><tspan id="SvgjsTspan1557" dy="16" x="52"><tspan id="SvgjsTspan1558" style="text-decoration:;">提示状态信息</tspan></tspan></text></g></g><g id="SvgjsG1559"><path id="SvgjsPath1560" d="M337.75 473L337.75 488.5L337.75 488.5L337.75 504" stroke="#323232" stroke-width="2" fill="none" marker-end="url(#SvgjsMarker1561)"></path></g><g id="SvgjsG1563" transform="translate(317.75,504)"><path id="SvgjsPath1564" d="M 0 20C 0 -6.666666666666667 40 -6.666666666666667 40 20C 40 46.666666666666664 0 46.666666666666664 0 20Z" stroke="#323232" stroke-width="4" fill-opacity="1" fill="#ffffff"></path><path id="SvgjsPath1565" d="M 10 20C 10 6.666666666666666 30 6.666666666666666 30 20C 30 33.333333333333336 10 33.333333333333336 10 20Z" stroke="none" fill-opacity="1" fill="#323232"></path><path id="SvgjsPath1566" d="M 0 20C 0 -6.666666666666667 40 -6.666666666666667 40 20C 40 46.666666666666664 0 46.666666666666664 0 20Z" stroke="none" fill="none"></path><g id="SvgjsG1567"><text id="SvgjsText1568" font-family="微软雅黑" text-anchor="middle" font-size="13px" width="0" fill="#323232" font-weight="400" align="middle" anchor="middle" family="微软雅黑" size="13px" weight="400" font-style="" y="45.05" transform="rotate(0)"></text></g></g><g id="SvgjsG1569"><path id="SvgjsPath1570" d="M439 435.5L439 487.25L438.0130208333333 487.25L438.0130208333333 539" stroke="#323232" stroke-width="2" fill="none" marker-end="url(#SvgjsMarker1571)"></path><rect id="SvgjsRect1573" width="126" height="16" x="375.50651041666663" y="479.25" fill="#ffffff"></rect><text id="SvgjsText1574" font-family="微软雅黑" text-anchor="middle" font-size="13px" width="126" fill="#323232" font-weight="400" align="top" anchor="middle" family="微软雅黑" size="13px" weight="400" font-style="" y="477.3" transform="rotate(0)"><tspan id="SvgjsTspan1575" dy="16" x="438.50651041666663"><tspan id="SvgjsTspan1576" style="text-decoration:;">[状态为请求支付成功]</tspan></tspan></text></g><g id="SvgjsG1577" transform="translate(391.625,539)"><path id="SvgjsPath1578" d="M 0 4Q 0 0 4 0L 90.75 0Q 94.75 0 94.75 4L 94.75 16Q 94.75 20 90.75 20L 4 20Q 0 20 0 16Z" stroke="none" fill-opacity="1" fill="#323232"></path></g><g id="SvgjsG1579" transform="translate(322.25,654)"><path id="SvgjsPath1580" d="M 0 4Q 0 0 4 0L 116 0Q 120 0 120 4L 120 16Q 120 20 116 20L 4 20Q 0 20 0 16Z" stroke="none" fill-opacity="1" fill="#323232"></path></g><g id="SvgjsG1581"><path id="SvgjsPath1582" d="M389.75 607.5L379 607.5L379 654" stroke="#323232" stroke-width="2" fill="none" marker-end="url(#SvgjsMarker1583)"></path></g><g id="SvgjsG1585"><path id="SvgjsPath1586" d="M322.98477879236697 665.6513770290094L322.75 665.6513770290094L322.75 718" stroke="#323232" stroke-width="2" fill="none" marker-end="url(#SvgjsMarker1587)"></path></g><g id="SvgjsG1589"><path id="SvgjsPath1590" d="M442.1339745962156 670.5L443.5 670.5L443.5 718" stroke="#323232" stroke-width="2" fill="none" marker-end="url(#SvgjsMarker1591)"></path></g><g id="SvgjsG1593" transform="translate(394,718)"><path id="SvgjsPath1594" d="M 0 0L 99 0L 99 25L 0 25Z" stroke="#323232" stroke-width="2" fill-opacity="1" fill="#ffffff"></path><g id="SvgjsG1595"><text id="SvgjsText1596" font-family="微软雅黑" text-anchor="middle" font-size="13px" width="78" fill="#323232" font-weight="400" align="middle" anchor="middle" family="微软雅黑" size="13px" weight="400" font-style="" y="2.55" transform="rotate(0)"><tspan id="SvgjsTspan1597" dy="16" x="49.5"><tspan id="SvgjsTspan1598" style="text-decoration:;">获取订单状态</tspan></tspan></text></g></g><g id="SvgjsG1599" transform="translate(601.25,358.25)"><path id="SvgjsPath1600" d="M 0 20L 20 0L 40 20L 20 40L 0 20Z" stroke="#323232" stroke-width="2" fill-opacity="1" fill="#ffffff"></path></g><g id="SvgjsG1601"><path id="SvgjsPath1602" d="M601.25 378.25L560.5 378.25L560.5 426.17985841054804" stroke="#323232" stroke-width="2" fill="none" marker-end="url(#SvgjsMarker1603)"></path><rect id="SvgjsRect1605" width="61" height="16" x="530" y="373.839929205274" fill="#ffffff"></rect><text id="SvgjsText1606" font-family="微软雅黑" text-anchor="middle" font-size="13px" width="61" fill="#323232" font-weight="400" align="top" anchor="middle" family="微软雅黑" size="13px" weight="400" font-style="" y="371.88992920527403" transform="rotate(0)"><tspan id="SvgjsTspan1607" dy="16" x="560.5"><tspan id="SvgjsTspan1608" style="text-decoration:;">[请求失败]</tspan></tspan></text></g><g id="SvgjsG1609" transform="translate(510,427.25)"><path id="SvgjsPath1610" d="M 0 0L 101 0L 101 39.08332824707031L 0 39.08332824707031Z" stroke="#323232" stroke-width="2" fill-opacity="1" fill="#ffffff"></path><g id="SvgjsG1611"><text id="SvgjsText1612" font-family="微软雅黑" text-anchor="middle" font-size="13px" width="78" fill="#323232" font-weight="400" align="middle" anchor="middle" family="微软雅黑" size="13px" weight="400" font-style="" y="1.5916641235351563" transform="rotate(0)"><tspan id="SvgjsTspan1613" dy="16" x="50.5"><tspan id="SvgjsTspan1614" style="text-decoration:;">设置订单状态</tspan></tspan><tspan id="SvgjsTspan1615" dy="16" x="50.5"><tspan id="SvgjsTspan1616" style="text-decoration:;">为失败</tspan></tspan></text></g></g><g id="SvgjsG1617"><path id="SvgjsPath1618" d="M560.5 466.3333282470703L560.5 482.66666412353516L560.5 482.66666412353516L560.5 499" stroke="#323232" stroke-width="2" fill="none" marker-end="url(#SvgjsMarker1619)"></path></g><g id="SvgjsG1621" transform="translate(540.5,499)"><path id="SvgjsPath1622" d="M 0 20C 0 -6.666666666666667 40 -6.666666666666667 40 20C 40 46.666666666666664 0 46.666666666666664 0 20Z" stroke="#323232" stroke-width="4" fill-opacity="1" fill="#ffffff"></path><path id="SvgjsPath1623" d="M 10 20C 10 6.666666666666666 30 6.666666666666666 30 20C 30 33.333333333333336 10 33.333333333333336 10 20Z" stroke="none" fill-opacity="1" fill="#323232"></path><path id="SvgjsPath1624" d="M 0 20C 0 -6.666666666666667 40 -6.666666666666667 40 20C 40 46.666666666666664 0 46.666666666666664 0 20Z" stroke="none" fill="none"></path><g id="SvgjsG1625"><text id="SvgjsText1626" font-family="微软雅黑" text-anchor="middle" font-size="13px" width="0" fill="#323232" font-weight="400" align="middle" anchor="middle" family="微软雅黑" size="13px" weight="400" font-style="" y="45.05" transform="rotate(0)"></text></g></g><g id="SvgjsG1627"><path id="SvgjsPath1628" d="M641.25 378.25L677 378.25L677 471.91666412353516" stroke="#323232" stroke-width="2" fill="none" marker-end="url(#SvgjsMarker1629)"></path><rect id="SvgjsRect1631" width="61" height="16" x="646.5" y="399.2083320617676" fill="#ffffff"></rect><text id="SvgjsText1632" font-family="微软雅黑" text-anchor="middle" font-size="13px" width="61" fill="#323232" font-weight="400" align="top" anchor="middle" family="微软雅黑" size="13px" weight="400" font-style="" y="397.2583320617676" transform="rotate(0)"><tspan id="SvgjsTspan1633" dy="16" x="677"><tspan id="SvgjsTspan1634" style="text-decoration:;">[请求成功]</tspan></tspan></text></g><g id="SvgjsG1635" transform="translate(623,471.91666412353516)"><path id="SvgjsPath1636" d="M 0 0L 108 0L 108 55.75L 0 55.75Z" stroke="#323232" stroke-width="2" fill-opacity="1" fill="#ffffff"></path><g id="SvgjsG1637"><text id="SvgjsText1638" font-family="微软雅黑" text-anchor="middle" font-size="13px" width="81" fill="#323232" font-weight="400" align="middle" anchor="middle" family="微软雅黑" size="13px" weight="400" font-style="" y="1.925" transform="rotate(0)"><tspan id="SvgjsTspan1639" dy="16" x="54"><tspan id="SvgjsTspan1640" style="text-decoration:;">设置订单状态</tspan></tspan><tspan id="SvgjsTspan1641" dy="16" x="54"><tspan id="SvgjsTspan1642" style="text-decoration:;">为请求支付功</tspan></tspan><tspan id="SvgjsTspan1643" dy="16" x="54"><tspan id="SvgjsTspan1644" style="text-decoration:;">并记录支付url</tspan></tspan></text></g></g><g id="SvgjsG1645"><path id="SvgjsPath1646" d="M677 527.6666641235352L677 623.0833320617676L677 623.0833320617676L677 718.5" stroke="#323232" stroke-width="2" fill="none" marker-end="url(#SvgjsMarker1647)"></path></g><g id="SvgjsG1649" transform="translate(627,718.5)"><path id="SvgjsPath1650" d="M 0 0L 100 0L 100 24L 0 24Z" stroke="#323232" stroke-width="2" fill-opacity="1" fill="#ffffff"></path><g id="SvgjsG1651"><text id="SvgjsText1652" font-family="微软雅黑" text-anchor="middle" font-size="13px" width="78" fill="#323232" font-weight="400" align="middle" anchor="middle" family="微软雅黑" size="13px" weight="400" font-style="" y="2.05" transform="rotate(0)"><tspan id="SvgjsTspan1653" dy="16" x="50"><tspan id="SvgjsTspan1654" style="text-decoration:;">请求支付状态</tspan></tspan></text></g></g><g id="SvgjsG1655"><path id="SvgjsPath1656" d="M727 730.5L778.6875 730.5L778.6875 730.5L830.375 730.5" stroke="#323232" stroke-width="2" fill="none" marker-end="url(#SvgjsMarker1657)"></path></g><g id="SvgjsG1659" transform="translate(830.375,719)"><path id="SvgjsPath1660" d="M 0 0L 114.625 0L 103.125 11.5L 114.625 23L 0 23L 0 0Z" stroke="#323232" stroke-width="2" fill-opacity="1" fill="#ffffff"></path><g id="SvgjsG1661"><text id="SvgjsText1662" font-family="微软雅黑" text-anchor="middle" font-size="13px" width="78" fill="#323232" font-weight="400" align="middle" anchor="middle" family="微软雅黑" size="13px" weight="400" font-style="" y="2.55" transform="rotate(0)"><tspan id="SvgjsTspan1663" dy="16" x="52.9625"><tspan id="SvgjsTspan1664" style="text-decoration:;">返回支付状态</tspan></tspan></text></g></g><g id="SvgjsG1665"><path id="SvgjsPath1666" d="M887.6875 742L887.6875 779.3333358764648L698.5625 779.3333358764648" stroke="#323232" stroke-width="2" fill="none" marker-end="url(#SvgjsMarker1667)"></path></g><g id="SvgjsG1669" transform="translate(660.5,759.3333358764648)"><path id="SvgjsPath1670" d="M 0 20L 20 0L 40 20L 20 40L 0 20Z" stroke="#323232" stroke-width="2" fill-opacity="1" fill="#ffffff"></path></g><g id="SvgjsG1671"><path id="SvgjsPath1672" d="M660.5 779.3333358764648L597 779.3333358764648L597 730.5L627 730.5" stroke="#323232" stroke-width="2" fill="none" marker-end="url(#SvgjsMarker1673)"></path><rect id="SvgjsRect1675" width="87" height="16" x="553.5" y="755.2416683197022" fill="#ffffff"></rect><text id="SvgjsText1676" font-family="微软雅黑" text-anchor="middle" font-size="13px" width="87" fill="#323232" font-weight="400" align="top" anchor="middle" family="微软雅黑" size="13px" weight="400" font-style="" y="753.2916683197021" transform="rotate(0)"><tspan id="SvgjsTspan1677" dy="16" x="597"><tspan id="SvgjsTspan1678" style="text-decoration:;">[支付尚未完成]</tspan></tspan></text></g><g id="SvgjsG1679"><path id="SvgjsPath1680" d="M439 558.3333282470703L439 576.1666641235352L439 576.1666641235352L439 594" stroke="#323232" stroke-width="2" fill="none" marker-end="url(#SvgjsMarker1681)"></path></g><g id="SvgjsG1683"><path id="SvgjsPath1684" d="M680.5 799.3333358764648L680.5 822.8333358764648L680.5 822.8333358764648L680.5 846.3333358764648" stroke="#323232" stroke-width="2" fill="none" marker-end="url(#SvgjsMarker1685)"></path><rect id="SvgjsRect1687" width="61" height="16" x="650" y="813.4833358764649" fill="#ffffff"></rect><text id="SvgjsText1688" font-family="微软雅黑" text-anchor="middle" font-size="13px" width="61" fill="#323232" font-weight="400" align="top" anchor="middle" family="微软雅黑" size="13px" weight="400" font-style="" y="811.5333358764649" transform="rotate(0)"><tspan id="SvgjsTspan1689" dy="16" x="680.5"><tspan id="SvgjsTspan1690" style="text-decoration:;">[支付完成]</tspan></tspan></text></g><g id="SvgjsG1691" transform="translate(660.5,846.3333358764648)"><path id="SvgjsPath1692" d="M 0 20L 20 0L 40 20L 20 40L 0 20Z" stroke="#323232" stroke-width="2" fill-opacity="1" fill="#ffffff"></path></g><g id="SvgjsG1693"><path id="SvgjsPath1694" d="M493 730.5L511 730.5L511 687.5L529 687.5" stroke="#323232" stroke-width="2" fill="none" marker-end="url(#SvgjsMarker1695)"></path></g><g id="SvgjsG1697" transform="translate(529,677.5)"><path id="SvgjsPath1698" d="M 0 0L 109 0L 99 10L 109 20L 0 20L 0 0Z" stroke="#323232" stroke-width="2" fill-opacity="1" fill="#ffffff"></path><g id="SvgjsG1699"><text id="SvgjsText1700" font-family="微软雅黑" text-anchor="middle" font-size="13px" width="78" fill="#323232" font-weight="400" align="middle" anchor="middle" family="微软雅黑" size="13px" weight="400" font-style="" y="1.05" transform="rotate(0)"><tspan id="SvgjsTspan1701" dy="16" x="50.9"><tspan id="SvgjsTspan1702" style="text-decoration:;">返回订单状态</tspan></tspan></text></g></g><g id="SvgjsG1703" transform="translate(419,806.3333358764648)"><path id="SvgjsPath1704" d="M 0 20L 20 0L 40 20L 20 40L 0 20Z" stroke="#323232" stroke-width="2" fill-opacity="1" fill="#ffffff"></path></g><g id="SvgjsG1705"><path id="SvgjsPath1706" d="M583.5 697.5L583.5 751.9166679382324L439 751.9166679382324L439 806.3333358764648" stroke="#323232" stroke-width="2" fill="none" marker-end="url(#SvgjsMarker1707)"></path></g><g id="SvgjsG1709"><path id="SvgjsPath1710" d="M660.5 866.3333358764648L569.8125 866.3333358764648L569.8125 911.25" stroke="#323232" stroke-width="2" fill="none" marker-end="url(#SvgjsMarker1711)"></path><rect id="SvgjsRect1713" width="61" height="16" x="562.1979179382324" y="858.3333358764648" fill="#ffffff"></rect><text id="SvgjsText1714" font-family="微软雅黑" text-anchor="middle" font-size="13px" width="61" fill="#323232" font-weight="400" align="top" anchor="middle" family="微软雅黑" size="13px" weight="400" font-style="" y="856.3833358764648" transform="rotate(0)"><tspan id="SvgjsTspan1715" dy="16" x="592.6979179382324"><tspan id="SvgjsTspan1716" style="text-decoration:;">[支付失败]</tspan></tspan></text></g><g id="SvgjsG1717" transform="translate(549.8125,979)"><path id="SvgjsPath1718" d="M 0 20C 0 -6.666666666666667 40 -6.666666666666667 40 20C 40 46.666666666666664 0 46.666666666666664 0 20Z" stroke="#323232" stroke-width="4" fill-opacity="1" fill="#ffffff"></path><path id="SvgjsPath1719" d="M 10 20C 10 6.666666666666666 30 6.666666666666666 30 20C 30 33.333333333333336 10 33.333333333333336 10 20Z" stroke="none" fill-opacity="1" fill="#323232"></path><path id="SvgjsPath1720" d="M 0 20C 0 -6.666666666666667 40 -6.666666666666667 40 20C 40 46.666666666666664 0 46.666666666666664 0 20Z" stroke="none" fill="none"></path><g id="SvgjsG1721"><text id="SvgjsText1722" font-family="微软雅黑" text-anchor="middle" font-size="13px" width="0" fill="#323232" font-weight="400" align="middle" anchor="middle" family="微软雅黑" size="13px" weight="400" font-style="" y="45.05" transform="rotate(0)"></text></g></g><g id="SvgjsG1723" transform="translate(519.3125,911.25)"><path id="SvgjsPath1724" d="M 0 0L 101 0L 101 39.08332824707031L 0 39.08332824707031Z" stroke="#323232" stroke-width="2" fill-opacity="1" fill="#ffffff"></path><g id="SvgjsG1725"><text id="SvgjsText1726" font-family="微软雅黑" text-anchor="middle" font-size="13px" width="78" fill="#323232" font-weight="400" align="middle" anchor="middle" family="微软雅黑" size="13px" weight="400" font-style="" y="1.5916641235351563" transform="rotate(0)"><tspan id="SvgjsTspan1727" dy="16" x="50.5"><tspan id="SvgjsTspan1728" style="text-decoration:;">设置订单状态</tspan></tspan><tspan id="SvgjsTspan1729" dy="16" x="50.5"><tspan id="SvgjsTspan1730" style="text-decoration:;">为失败</tspan></tspan></text></g></g><g id="SvgjsG1731"><path id="SvgjsPath1732" d="M569.8125 950.3333282470703L569.8125 964.6666641235352L569.8125 964.6666641235352L569.8125 979" stroke="#323232" stroke-width="2" fill="none" marker-end="url(#SvgjsMarker1733)"></path></g><g id="SvgjsG1735"><path id="SvgjsPath1736" d="M680.5 886.3333358764648L680.5 916.7916679382324L680.7525 916.7916679382324L680.7525 947.25" stroke="#323232" stroke-width="2" fill="none" marker-end="url(#SvgjsMarker1737)"></path><rect id="SvgjsRect1739" width="61" height="16" x="649.5" y="901" fill="#ffffff"></rect><text id="SvgjsText1740" font-family="微软雅黑" text-anchor="middle" font-size="13px" width="61" fill="#323232" font-weight="400" align="top" anchor="middle" family="微软雅黑" size="13px" weight="400" font-style="" y="899.05" transform="rotate(0)"><tspan id="SvgjsTspan1741" dy="16" x="680"><tspan id="SvgjsTspan1742" style="text-decoration:;">[支付成功]</tspan></tspan></text></g><g id="SvgjsG1743" transform="translate(630,947.25)"><path id="SvgjsPath1744" d="M 0 0L 101 0L 101 39.08332824707031L 0 39.08332824707031Z" stroke="#323232" stroke-width="2" fill-opacity="1" fill="#ffffff"></path><g id="SvgjsG1745"><text id="SvgjsText1746" font-family="微软雅黑" text-anchor="middle" font-size="13px" width="78" fill="#323232" font-weight="400" align="middle" anchor="middle" family="微软雅黑" size="13px" weight="400" font-style="" y="1.5916641235351563" transform="rotate(0)"><tspan id="SvgjsTspan1747" dy="16" x="50.5"><tspan id="SvgjsTspan1748" style="text-decoration:;">设置订单状态</tspan></tspan><tspan id="SvgjsTspan1749" dy="16" x="50.5"><tspan id="SvgjsTspan1750" style="text-decoration:;">为支付成功</tspan></tspan></text></g></g><g id="SvgjsG1751" transform="translate(630.5,1080.3333358764648)"><path id="SvgjsPath1752" d="M 0 0L 100 0L 100 40L 0 40Z" stroke="#323232" stroke-width="2" fill-opacity="1" fill="#ffffff"></path><g id="SvgjsG1753"><text id="SvgjsText1754" font-family="微软雅黑" text-anchor="middle" font-size="13px" width="52" fill="#323232" font-weight="400" align="middle" anchor="middle" family="微软雅黑" size="13px" weight="400" font-style="" y="2.05" transform="rotate(0)"><tspan id="SvgjsTspan1755" dy="16" x="50"><tspan id="SvgjsTspan1756" style="text-decoration:;">触发音箱</tspan></tspan><tspan id="SvgjsTspan1757" dy="16" x="50"><tspan id="SvgjsTspan1758" style="text-decoration:;">提醒店家</tspan></tspan></text></g></g><g id="SvgjsG1759"><path id="SvgjsPath1760" d="M680.5 1120.3333358764648L680.5 1136.3333358764648L680.5 1136.3333358764648L680.5 1152.3333358764648" stroke="#323232" stroke-width="2" fill="none" marker-end="url(#SvgjsMarker1761)"></path></g><g id="SvgjsG1763" transform="translate(660.5,1152.3333358764648)"><path id="SvgjsPath1764" d="M 0 20C 0 -6.666666666666667 40 -6.666666666666667 40 20C 40 46.666666666666664 0 46.666666666666664 0 20Z" stroke="#323232" stroke-width="4" fill-opacity="1" fill="#ffffff"></path><path id="SvgjsPath1765" d="M 10 20C 10 6.666666666666666 30 6.666666666666666 30 20C 30 33.333333333333336 10 33.333333333333336 10 20Z" stroke="none" fill-opacity="1" fill="#323232"></path><path id="SvgjsPath1766" d="M 0 20C 0 -6.666666666666667 40 -6.666666666666667 40 20C 40 46.666666666666664 0 46.666666666666664 0 20Z" stroke="none" fill="none"></path><g id="SvgjsG1767"><text id="SvgjsText1768" font-family="微软雅黑" text-anchor="middle" font-size="13px" width="0" fill="#323232" font-weight="400" align="middle" anchor="middle" family="微软雅黑" size="13px" weight="400" font-style="" y="45.05" transform="rotate(0)"></text></g></g><g id="SvgjsG1769" transform="translate(25,25)"><path id="SvgjsPath1770" d="M 0 0L 238.5 0L 238.5 889L 0 889Z" stroke="#323232" stroke-width="2" fill="none"></path><path id="SvgjsPath1771" d="M 0 0L 238.5 0L 238.5 40L 0 40Z" stroke="#323232" stroke-width="2" fill-opacity="1" fill="#ffffff"></path><g id="SvgjsG1772"><text id="SvgjsText1773" font-family="微软雅黑" text-anchor="middle" font-size="16px" width="112" fill="#323232" font-weight="400" align="middle" anchor="middle" family="微软雅黑" size="16px" weight="400" font-style="" y="7.6" transform="rotate(0)"><tspan id="SvgjsTspan1774" dy="20" x="119.5"><tspan id="SvgjsTspan1775" style="text-decoration:;">第三方支付系统</tspan></tspan></text></g></g><g id="SvgjsG1776"><path id="SvgjsPath1777" d="M272.75 730.5L246.0625 730.5L246.0625 730.5L219.375 730.5" stroke="#323232" stroke-width="2" fill="none" marker-end="url(#SvgjsMarker1778)"></path></g><g id="SvgjsG1780" transform="translate(76.125,715)"><path id="SvgjsPath1781" d="M 0 0L 143.25 0L 143.25 31L 0 31Z" stroke="#323232" stroke-width="2" fill-opacity="1" fill="#ffffff"></path><g id="SvgjsG1782"><text id="SvgjsText1783" font-family="微软雅黑" text-anchor="middle" font-size="13px" width="78" fill="#323232" font-weight="400" align="middle" anchor="middle" family="微软雅黑" size="13px" weight="400" font-style="" y="5.55" transform="rotate(0)"><tspan id="SvgjsTspan1784" dy="16" x="72"><tspan id="SvgjsTspan1785" style="text-decoration:;">设置支付状态</tspan></tspan></text></g></g><g id="SvgjsG1786"><path id="SvgjsPath1787" d="M147.75 746L147.75 779.3333358764648L272.75 779.3333358764648" stroke="#323232" stroke-width="2" fill="none" marker-end="url(#SvgjsMarker1788)"></path></g><g id="SvgjsG1790" transform="translate(272.75,764.3333358764648)"><path id="SvgjsPath1791" d="M 0 0L 100 0L 100 30L 0 30Z" stroke="#323232" stroke-width="2" fill-opacity="1" fill="#ffffff"></path><g id="SvgjsG1792"><text id="SvgjsText1793" font-family="微软雅黑" text-anchor="middle" font-size="13px" width="78" fill="#323232" font-weight="400" align="middle" anchor="middle" family="微软雅黑" size="13px" weight="400" font-style="" y="5.05" transform="rotate(0)"><tspan id="SvgjsTspan1794" dy="16" x="50"><tspan id="SvgjsTspan1795" style="text-decoration:;">关闭支付页面</tspan></tspan></text></g></g><g id="SvgjsG1796"><path id="SvgjsPath1797" d="M419 826.3333358764648L389 826.3333358764648L389 772.3333435058594L429 772.3333435058594L429 742.3333435058594" stroke="#323232" stroke-width="2" fill="none" marker-end="url(#SvgjsMarker1798)"></path><rect id="SvgjsRect1800" width="74" height="16" x="352" y="802" fill="#ffffff"></rect><text id="SvgjsText1801" font-family="微软雅黑" text-anchor="middle" font-size="13px" width="74" fill="#323232" font-weight="400" align="top" anchor="middle" family="微软雅黑" size="13px" weight="400" font-style="" y="800.05" transform="rotate(0)"><tspan id="SvgjsTspan1802" dy="16" x="389"><tspan id="SvgjsTspan1803" style="text-decoration:;">[状态未变动]</tspan></tspan></text></g><g id="SvgjsG1804"><path id="SvgjsPath1805" d="M439 846.3333358764648L439 885.0416679382324L382.25 885.0416679382324L382.25 923.75" stroke="#323232" stroke-width="2" fill="none" marker-end="url(#SvgjsMarker1806)"></path><rect id="SvgjsRect1808" width="61" height="16" x="408.5" y="857" fill="#ffffff"></rect><text id="SvgjsText1809" font-family="微软雅黑" text-anchor="middle" font-size="13px" width="61" fill="#323232" font-weight="400" align="top" anchor="middle" family="微软雅黑" size="13px" weight="400" font-style="" y="855.05" transform="rotate(0)"><tspan id="SvgjsTspan1810" dy="16" x="439"><tspan id="SvgjsTspan1811" style="text-decoration:;">[状态变动]</tspan></tspan></text></g><g id="SvgjsG1812" transform="translate(330.25,923.75)"><path id="SvgjsPath1813" d="M 0 0L 104 0L 104 23.5L 0 23.5Z" stroke="#323232" stroke-width="2" fill-opacity="1" fill="#ffffff"></path><g id="SvgjsG1814"><text id="SvgjsText1815" font-family="微软雅黑" text-anchor="middle" font-size="13px" width="78" fill="#323232" font-weight="400" align="middle" anchor="middle" family="微软雅黑" size="13px" weight="400" font-style="" y="1.8" transform="rotate(0)"><tspan id="SvgjsTspan1816" dy="16" x="52"><tspan id="SvgjsTspan1817" style="text-decoration:;">提示状态信息</tspan></tspan></text></g></g><g id="SvgjsG1818"><path id="SvgjsPath1819" d="M382.25 947.25L382.25 988.7916679382324L382.25 988.7916679382324L382.25 1030.3333358764648" stroke="#323232" stroke-width="2" fill="none" marker-end="url(#SvgjsMarker1820)"></path></g><g id="SvgjsG1822" transform="translate(362.25,1030.3333358764648)"><path id="SvgjsPath1823" d="M 0 20C 0 -6.666666666666667 40 -6.666666666666667 40 20C 40 46.666666666666664 0 46.666666666666664 0 20Z" stroke="#323232" stroke-width="4" fill-opacity="1" fill="#ffffff"></path><path id="SvgjsPath1824" d="M 10 20C 10 6.666666666666666 30 6.666666666666666 30 20C 30 33.333333333333336 10 33.333333333333336 10 20Z" stroke="none" fill-opacity="1" fill="#323232"></path><path id="SvgjsPath1825" d="M 0 20C 0 -6.666666666666667 40 -6.666666666666667 40 20C 40 46.666666666666664 0 46.666666666666664 0 20Z" stroke="none" fill="none"></path><g id="SvgjsG1826"><text id="SvgjsText1827" font-family="微软雅黑" text-anchor="middle" font-size="13px" width="0" fill="#323232" font-weight="400" align="middle" anchor="middle" family="微软雅黑" size="13px" weight="400" font-style="" y="45.05" transform="rotate(0)"></text></g></g><g id="SvgjsG1828" transform="translate(272.75,840.3333435058594)"><path id="SvgjsPath1829" d="M 0 4Q 0 0 4 0L 116 0Q 120 0 120 4L 120 16Q 120 20 116 20L 4 20Q 0 20 0 16Z" stroke="none" fill-opacity="1" fill="#323232"></path></g><g id="SvgjsG1830"><path id="SvgjsPath1831" d="M322.75 794.3333358764648L322.75 817.3333396911621L335 817.3333396911621L335 840.3333435058594" stroke="#323232" stroke-width="2" fill="none" marker-end="url(#SvgjsMarker1832)"></path></g><g id="SvgjsG1834"><path id="SvgjsPath1835" d="M680.5 986.3333282470703L680.5 1003.5904767172681L680.5 1003.5904767172681L680.5 1020.8476251874658" stroke="#323232" stroke-width="2" fill="none" marker-end="url(#SvgjsMarker1836)"></path></g><g id="SvgjsG1838" transform="translate(630.5,1021.3333358764648)"><path id="SvgjsPath1839" d="M 0 0L 100 0L 100 34.00000762939453L 0 34.00000762939453Z" stroke="#323232" stroke-width="2" fill-opacity="1" fill="#ffffff"></path><g id="SvgjsG1840"><text id="SvgjsText1841" font-family="微软雅黑" text-anchor="middle" font-size="13px" width="65" fill="#323232" font-weight="400" align="middle" anchor="middle" family="微软雅黑" size="13px" weight="400" font-style="" y="-0.9499961853027343" transform="rotate(0)"><tspan id="SvgjsTspan1842" dy="16" x="50"><tspan id="SvgjsTspan1843" style="text-decoration:;">设置当前</tspan></tspan><tspan id="SvgjsTspan1844" dy="16" x="50"><tspan id="SvgjsTspan1845" style="text-decoration:;">购物车状态</tspan></tspan></text></g></g><g id="SvgjsG1846"><path id="SvgjsPath1847" d="M680.5 1055.3333435058594L680.5 1067.833339691162L680.5 1067.833339691162L680.5 1080.3333358764648" stroke="#323232" stroke-width="2" fill="none" marker-end="url(#SvgjsMarker1848)"></path></g></svg>