<svg id="SvgjsSvg1006" width="1004.5" height="1247" xmlns="http://www.w3.org/2000/svg" version="1.1" xmlns:xlink="http://www.w3.org/1999/xlink" xmlns:svgjs="http://svgjs.com/svgjs"><defs id="SvgjsDefs1007"><marker id="SvgjsMarker1028" markerWidth="16" markerHeight="12" refX="16" refY="6" viewBox="0 0 16 12" orient="auto" markerUnits="userSpaceOnUse"><path id="SvgjsPath1029" d="M0,2 L14,6 L0,11 L0,2" fill="#323232" stroke="#323232" stroke-width="2"></path></marker><marker id="SvgjsMarker1044" markerWidth="16" markerHeight="12" refX="16" refY="6" viewBox="0 0 16 12" orient="auto" markerUnits="userSpaceOnUse"><path id="SvgjsPath1045" d="M0,2 L14,6 L0,11 L0,2" fill="#323232" stroke="#323232" stroke-width="2"></path></marker><marker id="SvgjsMarker1054" markerWidth="16" markerHeight="12" refX="16" refY="6" viewBox="0 0 16 12" orient="auto" markerUnits="userSpaceOnUse"><path id="SvgjsPath1055" d="M0,2 L14,6 L0,11 L0,2" fill="#323232" stroke="#323232" stroke-width="2"></path></marker><marker id="SvgjsMarker1077" markerWidth="16" markerHeight="12" refX="16" refY="6" viewBox="0 0 16 12" orient="auto" markerUnits="userSpaceOnUse"><path id="SvgjsPath1078" d="M0,2 L14,6 L0,11 L0,2" fill="#323232" stroke="#323232" stroke-width="2"></path></marker><marker id="SvgjsMarker1083" markerWidth="16" markerHeight="12" refX="16" refY="6" viewBox="0 0 16 12" orient="auto" markerUnits="userSpaceOnUse"><path id="SvgjsPath1084" d="M0,2 L14,6 L0,11 L0,2" fill="#323232" stroke="#323232" stroke-width="2"></path></marker><marker id="SvgjsMarker1087" markerWidth="16" markerHeight="12" refX="16" refY="6" viewBox="0 0 16 12" orient="auto" markerUnits="userSpaceOnUse"><path id="SvgjsPath1088" d="M0,2 L14,6 L0,11 L0,2" fill="#323232" stroke="#323232" stroke-width="2"></path></marker><marker id="SvgjsMarker1103" markerWidth="16" markerHeight="12" refX="16" refY="6" viewBox="0 0 16 12" orient="auto" markerUnits="userSpaceOnUse"><path id="SvgjsPath1104" d="M0,2 L14,6 L0,11 L0,2" fill="#323232" stroke="#323232" stroke-width="2"></path></marker><marker id="SvgjsMarker1107" markerWidth="16" markerHeight="12" refX="16" refY="6" viewBox="0 0 16 12" orient="auto" markerUnits="userSpaceOnUse"><path id="SvgjsPath1108" d="M0,2 L14,6 L0,11 L0,2" fill="#323232" stroke="#323232" stroke-width="2"></path></marker><marker id="SvgjsMarker1113" markerWidth="16" markerHeight="12" refX="16" refY="6" viewBox="0 0 16 12" orient="auto" markerUnits="userSpaceOnUse"><path id="SvgjsPath1114" d="M0,2 L14,6 L0,11 L0,2" fill="#323232" stroke="#323232" stroke-width="2"></path></marker><marker id="SvgjsMarker1121" markerWidth="16" markerHeight="12" refX="16" refY="6" viewBox="0 0 16 12" orient="auto" markerUnits="userSpaceOnUse"><path id="SvgjsPath1122" d="M0,2 L14,6 L0,11 L0,2" fill="#323232" stroke="#323232" stroke-width="2"></path></marker><marker id="SvgjsMarker1131" markerWidth="16" markerHeight="12" refX="16" refY="6" viewBox="0 0 16 12" orient="auto" markerUnits="userSpaceOnUse"><path id="SvgjsPath1132" d="M0,2 L14,6 L0,11 L0,2" fill="#323232" stroke="#323232" stroke-width="2"></path></marker><marker id="SvgjsMarker1145" markerWidth="16" markerHeight="12" refX="16" refY="6" viewBox="0 0 16 12" orient="auto" markerUnits="userSpaceOnUse"><path id="SvgjsPath1146" d="M0,2 L14,6 L0,11 L0,2" fill="#323232" stroke="#323232" stroke-width="2"></path></marker><marker id="SvgjsMarker1155" markerWidth="16" markerHeight="12" refX="16" refY="6" viewBox="0 0 16 12" orient="auto" markerUnits="userSpaceOnUse"><path id="SvgjsPath1156" d="M0,2 L14,6 L0,11 L0,2" fill="#323232" stroke="#323232" stroke-width="2"></path></marker><marker id="SvgjsMarker1167" markerWidth="16" markerHeight="12" refX="16" refY="6" viewBox="0 0 16 12" orient="auto" markerUnits="userSpaceOnUse"><path id="SvgjsPath1168" d="M0,2 L14,6 L0,11 L0,2" fill="#323232" stroke="#323232" stroke-width="2"></path></marker><marker id="SvgjsMarker1171" markerWidth="16" markerHeight="12" refX="16" refY="6" viewBox="0 0 16 12" orient="auto" markerUnits="userSpaceOnUse"><path id="SvgjsPath1172" d="M0,2 L14,6 L0,11 L0,2" fill="#323232" stroke="#323232" stroke-width="2"></path></marker><marker id="SvgjsMarker1175" markerWidth="16" markerHeight="12" refX="16" refY="6" viewBox="0 0 16 12" orient="auto" markerUnits="userSpaceOnUse"><path id="SvgjsPath1176" d="M0,2 L14,6 L0,11 L0,2" fill="#323232" stroke="#323232" stroke-width="2"></path></marker><marker id="SvgjsMarker1187" markerWidth="16" markerHeight="12" refX="16" refY="6" viewBox="0 0 16 12" orient="auto" markerUnits="userSpaceOnUse"><path id="SvgjsPath1188" d="M0,2 L14,6 L0,11 L0,2" fill="#323232" stroke="#323232" stroke-width="2"></path></marker><marker id="SvgjsMarker1203" markerWidth="16" markerHeight="12" refX="16" refY="6" viewBox="0 0 16 12" orient="auto" markerUnits="userSpaceOnUse"><path id="SvgjsPath1204" d="M0,2 L14,6 L0,11 L0,2" fill="#323232" stroke="#323232" stroke-width="2"></path></marker><marker id="SvgjsMarker1213" markerWidth="16" markerHeight="12" refX="16" refY="6" viewBox="0 0 16 12" orient="auto" markerUnits="userSpaceOnUse"><path id="SvgjsPath1214" d="M0,2 L14,6 L0,11 L0,2" fill="#323232" stroke="#323232" stroke-width="2"></path></marker><marker id="SvgjsMarker1231" markerWidth="16" markerHeight="12" refX="16" refY="6" viewBox="0 0 16 12" orient="auto" markerUnits="userSpaceOnUse"><path id="SvgjsPath1232" d="M0,2 L14,6 L0,11 L0,2" fill="#323232" stroke="#323232" stroke-width="2"></path></marker><marker id="SvgjsMarker1241" markerWidth="16" markerHeight="12" refX="16" refY="6" viewBox="0 0 16 12" orient="auto" markerUnits="userSpaceOnUse"><path id="SvgjsPath1242" d="M0,2 L14,6 L0,11 L0,2" fill="#323232" stroke="#323232" stroke-width="2"></path></marker><marker id="SvgjsMarker1251" markerWidth="16" markerHeight="12" refX="16" refY="6" viewBox="0 0 16 12" orient="auto" markerUnits="userSpaceOnUse"><path id="SvgjsPath1252" d="M0,2 L14,6 L0,11 L0,2" fill="#323232" stroke="#323232" stroke-width="2"></path></marker><marker id="SvgjsMarker1257" markerWidth="16" markerHeight="12" refX="16" refY="6" viewBox="0 0 16 12" orient="auto" markerUnits="userSpaceOnUse"><path id="SvgjsPath1258" d="M0,2 L14,6 L0,11 L0,2" fill="#323232" stroke="#323232" stroke-width="2"></path></marker><marker id="SvgjsMarker1265" markerWidth="16" markerHeight="12" refX="16" refY="6" viewBox="0 0 16 12" orient="auto" markerUnits="userSpaceOnUse"><path id="SvgjsPath1266" d="M0,2 L14,6 L0,11 L0,2" fill="#323232" stroke="#323232" stroke-width="2"></path></marker><marker id="SvgjsMarker1269" markerWidth="16" markerHeight="12" refX="16" refY="6" viewBox="0 0 16 12" orient="auto" markerUnits="userSpaceOnUse"><path id="SvgjsPath1270" d="M0,2 L14,6 L0,11 L0,2" fill="#323232" stroke="#323232" stroke-width="2"></path></marker><marker id="SvgjsMarker1279" markerWidth="16" markerHeight="12" refX="16" refY="6" viewBox="0 0 16 12" orient="auto" markerUnits="userSpaceOnUse"><path id="SvgjsPath1280" d="M0,2 L14,6 L0,11 L0,2" fill="#323232" stroke="#323232" stroke-width="2"></path></marker><marker id="SvgjsMarker1291" markerWidth="16" markerHeight="12" refX="16" refY="6" viewBox="0 0 16 12" orient="auto" markerUnits="userSpaceOnUse"><path id="SvgjsPath1292" d="M0,2 L14,6 L0,11 L0,2" fill="#323232" stroke="#323232" stroke-width="2"></path></marker><marker id="SvgjsMarker1295" markerWidth="16" markerHeight="12" refX="16" refY="6" viewBox="0 0 16 12" orient="auto" markerUnits="userSpaceOnUse"><path id="SvgjsPath1296" d="M0,2 L14,6 L0,11 L0,2" fill="#323232" stroke="#323232" stroke-width="2"></path></marker><marker id="SvgjsMarker1317" markerWidth="16" markerHeight="12" refX="16" refY="6" viewBox="0 0 16 12" orient="auto" markerUnits="userSpaceOnUse"><path id="SvgjsPath1318" d="M0,2 L14,6 L0,11 L0,2" fill="#323232" stroke="#323232" stroke-width="2"></path></marker><marker id="SvgjsMarker1321" markerWidth="16" markerHeight="12" refX="16" refY="6" viewBox="0 0 16 12" orient="auto" markerUnits="userSpaceOnUse"><path id="SvgjsPath1322" d="M0,2 L14,6 L0,11 L0,2" fill="#323232" stroke="#323232" stroke-width="2"></path></marker><marker id="SvgjsMarker1337" markerWidth="16" markerHeight="12" refX="16" refY="6" viewBox="0 0 16 12" orient="auto" markerUnits="userSpaceOnUse"><path id="SvgjsPath1338" d="M0,2 L14,6 L0,11 L0,2" fill="#323232" stroke="#323232" stroke-width="2"></path></marker><marker id="SvgjsMarker1349" markerWidth="16" markerHeight="12" refX="16" refY="6" viewBox="0 0 16 12" orient="auto" markerUnits="userSpaceOnUse"><path id="SvgjsPath1350" d="M0,2 L14,6 L0,11 L0,2" fill="#323232" stroke="#323232" stroke-width="2"></path></marker><marker id="SvgjsMarker1366" markerWidth="16" markerHeight="12" refX="16" refY="6" viewBox="0 0 16 12" orient="auto" markerUnits="userSpaceOnUse"><path id="SvgjsPath1367" d="M0,2 L14,6 L0,11 L0,2" fill="#323232" stroke="#323232" stroke-width="2"></path></marker><marker id="SvgjsMarker1376" markerWidth="16" markerHeight="12" refX="16" refY="6" viewBox="0 0 16 12" orient="auto" markerUnits="userSpaceOnUse"><path id="SvgjsPath1377" d="M0,2 L14,6 L0,11 L0,2" fill="#323232" stroke="#323232" stroke-width="2"></path></marker><marker id="SvgjsMarker1386" markerWidth="16" markerHeight="12" refX="16" refY="6" viewBox="0 0 16 12" orient="auto" markerUnits="userSpaceOnUse"><path id="SvgjsPath1387" d="M0,2 L14,6 L0,11 L0,2" fill="#323232" stroke="#323232" stroke-width="2"></path></marker><marker id="SvgjsMarker1394" markerWidth="16" markerHeight="12" refX="16" refY="6" viewBox="0 0 16 12" orient="auto" markerUnits="userSpaceOnUse"><path id="SvgjsPath1395" d="M0,2 L14,6 L0,11 L0,2" fill="#323232" stroke="#323232" stroke-width="2"></path></marker><marker id="SvgjsMarker1408" markerWidth="16" markerHeight="12" refX="16" refY="6" viewBox="0 0 16 12" orient="auto" markerUnits="userSpaceOnUse"><path id="SvgjsPath1409" d="M0,2 L14,6 L0,11 L0,2" fill="#323232" stroke="#323232" stroke-width="2"></path></marker><marker id="SvgjsMarker1420" markerWidth="16" markerHeight="12" refX="16" refY="6" viewBox="0 0 16 12" orient="auto" markerUnits="userSpaceOnUse"><path id="SvgjsPath1421" d="M0,2 L14,6 L0,11 L0,2" fill="#323232" stroke="#323232" stroke-width="2"></path></marker></defs><g id="SvgjsG1008" transform="translate(502,25)"><path id="SvgjsPath1009" d="M 0 0L 238.5 0L 238.5 1196.3333435058594L 0 1196.3333435058594Z" stroke="#323232" stroke-width="2" fill="none"></path><path id="SvgjsPath1010" d="M 0 0L 238.5 0L 238.5 40L 0 40Z" stroke="#323232" stroke-width="2" fill-opacity="1" fill="#ffffff"></path><g id="SvgjsG1011"><text id="SvgjsText1012" font-family="微软雅黑" text-anchor="middle" font-size="16px" width="48" fill="#323232" font-weight="400" align="middle" anchor="middle" family="微软雅黑" size="16px" weight="400" font-style="" y="7.6" transform="rotate(0)"><tspan id="SvgjsTspan1013" dy="20" x="119.5"><tspan id="SvgjsTspan1014" style="text-decoration:;">服务器</tspan></tspan></text></g></g><g id="SvgjsG1015" transform="translate(740.5,25)"><path id="SvgjsPath1016" d="M 0 0L 238.5 0L 238.5 889L 0 889Z" stroke="#323232" stroke-width="2" fill="none"></path><path id="SvgjsPath1017" d="M 0 0L 238.5 0L 238.5 40L 0 40Z" stroke="#323232" stroke-width="2" fill-opacity="1" fill="#ffffff"></path><g id="SvgjsG1018"><text id="SvgjsText1019" font-family="微软雅黑" text-anchor="middle" font-size="16px" width="112" fill="#323232" font-weight="400" align="middle" anchor="middle" family="微软雅黑" size="16px" weight="400" font-style="" y="7.6" transform="rotate(0)"><tspan id="SvgjsTspan1020" dy="20" x="119.5"><tspan id="SvgjsTspan1021" style="text-decoration:;">第三方支付系统</tspan></tspan></text></g></g><g id="SvgjsG1022" transform="translate(362.75,79)"><path id="SvgjsPath1023" d="M 0 20C 0 -6.666666666666667 40 -6.666666666666667 40 20C 40 46.666666666666664 0 46.666666666666664 0 20Z" stroke="none" fill-opacity="1" fill="#323232"></path><g id="SvgjsG1024"><text id="SvgjsText1025" font-family="微软雅黑" text-anchor="middle" font-size="13px" width="0" fill="#323232" font-weight="400" align="middle" anchor="middle" family="微软雅黑" size="13px" weight="400" font-style="" y="45.05" transform="rotate(0)"></text></g></g><g id="SvgjsG1026"><path id="SvgjsPath1027" d="M382.75 119L382.75 130L382.75 130L382.75 141" stroke="#323232" stroke-width="2" fill="none" marker-end="url(#SvgjsMarker1028)"></path></g><g id="SvgjsG1030" transform="translate(300.1875,141)"><path id="SvgjsPath1031" d="M 0 0L 165.125 0L 165.125 38L 0 38Z" stroke="#323232" stroke-width="2" fill-opacity="1" fill="#ffffff"></path><g id="SvgjsG1032"><text id="SvgjsText1033" font-family="微软雅黑" text-anchor="middle" font-size="13px" width="143" fill="#323232" font-weight="400" align="middle" anchor="middle" family="微软雅黑" size="13px" weight="400" font-style="" y="9.05" transform="rotate(0)"><tspan id="SvgjsTspan1034" dy="16" x="83"><tspan id="SvgjsTspan1035" style="text-decoration:;">用户选择支付方式后下单</tspan></tspan></text></g></g><g id="SvgjsG1036" transform="translate(553.875,221)"><path id="SvgjsPath1037" d="M 0 0L 134.75 0L 134.75 24L 0 24Z" stroke="#323232" stroke-width="2" fill-opacity="1" fill="#ffffff"></path><g id="SvgjsG1038"><text id="SvgjsText1039" font-family="微软雅黑" text-anchor="middle" font-size="13px" width="78" fill="#323232" font-weight="400" align="middle" anchor="middle" family="微软雅黑" size="13px" weight="400" font-style="" y="2.05" transform="rotate(0)"><tspan id="SvgjsTspan1040" dy="16" x="67.5"><tspan id="SvgjsTspan1041" style="text-decoration:;">发起交易请求</tspan></tspan></text></g></g><g id="SvgjsG1042"><path id="SvgjsPath1043" d="M688.625 233L738.375 233L738.375 233L788.125 233" stroke="#323232" stroke-width="2" fill="none" marker-end="url(#SvgjsMarker1044)"></path></g><g id="SvgjsG1046" transform="translate(788.125,217.5)"><path id="SvgjsPath1047" d="M 0 0L 143.25 0L 143.25 31L 0 31Z" stroke="#323232" stroke-width="2" fill-opacity="1" fill="#ffffff"></path><g id="SvgjsG1048"><text id="SvgjsText1049" font-family="微软雅黑" text-anchor="middle" font-size="13px" width="78" fill="#323232" font-weight="400" align="middle" anchor="middle" family="微软雅黑" size="13px" weight="400" font-style="" y="5.55" transform="rotate(0)"><tspan id="SvgjsTspan1050" dy="16" x="72"><tspan id="SvgjsTspan1051" style="text-decoration:;">处理交易请求</tspan></tspan></text></g></g><g id="SvgjsG1052"><path id="SvgjsPath1053" d="M859.75 248.5L859.75 337.375L621.25 337.375L621.25 358.25" stroke="#323232" stroke-width="2" fill="none" marker-end="url(#SvgjsMarker1054)"></path></g><g id="SvgjsG1056" transform="translate(389.75,594)"><path id="SvgjsPath1057" d="M 0 0L 98.5 0L 98.5 27L 0 27Z" stroke="#323232" stroke-width="2" fill-opacity="1" fill="#ffffff"></path><g id="SvgjsG1058"><text id="SvgjsText1059" font-family="微软雅黑" text-anchor="middle" font-size="13px" width="77" fill="#323232" font-weight="400" align="middle" anchor="middle" family="微软雅黑" size="13px" weight="400" font-style="" y="3.55" transform="rotate(0)"><tspan id="SvgjsTspan1060" dy="16" x="49.5"><tspan id="SvgjsTspan1061" style="text-decoration:;">打开支付URL</tspan></tspan></text></g></g><g id="SvgjsG1062" transform="translate(263.5,25)"><path id="SvgjsPath1063" d="M 0 0L 238.5 0L 238.5 1196.3333435058594L 0 1196.3333435058594Z" stroke="#323232" stroke-width="2" fill="none"></path><path id="SvgjsPath1064" d="M 0 0L 238.5 0L 238.5 40L 0 40Z" stroke="#323232" stroke-width="2" fill-opacity="1" fill="#ffffff"></path><g id="SvgjsG1065"><text id="SvgjsText1066" font-family="微软雅黑" text-anchor="middle" font-size="16px" width="48" fill="#323232" font-weight="400" align="middle" anchor="middle" family="微软雅黑" size="16px" weight="400" font-style="" y="7.6" transform="rotate(0)"><tspan id="SvgjsTspan1067" dy="20" x="119.5"><tspan id="SvgjsTspan1068" style="text-decoration:;">浏览器</tspan></tspan></text></g></g><g id="SvgjsG1069" transform="translate(272.75,718)"><path id="SvgjsPath1070" d="M 0 0L 100 0L 100 25L 0 25Z" stroke="#323232" stroke-width="2" fill-opacity="1" fill="#ffffff"></path><g id="SvgjsG1071"><text id="SvgjsText1072" font-family="微软雅黑" text-anchor="middle" font-size="13px" width="52" fill="#323232" font-weight="400" align="middle" anchor="middle" family="微软雅黑" size="13px" weight="400" font-style="" y="2.55" transform="rotate(0)"><tspan id="SvgjsTspan1073" dy="16" x="50"><tspan id="SvgjsTspan1074" style="text-decoration:;">客户支付</tspan></tspan></text></g></g><g id="SvgjsG1075"><path id="SvgjsPath1076" d="M382.75 179L382.75 190L383 190L383 201" stroke="#323232" stroke-width="2" fill="none" marker-end="url(#SvgjsMarker1077)"></path></g><g id="SvgjsG1079" transform="translate(322.75,201)"><path id="SvgjsPath1080" d="M 0 4Q 0 0 4 0L 116 0Q 120 0 120 4L 120 16Q 120 20 116 20L 4 20Q 0 20 0 16Z" stroke="none" fill-opacity="1" fill="#323232"></path></g><g id="SvgjsG1081"><path id="SvgjsPath1082" d="M383 221L383 233L553.875 233" stroke="#323232" stroke-width="2" fill="none" marker-end="url(#SvgjsMarker1083)"></path></g><g id="SvgjsG1085"><path id="SvgjsPath1086" d="M382 221L382 244.25L382.75 244.25L382.75 267.5" stroke="#323232" stroke-width="2" fill="none" marker-end="url(#SvgjsMarker1087)"></path></g><g id="SvgjsG1089" transform="translate(551.9375,271.5)"><path id="SvgjsPath1090" d="M 0 0L 138.625 0L 127.25 11.375L 138.625 22.75L 0 22.75L 0 0Z" stroke="#323232" stroke-width="2" fill-opacity="1" fill="#ffffff"></path><g id="SvgjsG1091"><text id="SvgjsText1092" font-family="微软雅黑" text-anchor="middle" font-size="13px" width="78" fill="#323232" font-weight="400" align="middle" anchor="middle" family="微软雅黑" size="13px" weight="400" font-style="" y="2.425" transform="rotate(0)"><tspan id="SvgjsTspan1093" dy="16" x="64.8625"><tspan id="SvgjsTspan1094" style="text-decoration:;">返回订单状态</tspan></tspan></text></g></g><g id="SvgjsG1095" transform="translate(322.75,268.375)"><path id="SvgjsPath1096" d="M 0 0L 119 0L 119 29L 0 29Z" stroke="#323232" stroke-width="2" fill-opacity="1" fill="#ffffff"></path><g id="SvgjsG1097"><text id="SvgjsText1098" font-family="微软雅黑" text-anchor="middle" font-size="13px" width="78" fill="#323232" font-weight="400" align="middle" anchor="middle" family="微软雅黑" size="13px" weight="400" font-style="" y="4.55" transform="rotate(0)"><tspan id="SvgjsTspan1099" dy="16" x="59.5"><tspan id="SvgjsTspan1100" style="text-decoration:;">获取订单状态</tspan></tspan></text></g></g><g id="SvgjsG1101"><path id="SvgjsPath1102" d="M441.75 282.875L496.84375 282.875L496.84375 282.875L551.9375 282.875" stroke="#323232" stroke-width="2" fill="none" marker-end="url(#SvgjsMarker1103)"></path></g><g id="SvgjsG1105"><path id="SvgjsPath1106" d="M621.25 294.25L621.25 328L459 328" stroke="#323232" stroke-width="2" fill="none" marker-end="url(#SvgjsMarker1107)"></path></g><g id="SvgjsG1109" transform="translate(419,308)"><path id="SvgjsPath1110" d="M 0 20L 20 0L 40 20L 20 40L 0 20Z" stroke="#323232" stroke-width="2" fill-opacity="1" fill="#ffffff"></path></g><g id="SvgjsG1111"><path id="SvgjsPath1112" d="M419 328L292.75 328L292.75 282.875L322.75 282.875" stroke="#323232" stroke-width="2" fill="none" marker-end="url(#SvgjsMarker1113)"></path><rect id="SvgjsRect1115" width="74" height="16" x="281.3125" y="320" fill="#ffffff"></rect><text id="SvgjsText1116" font-family="微软雅黑" text-anchor="middle" font-size="13px" width="74" fill="#323232" font-weight="400" align="top" anchor="middle" family="微软雅黑" size="13px" weight="400" font-style="" y="318.05" transform="rotate(0)"><tspan id="SvgjsTspan1117" dy="16" x="318.3125"><tspan id="SvgjsTspan1118" style="text-decoration:;">[状态未变动]</tspan></tspan></text></g><g id="SvgjsG1119"><path id="SvgjsPath1120" d="M439 348L439 371.75L439 371.75L439 395.5" stroke="#323232" stroke-width="2" fill="none" marker-end="url(#SvgjsMarker1121)"></path><rect id="SvgjsRect1123" width="61" height="16" x="408.5" y="363.75" fill="#ffffff"></rect><text id="SvgjsText1124" font-family="微软雅黑" text-anchor="middle" font-size="13px" width="61" fill="#323232" font-weight="400" align="top" anchor="middle" family="微软雅黑" size="13px" weight="400" font-style="" y="361.8" transform="rotate(0)"><tspan id="SvgjsTspan1125" dy="16" x="439"><tspan id="SvgjsTspan1126" style="text-decoration:;">[状态变动]</tspan></tspan></text></g><g id="SvgjsG1127" transform="translate(419,395.5)"><path id="SvgjsPath1128" d="M 0 20L 20 0L 40 20L 20 40L 0 20Z" stroke="#323232" stroke-width="2" fill-opacity="1" fill="#ffffff"></path></g><g id="SvgjsG1129"><path id="SvgjsPath1130" d="M419 415.5L337.75 415.5L337.75 449.5" stroke="#323232" stroke-width="2" fill="none" marker-end="url(#SvgjsMarker1131)"></path><rect id="SvgjsRect1133" width="74" height="16" x="324.375" y="407.5" fill="#ffffff"></rect><text id="SvgjsText1134" font-family="微软雅黑" text-anchor="middle" font-size="13px" width="74" fill="#323232" font-weight="400" align="top" anchor="middle" family="微软雅黑" size="13px" weight="400" font-style="" y="405.55" transform="rotate(0)"><tspan id="SvgjsTspan1135" dy="16" x="361.375"><tspan id="SvgjsTspan1136" style="text-decoration:;">[状态为失败]</tspan></tspan></text></g><g id="SvgjsG1137" transform="translate(285.75,449.5)"><path id="SvgjsPath1138" d="M 0 0L 104 0L 104 23.5L 0 23.5Z" stroke="#323232" stroke-width="2" fill-opacity="1" fill="#ffffff"></path><g id="SvgjsG1139"><text id="SvgjsText1140" font-family="微软雅黑" text-anchor="middle" font-size="13px" width="78" fill="#323232" font-weight="400" align="middle" anchor="middle" family="微软雅黑" size="13px" weight="400" font-style="" y="1.8" transform="rotate(0)"><tspan id="SvgjsTspan1141" dy="16" x="52"><tspan id="SvgjsTspan1142" style="text-decoration:;">提示状态信息</tspan></tspan></text></g></g><g id="SvgjsG1143"><path id="SvgjsPath1144" d="M337.75 473L337.75 488.5L337.75 488.5L337.75 504" stroke="#323232" stroke-width="2" fill="none" marker-end="url(#SvgjsMarker1145)"></path></g><g id="SvgjsG1147" transform="translate(317.75,504)"><path id="SvgjsPath1148" d="M 0 20C 0 -6.666666666666667 40 -6.666666666666667 40 20C 40 46.666666666666664 0 46.666666666666664 0 20Z" stroke="#323232" stroke-width="4" fill-opacity="1" fill="#ffffff"></path><path id="SvgjsPath1149" d="M 10 20C 10 6.666666666666666 30 6.666666666666666 30 20C 30 33.333333333333336 10 33.333333333333336 10 20Z" stroke="none" fill-opacity="1" fill="#323232"></path><path id="SvgjsPath1150" d="M 0 20C 0 -6.666666666666667 40 -6.666666666666667 40 20C 40 46.666666666666664 0 46.666666666666664 0 20Z" stroke="none" fill="none"></path><g id="SvgjsG1151"><text id="SvgjsText1152" font-family="微软雅黑" text-anchor="middle" font-size="13px" width="0" fill="#323232" font-weight="400" align="middle" anchor="middle" family="微软雅黑" size="13px" weight="400" font-style="" y="45.05" transform="rotate(0)"></text></g></g><g id="SvgjsG1153"><path id="SvgjsPath1154" d="M439 435.5L439 487.25L438.0130208333333 487.25L438.0130208333333 539" stroke="#323232" stroke-width="2" fill="none" marker-end="url(#SvgjsMarker1155)"></path><rect id="SvgjsRect1157" width="126" height="16" x="375.50651041666663" y="479.25" fill="#ffffff"></rect><text id="SvgjsText1158" font-family="微软雅黑" text-anchor="middle" font-size="13px" width="126" fill="#323232" font-weight="400" align="top" anchor="middle" family="微软雅黑" size="13px" weight="400" font-style="" y="477.3" transform="rotate(0)"><tspan id="SvgjsTspan1159" dy="16" x="438.50651041666663"><tspan id="SvgjsTspan1160" style="text-decoration:;">[状态为请求支付成功]</tspan></tspan></text></g><g id="SvgjsG1161" transform="translate(391.625,539)"><path id="SvgjsPath1162" d="M 0 4Q 0 0 4 0L 90.75 0Q 94.75 0 94.75 4L 94.75 16Q 94.75 20 90.75 20L 4 20Q 0 20 0 16Z" stroke="none" fill-opacity="1" fill="#323232"></path></g><g id="SvgjsG1163" transform="translate(322.25,654)"><path id="SvgjsPath1164" d="M 0 4Q 0 0 4 0L 116 0Q 120 0 120 4L 120 16Q 120 20 116 20L 4 20Q 0 20 0 16Z" stroke="none" fill-opacity="1" fill="#323232"></path></g><g id="SvgjsG1165"><path id="SvgjsPath1166" d="M389.75 607.5L379 607.5L379 654" stroke="#323232" stroke-width="2" fill="none" marker-end="url(#SvgjsMarker1167)"></path></g><g id="SvgjsG1169"><path id="SvgjsPath1170" d="M322.98477879236697 665.6513770290094L322.75 665.6513770290094L322.75 718" stroke="#323232" stroke-width="2" fill="none" marker-end="url(#SvgjsMarker1171)"></path></g><g id="SvgjsG1173"><path id="SvgjsPath1174" d="M442.1339745962156 670.5L443.5 670.5L443.5 718" stroke="#323232" stroke-width="2" fill="none" marker-end="url(#SvgjsMarker1175)"></path></g><g id="SvgjsG1177" transform="translate(394,718)"><path id="SvgjsPath1178" d="M 0 0L 99 0L 99 25L 0 25Z" stroke="#323232" stroke-width="2" fill-opacity="1" fill="#ffffff"></path><g id="SvgjsG1179"><text id="SvgjsText1180" font-family="微软雅黑" text-anchor="middle" font-size="13px" width="78" fill="#323232" font-weight="400" align="middle" anchor="middle" family="微软雅黑" size="13px" weight="400" font-style="" y="2.55" transform="rotate(0)"><tspan id="SvgjsTspan1181" dy="16" x="49.5"><tspan id="SvgjsTspan1182" style="text-decoration:;">获取订单状态</tspan></tspan></text></g></g><g id="SvgjsG1183" transform="translate(601.25,358.25)"><path id="SvgjsPath1184" d="M 0 20L 20 0L 40 20L 20 40L 0 20Z" stroke="#323232" stroke-width="2" fill-opacity="1" fill="#ffffff"></path></g><g id="SvgjsG1185"><path id="SvgjsPath1186" d="M601.25 378.25L560.5 378.25L560.5 426.17985841054804" stroke="#323232" stroke-width="2" fill="none" marker-end="url(#SvgjsMarker1187)"></path><rect id="SvgjsRect1189" width="61" height="16" x="530" y="373.839929205274" fill="#ffffff"></rect><text id="SvgjsText1190" font-family="微软雅黑" text-anchor="middle" font-size="13px" width="61" fill="#323232" font-weight="400" align="top" anchor="middle" family="微软雅黑" size="13px" weight="400" font-style="" y="371.88992920527403" transform="rotate(0)"><tspan id="SvgjsTspan1191" dy="16" x="560.5"><tspan id="SvgjsTspan1192" style="text-decoration:;">[请求失败]</tspan></tspan></text></g><g id="SvgjsG1193" transform="translate(510,427.25)"><path id="SvgjsPath1194" d="M 0 0L 101 0L 101 39.08332824707031L 0 39.08332824707031Z" stroke="#323232" stroke-width="2" fill-opacity="1" fill="#ffffff"></path><g id="SvgjsG1195"><text id="SvgjsText1196" font-family="微软雅黑" text-anchor="middle" font-size="13px" width="78" fill="#323232" font-weight="400" align="middle" anchor="middle" family="微软雅黑" size="13px" weight="400" font-style="" y="1.5916641235351563" transform="rotate(0)"><tspan id="SvgjsTspan1197" dy="16" x="50.5"><tspan id="SvgjsTspan1198" style="text-decoration:;">设置订单状态</tspan></tspan><tspan id="SvgjsTspan1199" dy="16" x="50.5"><tspan id="SvgjsTspan1200" style="text-decoration:;">为失败</tspan></tspan></text></g></g><g id="SvgjsG1201"><path id="SvgjsPath1202" d="M560.5 466.3333282470703L560.5 482.66666412353516L560.5 482.66666412353516L560.5 499" stroke="#323232" stroke-width="2" fill="none" marker-end="url(#SvgjsMarker1203)"></path></g><g id="SvgjsG1205" transform="translate(540.5,499)"><path id="SvgjsPath1206" d="M 0 20C 0 -6.666666666666667 40 -6.666666666666667 40 20C 40 46.666666666666664 0 46.666666666666664 0 20Z" stroke="#323232" stroke-width="4" fill-opacity="1" fill="#ffffff"></path><path id="SvgjsPath1207" d="M 10 20C 10 6.666666666666666 30 6.666666666666666 30 20C 30 33.333333333333336 10 33.333333333333336 10 20Z" stroke="none" fill-opacity="1" fill="#323232"></path><path id="SvgjsPath1208" d="M 0 20C 0 -6.666666666666667 40 -6.666666666666667 40 20C 40 46.666666666666664 0 46.666666666666664 0 20Z" stroke="none" fill="none"></path><g id="SvgjsG1209"><text id="SvgjsText1210" font-family="微软雅黑" text-anchor="middle" font-size="13px" width="0" fill="#323232" font-weight="400" align="middle" anchor="middle" family="微软雅黑" size="13px" weight="400" font-style="" y="45.05" transform="rotate(0)"></text></g></g><g id="SvgjsG1211"><path id="SvgjsPath1212" d="M641.25 378.25L677 378.25L677 471.91666412353516" stroke="#323232" stroke-width="2" fill="none" marker-end="url(#SvgjsMarker1213)"></path><rect id="SvgjsRect1215" width="61" height="16" x="646.5" y="399.2083320617676" fill="#ffffff"></rect><text id="SvgjsText1216" font-family="微软雅黑" text-anchor="middle" font-size="13px" width="61" fill="#323232" font-weight="400" align="top" anchor="middle" family="微软雅黑" size="13px" weight="400" font-style="" y="397.2583320617676" transform="rotate(0)"><tspan id="SvgjsTspan1217" dy="16" x="677"><tspan id="SvgjsTspan1218" style="text-decoration:;">[请求成功]</tspan></tspan></text></g><g id="SvgjsG1219" transform="translate(623,471.91666412353516)"><path id="SvgjsPath1220" d="M 0 0L 108 0L 108 55.75L 0 55.75Z" stroke="#323232" stroke-width="2" fill-opacity="1" fill="#ffffff"></path><g id="SvgjsG1221"><text id="SvgjsText1222" font-family="微软雅黑" text-anchor="middle" font-size="13px" width="81" fill="#323232" font-weight="400" align="middle" anchor="middle" family="微软雅黑" size="13px" weight="400" font-style="" y="1.925" transform="rotate(0)"><tspan id="SvgjsTspan1223" dy="16" x="54"><tspan id="SvgjsTspan1224" style="text-decoration:;">设置订单状态</tspan></tspan><tspan id="SvgjsTspan1225" dy="16" x="54"><tspan id="SvgjsTspan1226" style="text-decoration:;">为请求支付功</tspan></tspan><tspan id="SvgjsTspan1227" dy="16" x="54"><tspan id="SvgjsTspan1228" style="text-decoration:;">并记录支付url</tspan></tspan></text></g></g><g id="SvgjsG1229"><path id="SvgjsPath1230" d="M677 527.6666641235352L677 623.0833320617676L677 623.0833320617676L677 718.5" stroke="#323232" stroke-width="2" fill="none" marker-end="url(#SvgjsMarker1231)"></path></g><g id="SvgjsG1233" transform="translate(627,718.5)"><path id="SvgjsPath1234" d="M 0 0L 100 0L 100 24L 0 24Z" stroke="#323232" stroke-width="2" fill-opacity="1" fill="#ffffff"></path><g id="SvgjsG1235"><text id="SvgjsText1236" font-family="微软雅黑" text-anchor="middle" font-size="13px" width="78" fill="#323232" font-weight="400" align="middle" anchor="middle" family="微软雅黑" size="13px" weight="400" font-style="" y="2.05" transform="rotate(0)"><tspan id="SvgjsTspan1237" dy="16" x="50"><tspan id="SvgjsTspan1238" style="text-decoration:;">请求支付状态</tspan></tspan></text></g></g><g id="SvgjsG1239"><path id="SvgjsPath1240" d="M727 730.5L778.6875 730.5L778.6875 730.5L830.375 730.5" stroke="#323232" stroke-width="2" fill="none" marker-end="url(#SvgjsMarker1241)"></path></g><g id="SvgjsG1243" transform="translate(830.375,719)"><path id="SvgjsPath1244" d="M 0 0L 114.625 0L 103.125 11.5L 114.625 23L 0 23L 0 0Z" stroke="#323232" stroke-width="2" fill-opacity="1" fill="#ffffff"></path><g id="SvgjsG1245"><text id="SvgjsText1246" font-family="微软雅黑" text-anchor="middle" font-size="13px" width="78" fill="#323232" font-weight="400" align="middle" anchor="middle" family="微软雅黑" size="13px" weight="400" font-style="" y="2.55" transform="rotate(0)"><tspan id="SvgjsTspan1247" dy="16" x="52.9625"><tspan id="SvgjsTspan1248" style="text-decoration:;">返回支付状态</tspan></tspan></text></g></g><g id="SvgjsG1249"><path id="SvgjsPath1250" d="M887.6875 742L887.6875 779.3333358764648L698.5625 779.3333358764648" stroke="#323232" stroke-width="2" fill="none" marker-end="url(#SvgjsMarker1251)"></path></g><g id="SvgjsG1253" transform="translate(660.5,759.3333358764648)"><path id="SvgjsPath1254" d="M 0 20L 20 0L 40 20L 20 40L 0 20Z" stroke="#323232" stroke-width="2" fill-opacity="1" fill="#ffffff"></path></g><g id="SvgjsG1255"><path id="SvgjsPath1256" d="M660.5 779.3333358764648L597 779.3333358764648L597 730.5L627 730.5" stroke="#323232" stroke-width="2" fill="none" marker-end="url(#SvgjsMarker1257)"></path><rect id="SvgjsRect1259" width="87" height="16" x="553.5" y="755.2416683197022" fill="#ffffff"></rect><text id="SvgjsText1260" font-family="微软雅黑" text-anchor="middle" font-size="13px" width="87" fill="#323232" font-weight="400" align="top" anchor="middle" family="微软雅黑" size="13px" weight="400" font-style="" y="753.2916683197021" transform="rotate(0)"><tspan id="SvgjsTspan1261" dy="16" x="597"><tspan id="SvgjsTspan1262" style="text-decoration:;">[支付尚未完成]</tspan></tspan></text></g><g id="SvgjsG1263"><path id="SvgjsPath1264" d="M439 558.3333282470703L439 576.1666641235352L439 576.1666641235352L439 594" stroke="#323232" stroke-width="2" fill="none" marker-end="url(#SvgjsMarker1265)"></path></g><g id="SvgjsG1267"><path id="SvgjsPath1268" d="M680.5 799.3333358764648L680.5 822.8333358764648L680.5 822.8333358764648L680.5 846.3333358764648" stroke="#323232" stroke-width="2" fill="none" marker-end="url(#SvgjsMarker1269)"></path><rect id="SvgjsRect1271" width="61" height="16" x="650" y="813.4833358764649" fill="#ffffff"></rect><text id="SvgjsText1272" font-family="微软雅黑" text-anchor="middle" font-size="13px" width="61" fill="#323232" font-weight="400" align="top" anchor="middle" family="微软雅黑" size="13px" weight="400" font-style="" y="811.5333358764649" transform="rotate(0)"><tspan id="SvgjsTspan1273" dy="16" x="680.5"><tspan id="SvgjsTspan1274" style="text-decoration:;">[支付完成]</tspan></tspan></text></g><g id="SvgjsG1275" transform="translate(660.5,846.3333358764648)"><path id="SvgjsPath1276" d="M 0 20L 20 0L 40 20L 20 40L 0 20Z" stroke="#323232" stroke-width="2" fill-opacity="1" fill="#ffffff"></path></g><g id="SvgjsG1277"><path id="SvgjsPath1278" d="M493 730.5L511 730.5L511 687.5L529 687.5" stroke="#323232" stroke-width="2" fill="none" marker-end="url(#SvgjsMarker1279)"></path></g><g id="SvgjsG1281" transform="translate(529,677.5)"><path id="SvgjsPath1282" d="M 0 0L 109 0L 99 10L 109 20L 0 20L 0 0Z" stroke="#323232" stroke-width="2" fill-opacity="1" fill="#ffffff"></path><g id="SvgjsG1283"><text id="SvgjsText1284" font-family="微软雅黑" text-anchor="middle" font-size="13px" width="78" fill="#323232" font-weight="400" align="middle" anchor="middle" family="微软雅黑" size="13px" weight="400" font-style="" y="1.05" transform="rotate(0)"><tspan id="SvgjsTspan1285" dy="16" x="50.9"><tspan id="SvgjsTspan1286" style="text-decoration:;">返回订单状态</tspan></tspan></text></g></g><g id="SvgjsG1287" transform="translate(419,806.3333358764648)"><path id="SvgjsPath1288" d="M 0 20L 20 0L 40 20L 20 40L 0 20Z" stroke="#323232" stroke-width="2" fill-opacity="1" fill="#ffffff"></path></g><g id="SvgjsG1289"><path id="SvgjsPath1290" d="M583.5 697.5L583.5 751.9166679382324L439 751.9166679382324L439 806.3333358764648" stroke="#323232" stroke-width="2" fill="none" marker-end="url(#SvgjsMarker1291)"></path></g><g id="SvgjsG1293"><path id="SvgjsPath1294" d="M660.5 866.3333358764648L569.8125 866.3333358764648L569.8125 911.25" stroke="#323232" stroke-width="2" fill="none" marker-end="url(#SvgjsMarker1295)"></path><rect id="SvgjsRect1297" width="61" height="16" x="562.1979179382324" y="858.3333358764648" fill="#ffffff"></rect><text id="SvgjsText1298" font-family="微软雅黑" text-anchor="middle" font-size="13px" width="61" fill="#323232" font-weight="400" align="top" anchor="middle" family="微软雅黑" size="13px" weight="400" font-style="" y="856.3833358764648" transform="rotate(0)"><tspan id="SvgjsTspan1299" dy="16" x="592.6979179382324"><tspan id="SvgjsTspan1300" style="text-decoration:;">[支付失败]</tspan></tspan></text></g><g id="SvgjsG1301" transform="translate(549.8125,979)"><path id="SvgjsPath1302" d="M 0 20C 0 -6.666666666666667 40 -6.666666666666667 40 20C 40 46.666666666666664 0 46.666666666666664 0 20Z" stroke="#323232" stroke-width="4" fill-opacity="1" fill="#ffffff"></path><path id="SvgjsPath1303" d="M 10 20C 10 6.666666666666666 30 6.666666666666666 30 20C 30 33.333333333333336 10 33.333333333333336 10 20Z" stroke="none" fill-opacity="1" fill="#323232"></path><path id="SvgjsPath1304" d="M 0 20C 0 -6.666666666666667 40 -6.666666666666667 40 20C 40 46.666666666666664 0 46.666666666666664 0 20Z" stroke="none" fill="none"></path><g id="SvgjsG1305"><text id="SvgjsText1306" font-family="微软雅黑" text-anchor="middle" font-size="13px" width="0" fill="#323232" font-weight="400" align="middle" anchor="middle" family="微软雅黑" size="13px" weight="400" font-style="" y="45.05" transform="rotate(0)"></text></g></g><g id="SvgjsG1307" transform="translate(519.3125,911.25)"><path id="SvgjsPath1308" d="M 0 0L 101 0L 101 39.08332824707031L 0 39.08332824707031Z" stroke="#323232" stroke-width="2" fill-opacity="1" fill="#ffffff"></path><g id="SvgjsG1309"><text id="SvgjsText1310" font-family="微软雅黑" text-anchor="middle" font-size="13px" width="78" fill="#323232" font-weight="400" align="middle" anchor="middle" family="微软雅黑" size="13px" weight="400" font-style="" y="1.5916641235351563" transform="rotate(0)"><tspan id="SvgjsTspan1311" dy="16" x="50.5"><tspan id="SvgjsTspan1312" style="text-decoration:;">设置订单状态</tspan></tspan><tspan id="SvgjsTspan1313" dy="16" x="50.5"><tspan id="SvgjsTspan1314" style="text-decoration:;">为失败</tspan></tspan></text></g></g><g id="SvgjsG1315"><path id="SvgjsPath1316" d="M569.8125 950.3333282470703L569.8125 964.6666641235352L569.8125 964.6666641235352L569.8125 979" stroke="#323232" stroke-width="2" fill="none" marker-end="url(#SvgjsMarker1317)"></path></g><g id="SvgjsG1319"><path id="SvgjsPath1320" d="M680.5 886.3333358764648L680.5 916.7916679382324L680.7525 916.7916679382324L680.7525 947.25" stroke="#323232" stroke-width="2" fill="none" marker-end="url(#SvgjsMarker1321)"></path><rect id="SvgjsRect1323" width="61" height="16" x="649.5" y="901" fill="#ffffff"></rect><text id="SvgjsText1324" font-family="微软雅黑" text-anchor="middle" font-size="13px" width="61" fill="#323232" font-weight="400" align="top" anchor="middle" family="微软雅黑" size="13px" weight="400" font-style="" y="899.05" transform="rotate(0)"><tspan id="SvgjsTspan1325" dy="16" x="680"><tspan id="SvgjsTspan1326" style="text-decoration:;">[支付成功]</tspan></tspan></text></g><g id="SvgjsG1327" transform="translate(630,947.25)"><path id="SvgjsPath1328" d="M 0 0L 101 0L 101 39.08332824707031L 0 39.08332824707031Z" stroke="#323232" stroke-width="2" fill-opacity="1" fill="#ffffff"></path><g id="SvgjsG1329"><text id="SvgjsText1330" font-family="微软雅黑" text-anchor="middle" font-size="13px" width="78" fill="#323232" font-weight="400" align="middle" anchor="middle" family="微软雅黑" size="13px" weight="400" font-style="" y="1.5916641235351563" transform="rotate(0)"><tspan id="SvgjsTspan1331" dy="16" x="50.5"><tspan id="SvgjsTspan1332" style="text-decoration:;">设置订单状态</tspan></tspan><tspan id="SvgjsTspan1333" dy="16" x="50.5"><tspan id="SvgjsTspan1334" style="text-decoration:;">为支付成功</tspan></tspan></text></g></g><g id="SvgjsG1335"><path id="SvgjsPath1336" d="M680.5 986.3333282470703L680.5 1008.3333320617676L680.5 1008.3333320617676L680.5 1030.3333358764648" stroke="#323232" stroke-width="2" fill="none" marker-end="url(#SvgjsMarker1337)"></path></g><g id="SvgjsG1339" transform="translate(630.5,1030.3333358764648)"><path id="SvgjsPath1340" d="M 0 0L 100 0L 100 40L 0 40Z" stroke="#323232" stroke-width="2" fill-opacity="1" fill="#ffffff"></path><g id="SvgjsG1341"><text id="SvgjsText1342" font-family="微软雅黑" text-anchor="middle" font-size="13px" width="52" fill="#323232" font-weight="400" align="middle" anchor="middle" family="微软雅黑" size="13px" weight="400" font-style="" y="2.05" transform="rotate(0)"><tspan id="SvgjsTspan1343" dy="16" x="50"><tspan id="SvgjsTspan1344" style="text-decoration:;">触发音箱</tspan></tspan><tspan id="SvgjsTspan1345" dy="16" x="50"><tspan id="SvgjsTspan1346" style="text-decoration:;">提醒店家</tspan></tspan></text></g></g><g id="SvgjsG1347"><path id="SvgjsPath1348" d="M680.5 1070.3333358764648L680.5 1086.3333358764648L680.5 1086.3333358764648L680.5 1102.3333358764648" stroke="#323232" stroke-width="2" fill="none" marker-end="url(#SvgjsMarker1349)"></path></g><g id="SvgjsG1351" transform="translate(660.5,1102.3333358764648)"><path id="SvgjsPath1352" d="M 0 20C 0 -6.666666666666667 40 -6.666666666666667 40 20C 40 46.666666666666664 0 46.666666666666664 0 20Z" stroke="#323232" stroke-width="4" fill-opacity="1" fill="#ffffff"></path><path id="SvgjsPath1353" d="M 10 20C 10 6.666666666666666 30 6.666666666666666 30 20C 30 33.333333333333336 10 33.333333333333336 10 20Z" stroke="none" fill-opacity="1" fill="#323232"></path><path id="SvgjsPath1354" d="M 0 20C 0 -6.666666666666667 40 -6.666666666666667 40 20C 40 46.666666666666664 0 46.666666666666664 0 20Z" stroke="none" fill="none"></path><g id="SvgjsG1355"><text id="SvgjsText1356" font-family="微软雅黑" text-anchor="middle" font-size="13px" width="0" fill="#323232" font-weight="400" align="middle" anchor="middle" family="微软雅黑" size="13px" weight="400" font-style="" y="45.05" transform="rotate(0)"></text></g></g><g id="SvgjsG1357" transform="translate(25,25)"><path id="SvgjsPath1358" d="M 0 0L 238.5 0L 238.5 889L 0 889Z" stroke="#323232" stroke-width="2" fill="none"></path><path id="SvgjsPath1359" d="M 0 0L 238.5 0L 238.5 40L 0 40Z" stroke="#323232" stroke-width="2" fill-opacity="1" fill="#ffffff"></path><g id="SvgjsG1360"><text id="SvgjsText1361" font-family="微软雅黑" text-anchor="middle" font-size="16px" width="112" fill="#323232" font-weight="400" align="middle" anchor="middle" family="微软雅黑" size="16px" weight="400" font-style="" y="7.6" transform="rotate(0)"><tspan id="SvgjsTspan1362" dy="20" x="119.5"><tspan id="SvgjsTspan1363" style="text-decoration:;">第三方支付系统</tspan></tspan></text></g></g><g id="SvgjsG1364"><path id="SvgjsPath1365" d="M272.75 730.5L246.0625 730.5L246.0625 730.5L219.375 730.5" stroke="#323232" stroke-width="2" fill="none" marker-end="url(#SvgjsMarker1366)"></path></g><g id="SvgjsG1368" transform="translate(76.125,715)"><path id="SvgjsPath1369" d="M 0 0L 143.25 0L 143.25 31L 0 31Z" stroke="#323232" stroke-width="2" fill-opacity="1" fill="#ffffff"></path><g id="SvgjsG1370"><text id="SvgjsText1371" font-family="微软雅黑" text-anchor="middle" font-size="13px" width="78" fill="#323232" font-weight="400" align="middle" anchor="middle" family="微软雅黑" size="13px" weight="400" font-style="" y="5.55" transform="rotate(0)"><tspan id="SvgjsTspan1372" dy="16" x="72"><tspan id="SvgjsTspan1373" style="text-decoration:;">设置支付状态</tspan></tspan></text></g></g><g id="SvgjsG1374"><path id="SvgjsPath1375" d="M147.75 746L147.75 779.3333358764648L272.75 779.3333358764648" stroke="#323232" stroke-width="2" fill="none" marker-end="url(#SvgjsMarker1376)"></path></g><g id="SvgjsG1378" transform="translate(272.75,764.3333358764648)"><path id="SvgjsPath1379" d="M 0 0L 100 0L 100 30L 0 30Z" stroke="#323232" stroke-width="2" fill-opacity="1" fill="#ffffff"></path><g id="SvgjsG1380"><text id="SvgjsText1381" font-family="微软雅黑" text-anchor="middle" font-size="13px" width="78" fill="#323232" font-weight="400" align="middle" anchor="middle" family="微软雅黑" size="13px" weight="400" font-style="" y="5.05" transform="rotate(0)"><tspan id="SvgjsTspan1382" dy="16" x="50"><tspan id="SvgjsTspan1383" style="text-decoration:;">关闭支付页面</tspan></tspan></text></g></g><g id="SvgjsG1384"><path id="SvgjsPath1385" d="M419 826.3333358764648L389 826.3333358764648L389 772.3333435058594L429 772.3333435058594L429 742.3333435058594" stroke="#323232" stroke-width="2" fill="none" marker-end="url(#SvgjsMarker1386)"></path><rect id="SvgjsRect1388" width="74" height="16" x="352" y="802" fill="#ffffff"></rect><text id="SvgjsText1389" font-family="微软雅黑" text-anchor="middle" font-size="13px" width="74" fill="#323232" font-weight="400" align="top" anchor="middle" family="微软雅黑" size="13px" weight="400" font-style="" y="800.05" transform="rotate(0)"><tspan id="SvgjsTspan1390" dy="16" x="389"><tspan id="SvgjsTspan1391" style="text-decoration:;">[状态未变动]</tspan></tspan></text></g><g id="SvgjsG1392"><path id="SvgjsPath1393" d="M439 846.3333358764648L439 885.0416679382324L382.25 885.0416679382324L382.25 923.75" stroke="#323232" stroke-width="2" fill="none" marker-end="url(#SvgjsMarker1394)"></path><rect id="SvgjsRect1396" width="61" height="16" x="408.5" y="857" fill="#ffffff"></rect><text id="SvgjsText1397" font-family="微软雅黑" text-anchor="middle" font-size="13px" width="61" fill="#323232" font-weight="400" align="top" anchor="middle" family="微软雅黑" size="13px" weight="400" font-style="" y="855.05" transform="rotate(0)"><tspan id="SvgjsTspan1398" dy="16" x="439"><tspan id="SvgjsTspan1399" style="text-decoration:;">[状态变动]</tspan></tspan></text></g><g id="SvgjsG1400" transform="translate(330.25,923.75)"><path id="SvgjsPath1401" d="M 0 0L 104 0L 104 23.5L 0 23.5Z" stroke="#323232" stroke-width="2" fill-opacity="1" fill="#ffffff"></path><g id="SvgjsG1402"><text id="SvgjsText1403" font-family="微软雅黑" text-anchor="middle" font-size="13px" width="78" fill="#323232" font-weight="400" align="middle" anchor="middle" family="微软雅黑" size="13px" weight="400" font-style="" y="1.8" transform="rotate(0)"><tspan id="SvgjsTspan1404" dy="16" x="52"><tspan id="SvgjsTspan1405" style="text-decoration:;">提示状态信息</tspan></tspan></text></g></g><g id="SvgjsG1406"><path id="SvgjsPath1407" d="M382.25 947.25L382.25 988.7916679382324L382.25 988.7916679382324L382.25 1030.3333358764648" stroke="#323232" stroke-width="2" fill="none" marker-end="url(#SvgjsMarker1408)"></path></g><g id="SvgjsG1410" transform="translate(362.25,1030.3333358764648)"><path id="SvgjsPath1411" d="M 0 20C 0 -6.666666666666667 40 -6.666666666666667 40 20C 40 46.666666666666664 0 46.666666666666664 0 20Z" stroke="#323232" stroke-width="4" fill-opacity="1" fill="#ffffff"></path><path id="SvgjsPath1412" d="M 10 20C 10 6.666666666666666 30 6.666666666666666 30 20C 30 33.333333333333336 10 33.333333333333336 10 20Z" stroke="none" fill-opacity="1" fill="#323232"></path><path id="SvgjsPath1413" d="M 0 20C 0 -6.666666666666667 40 -6.666666666666667 40 20C 40 46.666666666666664 0 46.666666666666664 0 20Z" stroke="none" fill="none"></path><g id="SvgjsG1414"><text id="SvgjsText1415" font-family="微软雅黑" text-anchor="middle" font-size="13px" width="0" fill="#323232" font-weight="400" align="middle" anchor="middle" family="微软雅黑" size="13px" weight="400" font-style="" y="45.05" transform="rotate(0)"></text></g></g><g id="SvgjsG1416" transform="translate(272.75,840.3333435058594)"><path id="SvgjsPath1417" d="M 0 4Q 0 0 4 0L 116 0Q 120 0 120 4L 120 16Q 120 20 116 20L 4 20Q 0 20 0 16Z" stroke="none" fill-opacity="1" fill="#323232"></path></g><g id="SvgjsG1418"><path id="SvgjsPath1419" d="M322.75 794.3333358764648L322.75 817.3333396911621L335 817.3333396911621L335 840.3333435058594" stroke="#323232" stroke-width="2" fill="none" marker-end="url(#SvgjsMarker1420)"></path></g></svg>